%TF.GenerationSoftware,KiCad,Pcbnew,10.0.4*%
%TF.CreationDate,2026-07-12T00:26:30+05:30*%
%TF.ProjectId,AMUS,414d5553-2e6b-4696-9361-645f70636258,rev?*%
%TF.SameCoordinates,Original*%
%TF.FileFunction,Soldermask,Bot*%
%TF.FilePolarity,Negative*%
%FSLAX46Y46*%
G04 Gerber Fmt 4.6, Leading zero omitted, Abs format (unit mm)*
G04 Created by KiCad (PCBNEW 10.0.4) date 2026-07-12 00:26:30*
%MOMM*%
%LPD*%
G01*
G04 APERTURE LIST*
G04 Aperture macros list*
%AMRoundRect*
0 Rectangle with rounded corners*
0 $1 Rounding radius*
0 $2 $3 $4 $5 $6 $7 $8 $9 X,Y pos of 4 corners*
0 Add a 4 corners polygon primitive as box body*
4,1,4,$2,$3,$4,$5,$6,$7,$8,$9,$2,$3,0*
0 Add four circle primitives for the rounded corners*
1,1,$1+$1,$2,$3*
1,1,$1+$1,$4,$5*
1,1,$1+$1,$6,$7*
1,1,$1+$1,$8,$9*
0 Add four rect primitives between the rounded corners*
20,1,$1+$1,$2,$3,$4,$5,0*
20,1,$1+$1,$4,$5,$6,$7,0*
20,1,$1+$1,$6,$7,$8,$9,0*
20,1,$1+$1,$8,$9,$2,$3,0*%
G04 Aperture macros list end*
%ADD10C,1.700000*%
%ADD11C,4.000000*%
%ADD12C,2.200000*%
%ADD13C,0.500000*%
%ADD14RoundRect,0.250000X0.550000X-0.550000X0.550000X0.550000X-0.550000X0.550000X-0.550000X-0.550000X0*%
%ADD15C,1.600000*%
%ADD16RoundRect,0.250000X-0.250000X-0.475000X0.250000X-0.475000X0.250000X0.475000X-0.250000X0.475000X0*%
%ADD17RoundRect,0.205000X0.470000X0.205000X-0.470000X0.205000X-0.470000X-0.205000X0.470000X-0.205000X0*%
%ADD18C,1.524000*%
%ADD19RoundRect,0.152400X-1.063600X-0.609600X1.063600X-0.609600X1.063600X0.609600X-1.063600X0.609600X0*%
%ADD20RoundRect,0.152400X1.063600X0.609600X-1.063600X0.609600X-1.063600X-0.609600X1.063600X-0.609600X0*%
%ADD21RoundRect,0.250000X-0.475000X0.250000X-0.475000X-0.250000X0.475000X-0.250000X0.475000X0.250000X0*%
%ADD22RoundRect,0.250000X-0.550000X0.550000X-0.550000X-0.550000X0.550000X-0.550000X0.550000X0.550000X0*%
%ADD23RoundRect,0.250000X0.550000X0.550000X-0.550000X0.550000X-0.550000X-0.550000X0.550000X-0.550000X0*%
%ADD24RoundRect,0.250000X-0.550000X-0.550000X0.550000X-0.550000X0.550000X0.550000X-0.550000X0.550000X0*%
G04 APERTURE END LIST*
D10*
%TO.C,SW14*%
X198120000Y-54610000D03*
D11*
X203200000Y-54610000D03*
D10*
X208280000Y-54610000D03*
D12*
X205740000Y-49530000D03*
X199390000Y-52070000D03*
%TD*%
D10*
%TO.C,SW13*%
X217170000Y-48260000D03*
D11*
X222250000Y-48260000D03*
D10*
X227330000Y-48260000D03*
D12*
X224790000Y-43180000D03*
X218440000Y-45720000D03*
%TD*%
D10*
%TO.C,SW12*%
X255270000Y-92710000D03*
D11*
X260350000Y-92710000D03*
D10*
X265430000Y-92710000D03*
D12*
X262890000Y-87630000D03*
X256540000Y-90170000D03*
%TD*%
D10*
%TO.C,SW38*%
X77470000Y-67310000D03*
D11*
X82550000Y-67310000D03*
D10*
X87630000Y-67310000D03*
D12*
X85090000Y-62230000D03*
X78740000Y-64770000D03*
%TD*%
D10*
%TO.C,SW9*%
X198120000Y-35405847D03*
D11*
X203200000Y-35405847D03*
D10*
X208280000Y-35405847D03*
D12*
X205740000Y-30325847D03*
X199390000Y-32865847D03*
%TD*%
D10*
%TO.C,SW31*%
X134620000Y-88900000D03*
D11*
X139700000Y-88900000D03*
D10*
X144780000Y-88900000D03*
D12*
X142240000Y-83820000D03*
X135890000Y-86360000D03*
%TD*%
D13*
%TO.C,mouse-bite-3*%
X151000000Y-94412000D03*
X154000000Y-94412000D03*
X154000000Y-93662000D03*
X151000000Y-93650000D03*
X151000000Y-92900000D03*
X154000000Y-92900000D03*
X151000000Y-92150000D03*
X154000000Y-92150000D03*
X151000000Y-91376000D03*
X154000000Y-91376000D03*
%TD*%
D10*
%TO.C,SW20*%
X255270000Y-111760000D03*
D11*
X260350000Y-111760000D03*
D10*
X265430000Y-111760000D03*
D12*
X262890000Y-106680000D03*
X256540000Y-109220000D03*
%TD*%
D10*
%TO.C,SW10*%
X179070000Y-62230000D03*
D11*
X184150000Y-62230000D03*
D10*
X189230000Y-62230000D03*
D12*
X186690000Y-57150000D03*
X180340000Y-59690000D03*
%TD*%
D10*
%TO.C,SW5*%
X179070000Y-43180000D03*
D11*
X184150000Y-43180000D03*
D10*
X189230000Y-43180000D03*
D12*
X186690000Y-38100000D03*
X180340000Y-40640000D03*
%TD*%
D10*
%TO.C,SW16*%
X236220000Y-111760000D03*
D11*
X241300000Y-111760000D03*
D10*
X246380000Y-111760000D03*
D12*
X243840000Y-106680000D03*
X237490000Y-109220000D03*
%TD*%
D10*
%TO.C,SW35*%
X115570000Y-81280000D03*
D11*
X120650000Y-81280000D03*
D10*
X125730000Y-81280000D03*
D12*
X123190000Y-76200000D03*
X116840000Y-78740000D03*
%TD*%
D10*
%TO.C,SW37*%
X58420000Y-54610000D03*
D11*
X63500000Y-54610000D03*
D10*
X68580000Y-54610000D03*
D12*
X66040000Y-49530000D03*
X59690000Y-52070000D03*
%TD*%
D10*
%TO.C,SW25*%
X115570000Y-43180000D03*
D11*
X120650000Y-43180000D03*
D10*
X125730000Y-43180000D03*
D12*
X123190000Y-38100000D03*
X116840000Y-40640000D03*
%TD*%
D10*
%TO.C,SW34*%
X96520000Y-54610000D03*
D11*
X101600000Y-54610000D03*
D10*
X106680000Y-54610000D03*
D12*
X104140000Y-49530000D03*
X97790000Y-52070000D03*
%TD*%
D10*
%TO.C,SW8*%
X236220000Y-92710000D03*
D11*
X241300000Y-92710000D03*
D10*
X246380000Y-92710000D03*
D12*
X243840000Y-87630000D03*
X237490000Y-90170000D03*
%TD*%
D10*
%TO.C,SW24*%
X77470000Y-86360000D03*
D11*
X82550000Y-86360000D03*
D10*
X87630000Y-86360000D03*
D12*
X85090000Y-81280000D03*
X78740000Y-83820000D03*
%TD*%
D10*
%TO.C,SW22*%
X39370000Y-54610000D03*
D11*
X44450000Y-54610000D03*
D10*
X49530000Y-54610000D03*
D12*
X46990000Y-49530000D03*
X40640000Y-52070000D03*
%TD*%
D10*
%TO.C,SW17*%
X236220000Y-54610000D03*
D11*
X241300000Y-54610000D03*
D10*
X246380000Y-54610000D03*
D12*
X243840000Y-49530000D03*
X237490000Y-52070000D03*
%TD*%
D10*
%TO.C,SW19*%
X198120000Y-73660000D03*
D11*
X203200000Y-73660000D03*
D10*
X208280000Y-73660000D03*
D12*
X205740000Y-68580000D03*
X199390000Y-71120000D03*
%TD*%
D10*
%TO.C,SW21*%
X134620000Y-50800000D03*
D11*
X139700000Y-50800000D03*
D10*
X144780000Y-50800000D03*
D12*
X142240000Y-45720000D03*
X135890000Y-48260000D03*
%TD*%
D10*
%TO.C,SW6*%
X160020000Y-69850000D03*
D11*
X165100000Y-69850000D03*
D10*
X170180000Y-69850000D03*
D12*
X167640000Y-64770000D03*
X161290000Y-67310000D03*
%TD*%
D10*
%TO.C,SW36*%
X58420000Y-111760000D03*
D11*
X63500000Y-111760000D03*
D10*
X68580000Y-111760000D03*
D12*
X66040000Y-106680000D03*
X59690000Y-109220000D03*
%TD*%
D10*
%TO.C,SW32*%
X39370000Y-92710000D03*
D11*
X44450000Y-92710000D03*
D10*
X49530000Y-92710000D03*
D12*
X46990000Y-87630000D03*
X40640000Y-90170000D03*
%TD*%
D10*
%TO.C,SW23*%
X58420000Y-73660000D03*
D11*
X63500000Y-73660000D03*
D10*
X68580000Y-73660000D03*
D12*
X66040000Y-68580000D03*
X59690000Y-71120000D03*
%TD*%
D10*
%TO.C,SW40*%
X39370000Y-111760000D03*
D11*
X44450000Y-111760000D03*
D10*
X49530000Y-111760000D03*
D12*
X46990000Y-106680000D03*
X40640000Y-109220000D03*
%TD*%
D10*
%TO.C,SW28*%
X58420000Y-92710000D03*
D11*
X63500000Y-92710000D03*
D10*
X68580000Y-92710000D03*
D12*
X66040000Y-87630000D03*
X59690000Y-90170000D03*
%TD*%
D10*
%TO.C,SW26*%
X134620000Y-69850000D03*
D11*
X139700000Y-69850000D03*
D10*
X144780000Y-69850000D03*
D12*
X142240000Y-64770000D03*
X135890000Y-67310000D03*
%TD*%
D10*
%TO.C,SW3*%
X236220000Y-73660000D03*
D11*
X241300000Y-73660000D03*
D10*
X246380000Y-73660000D03*
D12*
X243840000Y-68580000D03*
X237490000Y-71120000D03*
%TD*%
D10*
%TO.C,SW1*%
X160020000Y-50800000D03*
D11*
X165100000Y-50800000D03*
D10*
X170180000Y-50800000D03*
D12*
X167640000Y-45720000D03*
X161290000Y-48260000D03*
%TD*%
D10*
%TO.C,SW4*%
X217170000Y-86360000D03*
D11*
X222250000Y-86360000D03*
D10*
X227330000Y-86360000D03*
D12*
X224790000Y-81280000D03*
X218440000Y-83820000D03*
%TD*%
D10*
%TO.C,SW18*%
X217170000Y-67310000D03*
D11*
X222250000Y-67310000D03*
D10*
X227330000Y-67310000D03*
D12*
X224790000Y-62230000D03*
X218440000Y-64770000D03*
%TD*%
D10*
%TO.C,SW29*%
X96520000Y-35560000D03*
D11*
X101600000Y-35560000D03*
D10*
X106680000Y-35560000D03*
D12*
X104140000Y-30480000D03*
X97790000Y-33020000D03*
%TD*%
D13*
%TO.C,mouse-bite-2*%
X151000000Y-73412000D03*
X154000000Y-73412000D03*
X154000000Y-72662000D03*
X151000000Y-72650000D03*
X151000000Y-71900000D03*
X154000000Y-71900000D03*
X151000000Y-71150000D03*
X154000000Y-71150000D03*
X151000000Y-70376000D03*
X154000000Y-70376000D03*
%TD*%
D10*
%TO.C,SW33*%
X77470000Y-48260000D03*
D11*
X82550000Y-48260000D03*
D10*
X87630000Y-48260000D03*
D12*
X85090000Y-43180000D03*
X78740000Y-45720000D03*
%TD*%
D10*
%TO.C,SW30*%
X115570000Y-62230000D03*
D11*
X120650000Y-62230000D03*
D10*
X125730000Y-62230000D03*
D12*
X123190000Y-57150000D03*
X116840000Y-59690000D03*
%TD*%
D10*
%TO.C,SW2*%
X255270000Y-54610000D03*
D11*
X260350000Y-54610000D03*
D10*
X265430000Y-54610000D03*
D12*
X262890000Y-49530000D03*
X256540000Y-52070000D03*
%TD*%
D10*
%TO.C,SW7*%
X255270000Y-73660000D03*
D11*
X260350000Y-73660000D03*
D10*
X265430000Y-73660000D03*
D12*
X262890000Y-68580000D03*
X256540000Y-71120000D03*
%TD*%
D10*
%TO.C,SW11*%
X160020000Y-88900000D03*
D11*
X165100000Y-88900000D03*
D10*
X170180000Y-88900000D03*
D12*
X167640000Y-83820000D03*
X161290000Y-86360000D03*
%TD*%
D13*
%TO.C,mouse-bite-1*%
X150996325Y-52336485D03*
X153996325Y-52336485D03*
X153996325Y-51586485D03*
X150996325Y-51574485D03*
X150996325Y-50824485D03*
X153996325Y-50824485D03*
X150996325Y-50074485D03*
X153996325Y-50074485D03*
X150996325Y-49300485D03*
X153996325Y-49300485D03*
%TD*%
D10*
%TO.C,SW27*%
X39370000Y-73660000D03*
D11*
X44450000Y-73660000D03*
D10*
X49530000Y-73660000D03*
D12*
X46990000Y-68580000D03*
X40640000Y-71120000D03*
%TD*%
D10*
%TO.C,SW39*%
X96520000Y-73660000D03*
D11*
X101600000Y-73660000D03*
D10*
X106680000Y-73660000D03*
D12*
X104140000Y-68580000D03*
X97790000Y-71120000D03*
%TD*%
D10*
%TO.C,SW15*%
X179070000Y-81280000D03*
D11*
X184150000Y-81280000D03*
D10*
X189230000Y-81280000D03*
D12*
X186690000Y-76200000D03*
X180340000Y-78740000D03*
%TD*%
D14*
%TO.C,D75*%
X53500000Y-116120000D03*
D15*
X53500000Y-108500000D03*
%TD*%
D14*
%TO.C,D61*%
X53400000Y-96820000D03*
D15*
X53400000Y-89200000D03*
%TD*%
D14*
%TO.C,D17*%
X250500000Y-59010000D03*
D15*
X250500000Y-51390000D03*
%TD*%
D16*
%TO.C,C7*%
X221350000Y-56600000D03*
X223250000Y-56600000D03*
%TD*%
D14*
%TO.C,D45*%
X53200000Y-58720000D03*
D15*
X53200000Y-51100000D03*
%TD*%
D17*
%TO.C,D79*%
X47125000Y-116850000D03*
X47125000Y-115350000D03*
X41675000Y-115350000D03*
X41675000Y-116850000D03*
%TD*%
D16*
%TO.C,C40*%
X43650000Y-62700000D03*
X45550000Y-62700000D03*
%TD*%
%TO.C,C18*%
X164350000Y-97200000D03*
X166250000Y-97200000D03*
%TD*%
D14*
%TO.C,D18*%
X231000000Y-72510000D03*
D15*
X231000000Y-64890000D03*
%TD*%
D16*
%TO.C,C20*%
X202200000Y-62800000D03*
X204100000Y-62800000D03*
%TD*%
D14*
%TO.C,D13*%
X231200000Y-53310000D03*
D15*
X231200000Y-45690000D03*
%TD*%
D14*
%TO.C,D73*%
X91600000Y-71810000D03*
D15*
X91600000Y-64190000D03*
%TD*%
D14*
%TO.C,D9*%
X211900000Y-40310000D03*
D15*
X211900000Y-32690000D03*
%TD*%
D16*
%TO.C,C13*%
X164150000Y-62300000D03*
X166050000Y-62300000D03*
%TD*%
D17*
%TO.C,D39*%
X244025000Y-116650000D03*
X244025000Y-115150000D03*
X238575000Y-115150000D03*
X238575000Y-116650000D03*
%TD*%
D14*
%TO.C,D59*%
X129200000Y-70310000D03*
D15*
X129200000Y-62690000D03*
%TD*%
D17*
%TO.C,D21*%
X186925000Y-48050000D03*
X186925000Y-46550000D03*
X181475000Y-46550000D03*
X181475000Y-48050000D03*
%TD*%
D18*
%TO.C,U1*%
X172800000Y-43060000D03*
D19*
X173635000Y-43060000D03*
D18*
X172800000Y-45600000D03*
D19*
X173635000Y-45600000D03*
D18*
X172800000Y-48140000D03*
D19*
X173635000Y-48140000D03*
D18*
X172800000Y-50680000D03*
D19*
X173635000Y-50680000D03*
D18*
X172800000Y-53220000D03*
D19*
X173635000Y-53220000D03*
D18*
X172800000Y-55760000D03*
D19*
X173635000Y-55760000D03*
D18*
X172800000Y-58300000D03*
D19*
X173635000Y-58300000D03*
D20*
X156725000Y-58300000D03*
D18*
X157560000Y-58300000D03*
D20*
X156725000Y-55760000D03*
D18*
X157560000Y-55760000D03*
D20*
X156725000Y-53220000D03*
D18*
X157560000Y-53220000D03*
D20*
X156725000Y-50680000D03*
D18*
X157560000Y-50680000D03*
D20*
X156725000Y-48140000D03*
D18*
X157560000Y-48140000D03*
D20*
X156725000Y-45600000D03*
D18*
X157560000Y-45600000D03*
D20*
X156725000Y-43060000D03*
D18*
X157560000Y-43060000D03*
%TD*%
D16*
%TO.C,C23*%
X119650000Y-70400000D03*
X121550000Y-70400000D03*
%TD*%
%TO.C,C15*%
X183250000Y-70500000D03*
X185150000Y-70500000D03*
%TD*%
D17*
%TO.C,D41*%
X142525000Y-55750000D03*
X142525000Y-54250000D03*
X137075000Y-54250000D03*
X137075000Y-55750000D03*
%TD*%
%TO.C,D42*%
X47200000Y-78600000D03*
X47200000Y-77100000D03*
X41750000Y-77100000D03*
X41750000Y-78600000D03*
%TD*%
%TO.C,D64*%
X85400000Y-91500000D03*
X85400000Y-90000000D03*
X79950000Y-90000000D03*
X79950000Y-91500000D03*
%TD*%
%TO.C,D56*%
X104600000Y-40500000D03*
X104600000Y-39000000D03*
X99150000Y-39000000D03*
X99150000Y-40500000D03*
%TD*%
D16*
%TO.C,C19*%
X221250000Y-94500000D03*
X223150000Y-94500000D03*
%TD*%
D17*
%TO.C,D76*%
X47300000Y-59500000D03*
X47300000Y-58000000D03*
X41850000Y-58000000D03*
X41850000Y-59500000D03*
%TD*%
%TO.C,D63*%
X104325000Y-59650000D03*
X104325000Y-58150000D03*
X98875000Y-58150000D03*
X98875000Y-59650000D03*
%TD*%
%TO.C,D69*%
X66300000Y-59500000D03*
X66300000Y-58000000D03*
X60850000Y-58000000D03*
X60850000Y-59500000D03*
%TD*%
%TO.C,D22*%
X206025000Y-40250000D03*
X206025000Y-38750000D03*
X200575000Y-38750000D03*
X200575000Y-40250000D03*
%TD*%
D14*
%TO.C,D53*%
X53400000Y-78210000D03*
D15*
X53400000Y-70590000D03*
%TD*%
D16*
%TO.C,C34*%
X43500000Y-120100000D03*
X45400000Y-120100000D03*
%TD*%
D17*
%TO.C,D36*%
X225025000Y-91150000D03*
X225025000Y-89650000D03*
X219575000Y-89650000D03*
X219575000Y-91150000D03*
%TD*%
%TO.C,D23*%
X225025000Y-53150000D03*
X225025000Y-51650000D03*
X219575000Y-51650000D03*
X219575000Y-53150000D03*
%TD*%
D16*
%TO.C,C28*%
X81650000Y-94600000D03*
X83550000Y-94600000D03*
%TD*%
D17*
%TO.C,D43*%
X142525000Y-93950000D03*
X142525000Y-92450000D03*
X137075000Y-92450000D03*
X137075000Y-93950000D03*
%TD*%
D16*
%TO.C,C6*%
X259600000Y-81900000D03*
X261500000Y-81900000D03*
%TD*%
D14*
%TO.C,D46*%
X72200000Y-77920000D03*
D15*
X72200000Y-70300000D03*
%TD*%
D17*
%TO.C,D77*%
X142425000Y-74750000D03*
X142425000Y-73250000D03*
X136975000Y-73250000D03*
X136975000Y-74750000D03*
%TD*%
%TO.C,D29*%
X205925000Y-59650000D03*
X205925000Y-58150000D03*
X200475000Y-58150000D03*
X200475000Y-59650000D03*
%TD*%
D16*
%TO.C,C31*%
X119750000Y-89500000D03*
X121650000Y-89500000D03*
%TD*%
%TO.C,C22*%
X138750000Y-62100000D03*
X140650000Y-62100000D03*
%TD*%
D14*
%TO.C,D66*%
X110500000Y-59010000D03*
D15*
X110500000Y-51390000D03*
%TD*%
D14*
%TO.C,D19*%
X212200000Y-77210000D03*
D15*
X212200000Y-69590000D03*
%TD*%
D16*
%TO.C,C39*%
X43450000Y-100900000D03*
X45350000Y-100900000D03*
%TD*%
%TO.C,C36*%
X100850000Y-81900000D03*
X102750000Y-81900000D03*
%TD*%
D14*
%TO.C,D68*%
X72500000Y-115910000D03*
D15*
X72500000Y-108290000D03*
%TD*%
D14*
%TO.C,D14*%
X211900000Y-59510000D03*
D15*
X211900000Y-51890000D03*
%TD*%
D16*
%TO.C,C17*%
X183250000Y-89500000D03*
X185150000Y-89500000D03*
%TD*%
D21*
%TO.C,C27*%
X114200000Y-46300000D03*
X114200000Y-48200000D03*
%TD*%
D14*
%TO.C,D4*%
X231100000Y-91410000D03*
D15*
X231100000Y-83790000D03*
%TD*%
D17*
%TO.C,D34*%
X186900000Y-86200000D03*
X186900000Y-84700000D03*
X181450000Y-84700000D03*
X181450000Y-86200000D03*
%TD*%
%TO.C,D28*%
X186925000Y-67150000D03*
X186925000Y-65650000D03*
X181475000Y-65650000D03*
X181475000Y-67150000D03*
%TD*%
D14*
%TO.C,D50*%
X91400000Y-91320000D03*
D15*
X91400000Y-83700000D03*
%TD*%
D14*
%TO.C,D10*%
X193100000Y-67410000D03*
D15*
X193100000Y-59790000D03*
%TD*%
D22*
%TO.C,D11*%
X173800000Y-84990000D03*
D15*
X173800000Y-92610000D03*
%TD*%
D14*
%TO.C,D7*%
X269100000Y-77720000D03*
D15*
X269100000Y-70100000D03*
%TD*%
D16*
%TO.C,C8*%
X221350000Y-75600000D03*
X223250000Y-75600000D03*
%TD*%
D17*
%TO.C,D80*%
X66425000Y-116650000D03*
X66425000Y-115150000D03*
X60975000Y-115150000D03*
X60975000Y-116650000D03*
%TD*%
D16*
%TO.C,C37*%
X100950000Y-43700000D03*
X102850000Y-43700000D03*
%TD*%
D14*
%TO.C,D52*%
X148400000Y-74710000D03*
D15*
X148400000Y-67090000D03*
%TD*%
D16*
%TO.C,C10*%
X240450000Y-100900000D03*
X242350000Y-100900000D03*
%TD*%
%TO.C,C26*%
X138850000Y-78100000D03*
X140750000Y-78100000D03*
%TD*%
D14*
%TO.C,D15*%
X193100000Y-85810000D03*
D15*
X193100000Y-78190000D03*
%TD*%
D17*
%TO.C,D32*%
X263325000Y-78750000D03*
X263325000Y-77250000D03*
X257875000Y-77250000D03*
X257875000Y-78750000D03*
%TD*%
D16*
%TO.C,C3*%
X259550000Y-100800000D03*
X261450000Y-100800000D03*
%TD*%
D14*
%TO.C,D74*%
X110500000Y-78220000D03*
D15*
X110500000Y-70600000D03*
%TD*%
D16*
%TO.C,C16*%
X202300000Y-82000000D03*
X204200000Y-82000000D03*
%TD*%
%TO.C,C12*%
X183400000Y-51300000D03*
X185300000Y-51300000D03*
%TD*%
D17*
%TO.C,D26*%
X167825000Y-55650000D03*
X167825000Y-54150000D03*
X162375000Y-54150000D03*
X162375000Y-55650000D03*
%TD*%
D16*
%TO.C,C24*%
X81600000Y-75500000D03*
X83500000Y-75500000D03*
%TD*%
D17*
%TO.C,D57*%
X85400000Y-72300000D03*
X85400000Y-70800000D03*
X79950000Y-70800000D03*
X79950000Y-72300000D03*
%TD*%
D16*
%TO.C,C1*%
X259350000Y-62700000D03*
X261250000Y-62700000D03*
%TD*%
D14*
%TO.C,D12*%
X269400000Y-97300000D03*
D15*
X269400000Y-89680000D03*
%TD*%
D14*
%TO.C,D54*%
X72300000Y-96910000D03*
D15*
X72300000Y-89290000D03*
%TD*%
D17*
%TO.C,D25*%
X263050000Y-59700000D03*
X263050000Y-58200000D03*
X257600000Y-58200000D03*
X257600000Y-59700000D03*
%TD*%
D14*
%TO.C,D65*%
X91400000Y-52510000D03*
D15*
X91400000Y-44890000D03*
%TD*%
D22*
%TO.C,D6*%
X174000000Y-65690000D03*
D15*
X174000000Y-73310000D03*
%TD*%
D16*
%TO.C,C30*%
X62650000Y-62800000D03*
X64550000Y-62800000D03*
%TD*%
D23*
%TO.C,D51*%
X124810000Y-51800000D03*
D15*
X117190000Y-51800000D03*
%TD*%
D16*
%TO.C,C35*%
X43550000Y-81900000D03*
X45450000Y-81900000D03*
%TD*%
D17*
%TO.C,D40*%
X263125000Y-116650000D03*
X263125000Y-115150000D03*
X257675000Y-115150000D03*
X257675000Y-116650000D03*
%TD*%
D16*
%TO.C,C9*%
X240550000Y-81800000D03*
X242450000Y-81800000D03*
%TD*%
D17*
%TO.C,D58*%
X104525000Y-78750000D03*
X104525000Y-77250000D03*
X99075000Y-77250000D03*
X99075000Y-78750000D03*
%TD*%
D14*
%TO.C,D2*%
X269600000Y-59210000D03*
D15*
X269600000Y-51590000D03*
%TD*%
D14*
%TO.C,D60*%
X148500000Y-93320000D03*
D15*
X148500000Y-85700000D03*
%TD*%
D17*
%TO.C,D71*%
X66425000Y-97750000D03*
X66425000Y-96250000D03*
X60975000Y-96250000D03*
X60975000Y-97750000D03*
%TD*%
%TO.C,D27*%
X167925000Y-74750000D03*
X167925000Y-73250000D03*
X162475000Y-73250000D03*
X162475000Y-74750000D03*
%TD*%
D16*
%TO.C,C25*%
X81400000Y-56500000D03*
X83300000Y-56500000D03*
%TD*%
D17*
%TO.C,D33*%
X167925000Y-93750000D03*
X167925000Y-92250000D03*
X162475000Y-92250000D03*
X162475000Y-93750000D03*
%TD*%
%TO.C,D24*%
X244025000Y-59550000D03*
X244025000Y-58050000D03*
X238575000Y-58050000D03*
X238575000Y-59550000D03*
%TD*%
D16*
%TO.C,C38*%
X62900000Y-81900000D03*
X64800000Y-81900000D03*
%TD*%
%TO.C,C11*%
X202450000Y-43600000D03*
X204350000Y-43600000D03*
%TD*%
D17*
%TO.C,D49*%
X123600000Y-86200000D03*
X123600000Y-84700000D03*
X118150000Y-84700000D03*
X118150000Y-86200000D03*
%TD*%
D23*
%TO.C,D1*%
X188000000Y-34400000D03*
D15*
X180380000Y-34400000D03*
%TD*%
D16*
%TO.C,C2*%
X240150000Y-62800000D03*
X242050000Y-62800000D03*
%TD*%
%TO.C,C33*%
X62750000Y-119900000D03*
X64650000Y-119900000D03*
%TD*%
D14*
%TO.C,D8*%
X250000000Y-96710000D03*
D15*
X250000000Y-89090000D03*
%TD*%
D14*
%TO.C,D16*%
X250000000Y-115800000D03*
D15*
X250000000Y-108180000D03*
%TD*%
D17*
%TO.C,D37*%
X244025000Y-97650000D03*
X244025000Y-96150000D03*
X238575000Y-96150000D03*
X238575000Y-97650000D03*
%TD*%
%TO.C,D38*%
X263225000Y-97650000D03*
X263225000Y-96150000D03*
X257775000Y-96150000D03*
X257775000Y-97650000D03*
%TD*%
D14*
%TO.C,D67*%
X129700000Y-85010000D03*
D15*
X129700000Y-77390000D03*
%TD*%
D17*
%TO.C,D30*%
X225025000Y-72450000D03*
X225025000Y-70950000D03*
X219575000Y-70950000D03*
X219575000Y-72450000D03*
%TD*%
D16*
%TO.C,C29*%
X62750000Y-100900000D03*
X64650000Y-100900000D03*
%TD*%
D17*
%TO.C,D35*%
X205950000Y-78600000D03*
X205950000Y-77100000D03*
X200500000Y-77100000D03*
X200500000Y-78600000D03*
%TD*%
%TO.C,D47*%
X123425000Y-48150000D03*
X123425000Y-46650000D03*
X117975000Y-46650000D03*
X117975000Y-48150000D03*
%TD*%
%TO.C,D48*%
X66525000Y-78850000D03*
X66525000Y-77350000D03*
X61075000Y-77350000D03*
X61075000Y-78850000D03*
%TD*%
D16*
%TO.C,C14*%
X164350000Y-78200000D03*
X166250000Y-78200000D03*
%TD*%
D14*
%TO.C,D55*%
X110400000Y-40110000D03*
D15*
X110400000Y-32490000D03*
%TD*%
D17*
%TO.C,D70*%
X123400000Y-67300000D03*
X123400000Y-65800000D03*
X117950000Y-65800000D03*
X117950000Y-67300000D03*
%TD*%
D16*
%TO.C,C32*%
X100700000Y-62700000D03*
X102600000Y-62700000D03*
%TD*%
D14*
%TO.C,D20*%
X269200000Y-116710000D03*
D15*
X269200000Y-109090000D03*
%TD*%
D16*
%TO.C,C4*%
X259400000Y-120100000D03*
X261300000Y-120100000D03*
%TD*%
%TO.C,C5*%
X240550000Y-120200000D03*
X242450000Y-120200000D03*
%TD*%
D14*
%TO.C,D72*%
X72400000Y-59110000D03*
D15*
X72400000Y-51490000D03*
%TD*%
D22*
%TO.C,D5*%
X193200000Y-39590000D03*
D15*
X193200000Y-47210000D03*
%TD*%
D16*
%TO.C,C21*%
X138850000Y-97500000D03*
X140750000Y-97500000D03*
%TD*%
D17*
%TO.C,D62*%
X85225000Y-53350000D03*
X85225000Y-51850000D03*
X79775000Y-51850000D03*
X79775000Y-53350000D03*
%TD*%
D18*
%TO.C,U2*%
X147300000Y-43000000D03*
D19*
X148135000Y-43000000D03*
D18*
X147300000Y-45540000D03*
D19*
X148135000Y-45540000D03*
D18*
X147300000Y-48080000D03*
D19*
X148135000Y-48080000D03*
D18*
X147300000Y-50620000D03*
D19*
X148135000Y-50620000D03*
D18*
X147300000Y-53160000D03*
D19*
X148135000Y-53160000D03*
D18*
X147300000Y-55700000D03*
D19*
X148135000Y-55700000D03*
D18*
X147300000Y-58240000D03*
D19*
X148135000Y-58240000D03*
D20*
X131225000Y-58240000D03*
D18*
X132060000Y-58240000D03*
D20*
X131225000Y-55700000D03*
D18*
X132060000Y-55700000D03*
D20*
X131225000Y-53160000D03*
D18*
X132060000Y-53160000D03*
D20*
X131225000Y-50620000D03*
D18*
X132060000Y-50620000D03*
D20*
X131225000Y-48080000D03*
D18*
X132060000Y-48080000D03*
D20*
X131225000Y-45540000D03*
D18*
X132060000Y-45540000D03*
D20*
X131225000Y-43000000D03*
D18*
X132060000Y-43000000D03*
%TD*%
D17*
%TO.C,D78*%
X47250000Y-97700000D03*
X47250000Y-96200000D03*
X41800000Y-96200000D03*
X41800000Y-97700000D03*
%TD*%
D14*
%TO.C,D3*%
X250200000Y-77710000D03*
D15*
X250200000Y-70090000D03*
%TD*%
D17*
%TO.C,D31*%
X244225000Y-78550000D03*
X244225000Y-77050000D03*
X238775000Y-77050000D03*
X238775000Y-78550000D03*
%TD*%
D24*
%TO.C,D44*%
X116580000Y-33900000D03*
D15*
X124200000Y-33900000D03*
%TD*%
M02*
