%TF.GenerationSoftware,KiCad,Pcbnew,10.0.4*%
%TF.CreationDate,2026-07-12T00:26:29+05:30*%
%TF.ProjectId,AMUS,414d5553-2e6b-4696-9361-645f70636258,rev?*%
%TF.SameCoordinates,Original*%
%TF.FileFunction,Copper,L2,Bot*%
%TF.FilePolarity,Positive*%
%FSLAX46Y46*%
G04 Gerber Fmt 4.6, Leading zero omitted, Abs format (unit mm)*
G04 Created by KiCad (PCBNEW 10.0.4) date 2026-07-12 00:26:29*
%MOMM*%
%LPD*%
G01*
G04 APERTURE LIST*
G04 Aperture macros list*
%AMRoundRect*
0 Rectangle with rounded corners*
0 $1 Rounding radius*
0 $2 $3 $4 $5 $6 $7 $8 $9 X,Y pos of 4 corners*
0 Add a 4 corners polygon primitive as box body*
4,1,4,$2,$3,$4,$5,$6,$7,$8,$9,$2,$3,0*
0 Add four circle primitives for the rounded corners*
1,1,$1+$1,$2,$3*
1,1,$1+$1,$4,$5*
1,1,$1+$1,$6,$7*
1,1,$1+$1,$8,$9*
0 Add four rect primitives between the rounded corners*
20,1,$1+$1,$2,$3,$4,$5,0*
20,1,$1+$1,$4,$5,$6,$7,0*
20,1,$1+$1,$6,$7,$8,$9,0*
20,1,$1+$1,$8,$9,$2,$3,0*%
G04 Aperture macros list end*
%TA.AperFunction,ComponentPad*%
%ADD10C,2.200000*%
%TD*%
%TA.AperFunction,ComponentPad*%
%ADD11RoundRect,0.250000X0.550000X-0.550000X0.550000X0.550000X-0.550000X0.550000X-0.550000X-0.550000X0*%
%TD*%
%TA.AperFunction,ComponentPad*%
%ADD12C,1.600000*%
%TD*%
%TA.AperFunction,SMDPad,CuDef*%
%ADD13RoundRect,0.250000X-0.250000X-0.475000X0.250000X-0.475000X0.250000X0.475000X-0.250000X0.475000X0*%
%TD*%
%TA.AperFunction,SMDPad,CuDef*%
%ADD14RoundRect,0.205000X0.470000X0.205000X-0.470000X0.205000X-0.470000X-0.205000X0.470000X-0.205000X0*%
%TD*%
%TA.AperFunction,ComponentPad*%
%ADD15C,1.524000*%
%TD*%
%TA.AperFunction,SMDPad,CuDef*%
%ADD16RoundRect,0.152400X-1.063600X-0.609600X1.063600X-0.609600X1.063600X0.609600X-1.063600X0.609600X0*%
%TD*%
%TA.AperFunction,SMDPad,CuDef*%
%ADD17RoundRect,0.152400X1.063600X0.609600X-1.063600X0.609600X-1.063600X-0.609600X1.063600X-0.609600X0*%
%TD*%
%TA.AperFunction,SMDPad,CuDef*%
%ADD18RoundRect,0.250000X-0.475000X0.250000X-0.475000X-0.250000X0.475000X-0.250000X0.475000X0.250000X0*%
%TD*%
%TA.AperFunction,ComponentPad*%
%ADD19RoundRect,0.250000X-0.550000X0.550000X-0.550000X-0.550000X0.550000X-0.550000X0.550000X0.550000X0*%
%TD*%
%TA.AperFunction,ComponentPad*%
%ADD20RoundRect,0.250000X0.550000X0.550000X-0.550000X0.550000X-0.550000X-0.550000X0.550000X-0.550000X0*%
%TD*%
%TA.AperFunction,ComponentPad*%
%ADD21RoundRect,0.250000X-0.550000X-0.550000X0.550000X-0.550000X0.550000X0.550000X-0.550000X0.550000X0*%
%TD*%
%TA.AperFunction,ViaPad*%
%ADD22C,0.600000*%
%TD*%
%TA.AperFunction,Conductor*%
%ADD23C,0.200000*%
%TD*%
%TA.AperFunction,Conductor*%
%ADD24C,0.400000*%
%TD*%
%TA.AperFunction,Conductor*%
%ADD25C,0.500000*%
%TD*%
G04 APERTURE END LIST*
D10*
%TO.P,SW14,1,1_1*%
%TO.N,/LEft Sheet/COL4*%
X205740000Y-49530000D03*
%TO.P,SW14,2,2_2*%
%TO.N,Net-(D14-A)*%
X199390000Y-52070000D03*
%TD*%
%TO.P,SW13,1,1_1*%
%TO.N,/LEft Sheet/COL3*%
X224790000Y-43180000D03*
%TO.P,SW13,2,2_2*%
%TO.N,Net-(D13-A)*%
X218440000Y-45720000D03*
%TD*%
%TO.P,SW12,1,1_1*%
%TO.N,/LEft Sheet/COL2*%
X262890000Y-87630000D03*
%TO.P,SW12,2,2_2*%
%TO.N,Net-(D12-A)*%
X256540000Y-90170000D03*
%TD*%
%TO.P,SW38,1,1_1*%
%TO.N,/Right Sheet/COL2*%
X85090000Y-62230000D03*
%TO.P,SW38,2,2_2*%
%TO.N,Net-(D73-A)*%
X78740000Y-64770000D03*
%TD*%
%TO.P,SW9,1,1_1*%
%TO.N,/LEft Sheet/COL4*%
X205740000Y-30325847D03*
%TO.P,SW9,2,2_2*%
%TO.N,Net-(D9-A)*%
X199390000Y-32865847D03*
%TD*%
%TO.P,SW31,1,1_1*%
%TO.N,/Right Sheet/COL5*%
X142240000Y-83820000D03*
%TO.P,SW31,2,2_2*%
%TO.N,Net-(D60-A)*%
X135890000Y-86360000D03*
%TD*%
%TO.P,SW20,1,1_1*%
%TO.N,/LEft Sheet/COL1*%
X262890000Y-106680000D03*
%TO.P,SW20,2,2_2*%
%TO.N,Net-(D20-A)*%
X256540000Y-109220000D03*
%TD*%
%TO.P,SW10,1,1_1*%
%TO.N,/LEft Sheet/COL5*%
X186690000Y-57150000D03*
%TO.P,SW10,2,2_2*%
%TO.N,Net-(D10-A)*%
X180340000Y-59690000D03*
%TD*%
%TO.P,SW5,1,1_1*%
%TO.N,/LEft Sheet/COL5*%
X186690000Y-38100000D03*
%TO.P,SW5,2,2_2*%
%TO.N,Net-(D5-A)*%
X180340000Y-40640000D03*
%TD*%
%TO.P,SW16,1,1_1*%
%TO.N,/LEft Sheet/COL5*%
X243840000Y-106680000D03*
%TO.P,SW16,2,2_2*%
%TO.N,Net-(D16-A)*%
X237490000Y-109220000D03*
%TD*%
%TO.P,SW35,1,1_1*%
%TO.N,/Right Sheet/COL3*%
X123190000Y-76200000D03*
%TO.P,SW35,2,2_2*%
%TO.N,Net-(D67-A)*%
X116840000Y-78740000D03*
%TD*%
%TO.P,SW37,1,1_1*%
%TO.N,/Right Sheet/COL1*%
X66040000Y-49530000D03*
%TO.P,SW37,2,2_2*%
%TO.N,Net-(D72-A)*%
X59690000Y-52070000D03*
%TD*%
%TO.P,SW25,1,1_1*%
%TO.N,/Right Sheet/COL3*%
X123190000Y-38100000D03*
%TO.P,SW25,2,2_2*%
%TO.N,Net-(D51-A)*%
X116840000Y-40640000D03*
%TD*%
%TO.P,SW34,1,1_1*%
%TO.N,/Right Sheet/COL1*%
X104140000Y-49530000D03*
%TO.P,SW34,2,2_2*%
%TO.N,Net-(D66-A)*%
X97790000Y-52070000D03*
%TD*%
%TO.P,SW8,1,1_1*%
%TO.N,/LEft Sheet/COL3*%
X243840000Y-87630000D03*
%TO.P,SW8,2,2_2*%
%TO.N,Net-(D8-A)*%
X237490000Y-90170000D03*
%TD*%
%TO.P,SW24,1,1_1*%
%TO.N,/Right Sheet/COL2*%
X85090000Y-81280000D03*
%TO.P,SW24,2,2_2*%
%TO.N,Net-(D50-A)*%
X78740000Y-83820000D03*
%TD*%
%TO.P,SW22,1,1_1*%
%TO.N,/Right Sheet/COL2*%
X46990000Y-49530000D03*
%TO.P,SW22,2,2_2*%
%TO.N,Net-(D45-A)*%
X40640000Y-52070000D03*
%TD*%
%TO.P,SW17,1,1_1*%
%TO.N,/LEft Sheet/COL3*%
X243840000Y-49530000D03*
%TO.P,SW17,2,2_2*%
%TO.N,Net-(D17-A)*%
X237490000Y-52070000D03*
%TD*%
%TO.P,SW19,1,1_1*%
%TO.N,/LEft Sheet/COL2*%
X205740000Y-68580000D03*
%TO.P,SW19,2,2_2*%
%TO.N,Net-(D19-A)*%
X199390000Y-71120000D03*
%TD*%
%TO.P,SW21,1,1_1*%
%TO.N,/Right Sheet/COL1*%
X142240000Y-45720000D03*
%TO.P,SW21,2,2_2*%
%TO.N,Net-(D44-A)*%
X135890000Y-48260000D03*
%TD*%
%TO.P,SW6,1,1_1*%
%TO.N,/LEft Sheet/COL1*%
X167640000Y-64770000D03*
%TO.P,SW6,2,2_2*%
%TO.N,Net-(D6-A)*%
X161290000Y-67310000D03*
%TD*%
%TO.P,SW36,1,1_1*%
%TO.N,/Right Sheet/COL1*%
X66040000Y-106680000D03*
%TO.P,SW36,2,2_2*%
%TO.N,Net-(D68-A)*%
X59690000Y-109220000D03*
%TD*%
%TO.P,SW32,1,1_1*%
%TO.N,/Right Sheet/COL5*%
X46990000Y-87630000D03*
%TO.P,SW32,2,2_2*%
%TO.N,Net-(D61-A)*%
X40640000Y-90170000D03*
%TD*%
%TO.P,SW23,1,1_1*%
%TO.N,/Right Sheet/COL3*%
X66040000Y-68580000D03*
%TO.P,SW23,2,2_2*%
%TO.N,Net-(D46-A)*%
X59690000Y-71120000D03*
%TD*%
%TO.P,SW40,1,1_1*%
%TO.N,/Right Sheet/COL2*%
X46990000Y-106680000D03*
%TO.P,SW40,2,2_2*%
%TO.N,Net-(D75-A)*%
X40640000Y-109220000D03*
%TD*%
%TO.P,SW28,1,1_1*%
%TO.N,/Right Sheet/COL4*%
X66040000Y-87630000D03*
%TO.P,SW28,2,2_2*%
%TO.N,Net-(D54-A)*%
X59690000Y-90170000D03*
%TD*%
%TO.P,SW26,1,1_1*%
%TO.N,/Right Sheet/COL4*%
X142240000Y-64770000D03*
%TO.P,SW26,2,2_2*%
%TO.N,Net-(D52-A)*%
X135890000Y-67310000D03*
%TD*%
%TO.P,SW3,1,1_1*%
%TO.N,/LEft Sheet/COL3*%
X243840000Y-68580000D03*
%TO.P,SW3,2,2_2*%
%TO.N,Net-(D3-A)*%
X237490000Y-71120000D03*
%TD*%
%TO.P,SW1,1,1_1*%
%TO.N,/LEft Sheet/COL1*%
X167640000Y-45720000D03*
%TO.P,SW1,2,2_2*%
%TO.N,Net-(D1-A)*%
X161290000Y-48260000D03*
%TD*%
%TO.P,SW4,1,1_1*%
%TO.N,/LEft Sheet/COL4*%
X224790000Y-81280000D03*
%TO.P,SW4,2,2_2*%
%TO.N,Net-(D4-A)*%
X218440000Y-83820000D03*
%TD*%
%TO.P,SW18,1,1_1*%
%TO.N,/LEft Sheet/COL4*%
X224790000Y-62230000D03*
%TO.P,SW18,2,2_2*%
%TO.N,Net-(D18-A)*%
X218440000Y-64770000D03*
%TD*%
%TO.P,SW29,1,1_1*%
%TO.N,/Right Sheet/COL5*%
X104140000Y-30480000D03*
%TO.P,SW29,2,2_2*%
%TO.N,Net-(D55-A)*%
X97790000Y-33020000D03*
%TD*%
%TO.P,SW33,1,1_1*%
%TO.N,/Right Sheet/COL5*%
X85090000Y-43180000D03*
%TO.P,SW33,2,2_2*%
%TO.N,Net-(D65-A)*%
X78740000Y-45720000D03*
%TD*%
%TO.P,SW30,1,1_1*%
%TO.N,/Right Sheet/COL4*%
X123190000Y-57150000D03*
%TO.P,SW30,2,2_2*%
%TO.N,Net-(D59-A)*%
X116840000Y-59690000D03*
%TD*%
%TO.P,SW2,1,1_1*%
%TO.N,/LEft Sheet/COL2*%
X262890000Y-49530000D03*
%TO.P,SW2,2,2_2*%
%TO.N,Net-(D2-A)*%
X256540000Y-52070000D03*
%TD*%
%TO.P,SW7,1,1_1*%
%TO.N,/LEft Sheet/COL2*%
X262890000Y-68580000D03*
%TO.P,SW7,2,2_2*%
%TO.N,Net-(D7-A)*%
X256540000Y-71120000D03*
%TD*%
%TO.P,SW11,1,1_1*%
%TO.N,/LEft Sheet/COL1*%
X167640000Y-83820000D03*
%TO.P,SW11,2,2_2*%
%TO.N,Net-(D11-A)*%
X161290000Y-86360000D03*
%TD*%
%TO.P,SW27,1,1_1*%
%TO.N,/Right Sheet/COL3*%
X46990000Y-68580000D03*
%TO.P,SW27,2,2_2*%
%TO.N,Net-(D53-A)*%
X40640000Y-71120000D03*
%TD*%
%TO.P,SW39,1,1_1*%
%TO.N,/Right Sheet/COL4*%
X104140000Y-68580000D03*
%TO.P,SW39,2,2_2*%
%TO.N,Net-(D74-A)*%
X97790000Y-71120000D03*
%TD*%
%TO.P,SW15,1,1_1*%
%TO.N,/LEft Sheet/COL5*%
X186690000Y-76200000D03*
%TO.P,SW15,2,2_2*%
%TO.N,Net-(D15-A)*%
X180340000Y-78740000D03*
%TD*%
D11*
%TO.P,D75,1,K_1*%
%TO.N,/Right Sheet/ROW4*%
X53500000Y-116120000D03*
D12*
%TO.P,D75,2,A_2*%
%TO.N,Net-(D75-A)*%
X53500000Y-108500000D03*
%TD*%
D11*
%TO.P,D61,1,K_1*%
%TO.N,/Right Sheet/ROW4*%
X53400000Y-96820000D03*
D12*
%TO.P,D61,2,A_2*%
%TO.N,Net-(D61-A)*%
X53400000Y-89200000D03*
%TD*%
D11*
%TO.P,D17,1,K_1*%
%TO.N,/LEft Sheet/ROW4*%
X250500000Y-59010000D03*
D12*
%TO.P,D17,2,A_2*%
%TO.N,Net-(D17-A)*%
X250500000Y-51390000D03*
%TD*%
D13*
%TO.P,C7,1*%
%TO.N,+5V*%
X221350000Y-56600000D03*
%TO.P,C7,2*%
%TO.N,GND*%
X223250000Y-56600000D03*
%TD*%
D11*
%TO.P,D45,1,K_1*%
%TO.N,/Right Sheet/ROW2*%
X53200000Y-58720000D03*
D12*
%TO.P,D45,2,A_2*%
%TO.N,Net-(D45-A)*%
X53200000Y-51100000D03*
%TD*%
D14*
%TO.P,D79,1,VSS_1*%
%TO.N,GND*%
X47125000Y-116850000D03*
%TO.P,D79,2,DIN_2*%
%TO.N,Net-(D78-DOUT)*%
X47125000Y-115350000D03*
%TO.P,D79,3,VDD_3*%
%TO.N,+5V*%
X41675000Y-115350000D03*
%TO.P,D79,4,DOUT_4*%
%TO.N,Net-(D79-DOUT)*%
X41675000Y-116850000D03*
%TD*%
D13*
%TO.P,C40,1*%
%TO.N,+5V*%
X43650000Y-62700000D03*
%TO.P,C40,2*%
%TO.N,GND*%
X45550000Y-62700000D03*
%TD*%
%TO.P,C18,1*%
%TO.N,+5V*%
X164350000Y-97200000D03*
%TO.P,C18,2*%
%TO.N,GND*%
X166250000Y-97200000D03*
%TD*%
D11*
%TO.P,D18,1,K_1*%
%TO.N,/LEft Sheet/ROW4*%
X231000000Y-72510000D03*
D12*
%TO.P,D18,2,A_2*%
%TO.N,Net-(D18-A)*%
X231000000Y-64890000D03*
%TD*%
D13*
%TO.P,C20,1*%
%TO.N,+5V*%
X202200000Y-62800000D03*
%TO.P,C20,2*%
%TO.N,GND*%
X204100000Y-62800000D03*
%TD*%
D11*
%TO.P,D13,1,K_1*%
%TO.N,/LEft Sheet/ROW3*%
X231200000Y-53310000D03*
D12*
%TO.P,D13,2,A_2*%
%TO.N,Net-(D13-A)*%
X231200000Y-45690000D03*
%TD*%
D11*
%TO.P,D73,1,K_1*%
%TO.N,/Right Sheet/ROW3*%
X91600000Y-71810000D03*
D12*
%TO.P,D73,2,A_2*%
%TO.N,Net-(D73-A)*%
X91600000Y-64190000D03*
%TD*%
D11*
%TO.P,D9,1,K_1*%
%TO.N,/LEft Sheet/ROW2*%
X211900000Y-40310000D03*
D12*
%TO.P,D9,2,A_2*%
%TO.N,Net-(D9-A)*%
X211900000Y-32690000D03*
%TD*%
D13*
%TO.P,C13,1*%
%TO.N,+5V*%
X164150000Y-62300000D03*
%TO.P,C13,2*%
%TO.N,GND*%
X166050000Y-62300000D03*
%TD*%
D14*
%TO.P,D39,1,VSS_1*%
%TO.N,GND*%
X244025000Y-116650000D03*
%TO.P,D39,2,DIN_2*%
%TO.N,Net-(D38-DOUT)*%
X244025000Y-115150000D03*
%TO.P,D39,3,VDD_3*%
%TO.N,+5V*%
X238575000Y-115150000D03*
%TO.P,D39,4,DOUT_4*%
%TO.N,Net-(D39-DOUT)*%
X238575000Y-116650000D03*
%TD*%
D11*
%TO.P,D59,1,K_1*%
%TO.N,/Right Sheet/ROW1*%
X129200000Y-70310000D03*
D12*
%TO.P,D59,2,A_2*%
%TO.N,Net-(D59-A)*%
X129200000Y-62690000D03*
%TD*%
D14*
%TO.P,D21,1,VSS_1*%
%TO.N,GND*%
X186925000Y-48050000D03*
%TO.P,D21,2,DIN_2*%
%TO.N,/LEft Sheet/DIN*%
X186925000Y-46550000D03*
%TO.P,D21,3,VDD_3*%
%TO.N,+5V*%
X181475000Y-46550000D03*
%TO.P,D21,4,DOUT_4*%
%TO.N,Net-(D21-DOUT)*%
X181475000Y-48050000D03*
%TD*%
D15*
%TO.P,U1,1,PA02_A0_D0_1*%
%TO.N,unconnected-(U1-PA02_A0_D0-Pad1)*%
X172800000Y-43060000D03*
D16*
X173635000Y-43060000D03*
D15*
%TO.P,U1,2,PA4_A1_D1_2*%
%TO.N,/LEft Sheet/DIN*%
X172800000Y-45600000D03*
D16*
X173635000Y-45600000D03*
D15*
%TO.P,U1,3,PA10_A2_D2_3*%
%TO.N,/LEft Sheet/ROW4*%
X172800000Y-48140000D03*
D16*
X173635000Y-48140000D03*
D15*
%TO.P,U1,4,PA11_A3_D3_4*%
%TO.N,/LEft Sheet/ROW3*%
X172800000Y-50680000D03*
D16*
X173635000Y-50680000D03*
D15*
%TO.P,U1,5,PA8_A4_D4_SDA_5*%
%TO.N,/LEft Sheet/ROW2*%
X172800000Y-53220000D03*
D16*
X173635000Y-53220000D03*
D15*
%TO.P,U1,6,PA9_A5_D5_SCL_6*%
%TO.N,/LEft Sheet/ROW1*%
X172800000Y-55760000D03*
D16*
X173635000Y-55760000D03*
D15*
%TO.P,U1,7,PB08_A6_D6_TX_7*%
%TO.N,/LEft Sheet/COL5*%
X172800000Y-58300000D03*
D16*
X173635000Y-58300000D03*
D17*
%TO.P,U1,8,PB09_A7_D7_RX_8*%
%TO.N,/LEft Sheet/COL4*%
X156725000Y-58300000D03*
D15*
X157560000Y-58300000D03*
D17*
%TO.P,U1,9,PA7_A8_D8_SCK_9*%
%TO.N,/LEft Sheet/COL3*%
X156725000Y-55760000D03*
D15*
X157560000Y-55760000D03*
D17*
%TO.P,U1,10,PA5_A9_D9_MISO_10*%
%TO.N,/LEft Sheet/COL2*%
X156725000Y-53220000D03*
D15*
X157560000Y-53220000D03*
D17*
%TO.P,U1,11,PA6_A10_D10_MOSI_11*%
%TO.N,/LEft Sheet/COL1*%
X156725000Y-50680000D03*
D15*
X157560000Y-50680000D03*
D17*
%TO.P,U1,12,3V3_12*%
%TO.N,unconnected-(U1-3V3-Pad12)*%
X156725000Y-48140000D03*
D15*
X157560000Y-48140000D03*
D17*
%TO.P,U1,13,GND_13*%
%TO.N,GND*%
X156725000Y-45600000D03*
D15*
X157560000Y-45600000D03*
D17*
%TO.P,U1,14,5V_14*%
%TO.N,+5V*%
X156725000Y-43060000D03*
D15*
X157560000Y-43060000D03*
%TD*%
D13*
%TO.P,C23,1*%
%TO.N,+5V*%
X119650000Y-70400000D03*
%TO.P,C23,2*%
%TO.N,GND*%
X121550000Y-70400000D03*
%TD*%
%TO.P,C15,1*%
%TO.N,+5V*%
X183250000Y-70500000D03*
%TO.P,C15,2*%
%TO.N,GND*%
X185150000Y-70500000D03*
%TD*%
D14*
%TO.P,D41,1,VSS_1*%
%TO.N,GND*%
X142525000Y-55750000D03*
%TO.P,D41,2,DIN_2*%
%TO.N,/Right Sheet/DIN*%
X142525000Y-54250000D03*
%TO.P,D41,3,VDD_3*%
%TO.N,+5V*%
X137075000Y-54250000D03*
%TO.P,D41,4,DOUT_4*%
%TO.N,Net-(D41-DOUT)*%
X137075000Y-55750000D03*
%TD*%
%TO.P,D42,1,VSS_1*%
%TO.N,GND*%
X47200000Y-78600000D03*
%TO.P,D42,2,DIN_2*%
%TO.N,/Right Sheet/D1*%
X47200000Y-77100000D03*
%TO.P,D42,3,VDD_3*%
%TO.N,+5V*%
X41750000Y-77100000D03*
%TO.P,D42,4,DOUT_4*%
%TO.N,Net-(D42-DOUT)*%
X41750000Y-78600000D03*
%TD*%
%TO.P,D64,1,VSS_1*%
%TO.N,GND*%
X85400000Y-91500000D03*
%TO.P,D64,2,DIN_2*%
%TO.N,Net-(D58-DOUT)*%
X85400000Y-90000000D03*
%TO.P,D64,3,VDD_3*%
%TO.N,+5V*%
X79950000Y-90000000D03*
%TO.P,D64,4,DOUT_4*%
%TO.N,Net-(D64-DOUT)*%
X79950000Y-91500000D03*
%TD*%
%TO.P,D56,1,VSS_1*%
%TO.N,GND*%
X104600000Y-40500000D03*
%TO.P,D56,2,DIN_2*%
%TO.N,Net-(D47-DOUT)*%
X104600000Y-39000000D03*
%TO.P,D56,3,VDD_3*%
%TO.N,+5V*%
X99150000Y-39000000D03*
%TO.P,D56,4,DOUT_4*%
%TO.N,Net-(D56-DOUT)*%
X99150000Y-40500000D03*
%TD*%
D13*
%TO.P,C19,1*%
%TO.N,+5V*%
X221250000Y-94500000D03*
%TO.P,C19,2*%
%TO.N,GND*%
X223150000Y-94500000D03*
%TD*%
D14*
%TO.P,D76,1,VSS_1*%
%TO.N,GND*%
X47300000Y-59500000D03*
%TO.P,D76,2,DIN_2*%
%TO.N,Net-(D69-DOUT)*%
X47300000Y-58000000D03*
%TO.P,D76,3,VDD_3*%
%TO.N,+5V*%
X41850000Y-58000000D03*
%TO.P,D76,4,DOUT_4*%
%TO.N,/Right Sheet/D1*%
X41850000Y-59500000D03*
%TD*%
%TO.P,D63,1,VSS_1*%
%TO.N,GND*%
X104325000Y-59650000D03*
%TO.P,D63,2,DIN_2*%
%TO.N,Net-(D57-DOUT)*%
X104325000Y-58150000D03*
%TO.P,D63,3,VDD_3*%
%TO.N,+5V*%
X98875000Y-58150000D03*
%TO.P,D63,4,DOUT_4*%
%TO.N,Net-(D63-DOUT)*%
X98875000Y-59650000D03*
%TD*%
%TO.P,D69,1,VSS_1*%
%TO.N,GND*%
X66300000Y-59500000D03*
%TO.P,D69,2,DIN_2*%
%TO.N,Net-(D62-DOUT)*%
X66300000Y-58000000D03*
%TO.P,D69,3,VDD_3*%
%TO.N,+5V*%
X60850000Y-58000000D03*
%TO.P,D69,4,DOUT_4*%
%TO.N,Net-(D69-DOUT)*%
X60850000Y-59500000D03*
%TD*%
%TO.P,D22,1,VSS_1*%
%TO.N,GND*%
X206025000Y-40250000D03*
%TO.P,D22,2,DIN_2*%
%TO.N,Net-(D21-DOUT)*%
X206025000Y-38750000D03*
%TO.P,D22,3,VDD_3*%
%TO.N,+5V*%
X200575000Y-38750000D03*
%TO.P,D22,4,DOUT_4*%
%TO.N,Net-(D22-DOUT)*%
X200575000Y-40250000D03*
%TD*%
D11*
%TO.P,D53,1,K_1*%
%TO.N,/Right Sheet/ROW1*%
X53400000Y-78210000D03*
D12*
%TO.P,D53,2,A_2*%
%TO.N,Net-(D53-A)*%
X53400000Y-70590000D03*
%TD*%
D13*
%TO.P,C34,1*%
%TO.N,+5V*%
X43500000Y-120100000D03*
%TO.P,C34,2*%
%TO.N,GND*%
X45400000Y-120100000D03*
%TD*%
D14*
%TO.P,D36,1,VSS_1*%
%TO.N,GND*%
X225025000Y-91150000D03*
%TO.P,D36,2,DIN_2*%
%TO.N,Net-(D35-DOUT)*%
X225025000Y-89650000D03*
%TO.P,D36,3,VDD_3*%
%TO.N,+5V*%
X219575000Y-89650000D03*
%TO.P,D36,4,DOUT_4*%
%TO.N,Net-(D36-DOUT)*%
X219575000Y-91150000D03*
%TD*%
%TO.P,D23,1,VSS_1*%
%TO.N,GND*%
X225025000Y-53150000D03*
%TO.P,D23,2,DIN_2*%
%TO.N,Net-(D22-DOUT)*%
X225025000Y-51650000D03*
%TO.P,D23,3,VDD_3*%
%TO.N,+5V*%
X219575000Y-51650000D03*
%TO.P,D23,4,DOUT_4*%
%TO.N,Net-(D23-DOUT)*%
X219575000Y-53150000D03*
%TD*%
D13*
%TO.P,C28,1*%
%TO.N,+5V*%
X81650000Y-94600000D03*
%TO.P,C28,2*%
%TO.N,GND*%
X83550000Y-94600000D03*
%TD*%
D14*
%TO.P,D43,1,VSS_1*%
%TO.N,GND*%
X142525000Y-93950000D03*
%TO.P,D43,2,DIN_2*%
%TO.N,/Right Sheet/D2*%
X142525000Y-92450000D03*
%TO.P,D43,3,VDD_3*%
%TO.N,+5V*%
X137075000Y-92450000D03*
%TO.P,D43,4,DOUT_4*%
%TO.N,Net-(D43-DOUT)*%
X137075000Y-93950000D03*
%TD*%
D13*
%TO.P,C6,1*%
%TO.N,+5V*%
X259600000Y-81900000D03*
%TO.P,C6,2*%
%TO.N,GND*%
X261500000Y-81900000D03*
%TD*%
D11*
%TO.P,D46,1,K_1*%
%TO.N,/Right Sheet/ROW3*%
X72200000Y-77920000D03*
D12*
%TO.P,D46,2,A_2*%
%TO.N,Net-(D46-A)*%
X72200000Y-70300000D03*
%TD*%
D14*
%TO.P,D77,1,VSS_1*%
%TO.N,GND*%
X142425000Y-74750000D03*
%TO.P,D77,2,DIN_2*%
%TO.N,Net-(D70-DOUT)*%
X142425000Y-73250000D03*
%TO.P,D77,3,VDD_3*%
%TO.N,+5V*%
X136975000Y-73250000D03*
%TO.P,D77,4,DOUT_4*%
%TO.N,/Right Sheet/D2*%
X136975000Y-74750000D03*
%TD*%
%TO.P,D29,1,VSS_1*%
%TO.N,GND*%
X205925000Y-59650000D03*
%TO.P,D29,2,DIN_2*%
%TO.N,Net-(D28-DOUT)*%
X205925000Y-58150000D03*
%TO.P,D29,3,VDD_3*%
%TO.N,+5V*%
X200475000Y-58150000D03*
%TO.P,D29,4,DOUT_4*%
%TO.N,Net-(D29-DOUT)*%
X200475000Y-59650000D03*
%TD*%
D13*
%TO.P,C31,1*%
%TO.N,+5V*%
X119750000Y-89500000D03*
%TO.P,C31,2*%
%TO.N,GND*%
X121650000Y-89500000D03*
%TD*%
%TO.P,C22,1*%
%TO.N,+5V*%
X138750000Y-62100000D03*
%TO.P,C22,2*%
%TO.N,GND*%
X140650000Y-62100000D03*
%TD*%
D11*
%TO.P,D66,1,K_1*%
%TO.N,/Right Sheet/ROW3*%
X110500000Y-59010000D03*
D12*
%TO.P,D66,2,A_2*%
%TO.N,Net-(D66-A)*%
X110500000Y-51390000D03*
%TD*%
D11*
%TO.P,D19,1,K_1*%
%TO.N,/LEft Sheet/ROW4*%
X212200000Y-77210000D03*
D12*
%TO.P,D19,2,A_2*%
%TO.N,Net-(D19-A)*%
X212200000Y-69590000D03*
%TD*%
D13*
%TO.P,C39,1*%
%TO.N,+5V*%
X43450000Y-100900000D03*
%TO.P,C39,2*%
%TO.N,GND*%
X45350000Y-100900000D03*
%TD*%
%TO.P,C36,1*%
%TO.N,+5V*%
X100850000Y-81900000D03*
%TO.P,C36,2*%
%TO.N,GND*%
X102750000Y-81900000D03*
%TD*%
D11*
%TO.P,D68,1,K_1*%
%TO.N,/Right Sheet/ROW4*%
X72500000Y-115910000D03*
D12*
%TO.P,D68,2,A_2*%
%TO.N,Net-(D68-A)*%
X72500000Y-108290000D03*
%TD*%
D11*
%TO.P,D14,1,K_1*%
%TO.N,/LEft Sheet/ROW3*%
X211900000Y-59510000D03*
D12*
%TO.P,D14,2,A_2*%
%TO.N,Net-(D14-A)*%
X211900000Y-51890000D03*
%TD*%
D13*
%TO.P,C17,1*%
%TO.N,+5V*%
X183250000Y-89500000D03*
%TO.P,C17,2*%
%TO.N,GND*%
X185150000Y-89500000D03*
%TD*%
D18*
%TO.P,C27,1*%
%TO.N,+5V*%
X114200000Y-46300000D03*
%TO.P,C27,2*%
%TO.N,GND*%
X114200000Y-48200000D03*
%TD*%
D11*
%TO.P,D4,1,K_1*%
%TO.N,/LEft Sheet/ROW1*%
X231100000Y-91410000D03*
D12*
%TO.P,D4,2,A_2*%
%TO.N,Net-(D4-A)*%
X231100000Y-83790000D03*
%TD*%
D14*
%TO.P,D34,1,VSS_1*%
%TO.N,GND*%
X186900000Y-86200000D03*
%TO.P,D34,2,DIN_2*%
%TO.N,Net-(D33-DOUT)*%
X186900000Y-84700000D03*
%TO.P,D34,3,VDD_3*%
%TO.N,+5V*%
X181450000Y-84700000D03*
%TO.P,D34,4,DOUT_4*%
%TO.N,Net-(D34-DOUT)*%
X181450000Y-86200000D03*
%TD*%
%TO.P,D28,1,VSS_1*%
%TO.N,GND*%
X186925000Y-67150000D03*
%TO.P,D28,2,DIN_2*%
%TO.N,Net-(D27-DOUT)*%
X186925000Y-65650000D03*
%TO.P,D28,3,VDD_3*%
%TO.N,+5V*%
X181475000Y-65650000D03*
%TO.P,D28,4,DOUT_4*%
%TO.N,Net-(D28-DOUT)*%
X181475000Y-67150000D03*
%TD*%
D11*
%TO.P,D50,1,K_1*%
%TO.N,/Right Sheet/ROW1*%
X91400000Y-91320000D03*
D12*
%TO.P,D50,2,A_2*%
%TO.N,Net-(D50-A)*%
X91400000Y-83700000D03*
%TD*%
D11*
%TO.P,D10,1,K_1*%
%TO.N,/LEft Sheet/ROW2*%
X193100000Y-67410000D03*
D12*
%TO.P,D10,2,A_2*%
%TO.N,Net-(D10-A)*%
X193100000Y-59790000D03*
%TD*%
D19*
%TO.P,D11,1,K_1*%
%TO.N,/LEft Sheet/ROW3*%
X173800000Y-84990000D03*
D12*
%TO.P,D11,2,A_2*%
%TO.N,Net-(D11-A)*%
X173800000Y-92610000D03*
%TD*%
D11*
%TO.P,D7,1,K_1*%
%TO.N,/LEft Sheet/ROW2*%
X269100000Y-77720000D03*
D12*
%TO.P,D7,2,A_2*%
%TO.N,Net-(D7-A)*%
X269100000Y-70100000D03*
%TD*%
D13*
%TO.P,C8,1*%
%TO.N,+5V*%
X221350000Y-75600000D03*
%TO.P,C8,2*%
%TO.N,GND*%
X223250000Y-75600000D03*
%TD*%
D14*
%TO.P,D80,1,VSS_1*%
%TO.N,GND*%
X66425000Y-116650000D03*
%TO.P,D80,2,DIN_2*%
%TO.N,Net-(D79-DOUT)*%
X66425000Y-115150000D03*
%TO.P,D80,3,VDD_3*%
%TO.N,+5V*%
X60975000Y-115150000D03*
%TO.P,D80,4,DOUT_4*%
%TO.N,unconnected-(D80-DOUT-Pad4)*%
X60975000Y-116650000D03*
%TD*%
D13*
%TO.P,C37,1*%
%TO.N,+5V*%
X100950000Y-43700000D03*
%TO.P,C37,2*%
%TO.N,GND*%
X102850000Y-43700000D03*
%TD*%
D11*
%TO.P,D52,1,K_1*%
%TO.N,/Right Sheet/ROW3*%
X148400000Y-74710000D03*
D12*
%TO.P,D52,2,A_2*%
%TO.N,Net-(D52-A)*%
X148400000Y-67090000D03*
%TD*%
D13*
%TO.P,C10,1*%
%TO.N,+5V*%
X240450000Y-100900000D03*
%TO.P,C10,2*%
%TO.N,GND*%
X242350000Y-100900000D03*
%TD*%
%TO.P,C26,1*%
%TO.N,+5V*%
X138850000Y-78100000D03*
%TO.P,C26,2*%
%TO.N,GND*%
X140750000Y-78100000D03*
%TD*%
D11*
%TO.P,D15,1,K_1*%
%TO.N,/LEft Sheet/ROW3*%
X193100000Y-85810000D03*
D12*
%TO.P,D15,2,A_2*%
%TO.N,Net-(D15-A)*%
X193100000Y-78190000D03*
%TD*%
D14*
%TO.P,D32,1,VSS_1*%
%TO.N,GND*%
X263325000Y-78750000D03*
%TO.P,D32,2,DIN_2*%
%TO.N,Net-(D31-DOUT)*%
X263325000Y-77250000D03*
%TO.P,D32,3,VDD_3*%
%TO.N,+5V*%
X257875000Y-77250000D03*
%TO.P,D32,4,DOUT_4*%
%TO.N,/LEft Sheet/D2*%
X257875000Y-78750000D03*
%TD*%
D13*
%TO.P,C3,1*%
%TO.N,+5V*%
X259550000Y-100800000D03*
%TO.P,C3,2*%
%TO.N,GND*%
X261450000Y-100800000D03*
%TD*%
D11*
%TO.P,D74,1,K_1*%
%TO.N,/Right Sheet/ROW4*%
X110500000Y-78220000D03*
D12*
%TO.P,D74,2,A_2*%
%TO.N,Net-(D74-A)*%
X110500000Y-70600000D03*
%TD*%
D13*
%TO.P,C16,1*%
%TO.N,+5V*%
X202300000Y-82000000D03*
%TO.P,C16,2*%
%TO.N,GND*%
X204200000Y-82000000D03*
%TD*%
%TO.P,C12,1*%
%TO.N,+5V*%
X183400000Y-51300000D03*
%TO.P,C12,2*%
%TO.N,GND*%
X185300000Y-51300000D03*
%TD*%
D14*
%TO.P,D26,1,VSS_1*%
%TO.N,GND*%
X167825000Y-55650000D03*
%TO.P,D26,2,DIN_2*%
%TO.N,Net-(D25-DOUT)*%
X167825000Y-54150000D03*
%TO.P,D26,3,VDD_3*%
%TO.N,+5V*%
X162375000Y-54150000D03*
%TO.P,D26,4,DOUT_4*%
%TO.N,/LEft Sheet/D1*%
X162375000Y-55650000D03*
%TD*%
D13*
%TO.P,C24,1*%
%TO.N,+5V*%
X81600000Y-75500000D03*
%TO.P,C24,2*%
%TO.N,GND*%
X83500000Y-75500000D03*
%TD*%
D14*
%TO.P,D57,1,VSS_1*%
%TO.N,GND*%
X85400000Y-72300000D03*
%TO.P,D57,2,DIN_2*%
%TO.N,Net-(D48-DOUT)*%
X85400000Y-70800000D03*
%TO.P,D57,3,VDD_3*%
%TO.N,+5V*%
X79950000Y-70800000D03*
%TO.P,D57,4,DOUT_4*%
%TO.N,Net-(D57-DOUT)*%
X79950000Y-72300000D03*
%TD*%
D13*
%TO.P,C1,1*%
%TO.N,+5V*%
X259350000Y-62700000D03*
%TO.P,C1,2*%
%TO.N,GND*%
X261250000Y-62700000D03*
%TD*%
D11*
%TO.P,D12,1,K_1*%
%TO.N,/LEft Sheet/ROW3*%
X269400000Y-97300000D03*
D12*
%TO.P,D12,2,A_2*%
%TO.N,Net-(D12-A)*%
X269400000Y-89680000D03*
%TD*%
D11*
%TO.P,D54,1,K_1*%
%TO.N,/Right Sheet/ROW2*%
X72300000Y-96910000D03*
D12*
%TO.P,D54,2,A_2*%
%TO.N,Net-(D54-A)*%
X72300000Y-89290000D03*
%TD*%
D14*
%TO.P,D25,1,VSS_1*%
%TO.N,GND*%
X263050000Y-59700000D03*
%TO.P,D25,2,DIN_2*%
%TO.N,Net-(D24-DOUT)*%
X263050000Y-58200000D03*
%TO.P,D25,3,VDD_3*%
%TO.N,+5V*%
X257600000Y-58200000D03*
%TO.P,D25,4,DOUT_4*%
%TO.N,Net-(D25-DOUT)*%
X257600000Y-59700000D03*
%TD*%
D11*
%TO.P,D65,1,K_1*%
%TO.N,/Right Sheet/ROW1*%
X91400000Y-52510000D03*
D12*
%TO.P,D65,2,A_2*%
%TO.N,Net-(D65-A)*%
X91400000Y-44890000D03*
%TD*%
D19*
%TO.P,D6,1,K_1*%
%TO.N,/LEft Sheet/ROW2*%
X174000000Y-65690000D03*
D12*
%TO.P,D6,2,A_2*%
%TO.N,Net-(D6-A)*%
X174000000Y-73310000D03*
%TD*%
D13*
%TO.P,C30,1*%
%TO.N,+5V*%
X62650000Y-62800000D03*
%TO.P,C30,2*%
%TO.N,GND*%
X64550000Y-62800000D03*
%TD*%
D20*
%TO.P,D51,1,K_1*%
%TO.N,/Right Sheet/ROW2*%
X124810000Y-51800000D03*
D12*
%TO.P,D51,2,A_2*%
%TO.N,Net-(D51-A)*%
X117190000Y-51800000D03*
%TD*%
D13*
%TO.P,C35,1*%
%TO.N,+5V*%
X43550000Y-81900000D03*
%TO.P,C35,2*%
%TO.N,GND*%
X45450000Y-81900000D03*
%TD*%
D14*
%TO.P,D40,1,VSS_1*%
%TO.N,GND*%
X263125000Y-116650000D03*
%TO.P,D40,2,DIN_2*%
%TO.N,Net-(D39-DOUT)*%
X263125000Y-115150000D03*
%TO.P,D40,3,VDD_3*%
%TO.N,+5V*%
X257675000Y-115150000D03*
%TO.P,D40,4,DOUT_4*%
%TO.N,unconnected-(D40-DOUT-Pad4)*%
X257675000Y-116650000D03*
%TD*%
D13*
%TO.P,C9,1*%
%TO.N,+5V*%
X240550000Y-81800000D03*
%TO.P,C9,2*%
%TO.N,GND*%
X242450000Y-81800000D03*
%TD*%
D14*
%TO.P,D58,1,VSS_1*%
%TO.N,GND*%
X104525000Y-78750000D03*
%TO.P,D58,2,DIN_2*%
%TO.N,Net-(D49-DOUT)*%
X104525000Y-77250000D03*
%TO.P,D58,3,VDD_3*%
%TO.N,+5V*%
X99075000Y-77250000D03*
%TO.P,D58,4,DOUT_4*%
%TO.N,Net-(D58-DOUT)*%
X99075000Y-78750000D03*
%TD*%
D11*
%TO.P,D2,1,K_1*%
%TO.N,/LEft Sheet/ROW1*%
X269600000Y-59210000D03*
D12*
%TO.P,D2,2,A_2*%
%TO.N,Net-(D2-A)*%
X269600000Y-51590000D03*
%TD*%
D11*
%TO.P,D60,1,K_1*%
%TO.N,/Right Sheet/ROW2*%
X148500000Y-93320000D03*
D12*
%TO.P,D60,2,A_2*%
%TO.N,Net-(D60-A)*%
X148500000Y-85700000D03*
%TD*%
D14*
%TO.P,D71,1,VSS_1*%
%TO.N,GND*%
X66425000Y-97750000D03*
%TO.P,D71,2,DIN_2*%
%TO.N,Net-(D64-DOUT)*%
X66425000Y-96250000D03*
%TO.P,D71,3,VDD_3*%
%TO.N,+5V*%
X60975000Y-96250000D03*
%TO.P,D71,4,DOUT_4*%
%TO.N,Net-(D71-DOUT)*%
X60975000Y-97750000D03*
%TD*%
%TO.P,D27,1,VSS_1*%
%TO.N,GND*%
X167925000Y-74750000D03*
%TO.P,D27,2,DIN_2*%
%TO.N,/LEft Sheet/D1*%
X167925000Y-73250000D03*
%TO.P,D27,3,VDD_3*%
%TO.N,+5V*%
X162475000Y-73250000D03*
%TO.P,D27,4,DOUT_4*%
%TO.N,Net-(D27-DOUT)*%
X162475000Y-74750000D03*
%TD*%
D13*
%TO.P,C25,1*%
%TO.N,+5V*%
X81400000Y-56500000D03*
%TO.P,C25,2*%
%TO.N,GND*%
X83300000Y-56500000D03*
%TD*%
D14*
%TO.P,D33,1,VSS_1*%
%TO.N,GND*%
X167925000Y-93750000D03*
%TO.P,D33,2,DIN_2*%
%TO.N,/LEft Sheet/D2*%
X167925000Y-92250000D03*
%TO.P,D33,3,VDD_3*%
%TO.N,+5V*%
X162475000Y-92250000D03*
%TO.P,D33,4,DOUT_4*%
%TO.N,Net-(D33-DOUT)*%
X162475000Y-93750000D03*
%TD*%
%TO.P,D24,1,VSS_1*%
%TO.N,GND*%
X244025000Y-59550000D03*
%TO.P,D24,2,DIN_2*%
%TO.N,Net-(D23-DOUT)*%
X244025000Y-58050000D03*
%TO.P,D24,3,VDD_3*%
%TO.N,+5V*%
X238575000Y-58050000D03*
%TO.P,D24,4,DOUT_4*%
%TO.N,Net-(D24-DOUT)*%
X238575000Y-59550000D03*
%TD*%
D13*
%TO.P,C38,1*%
%TO.N,+5V*%
X62900000Y-81900000D03*
%TO.P,C38,2*%
%TO.N,GND*%
X64800000Y-81900000D03*
%TD*%
%TO.P,C11,1*%
%TO.N,+5V*%
X202450000Y-43600000D03*
%TO.P,C11,2*%
%TO.N,GND*%
X204350000Y-43600000D03*
%TD*%
D14*
%TO.P,D49,1,VSS_1*%
%TO.N,GND*%
X123600000Y-86200000D03*
%TO.P,D49,2,DIN_2*%
%TO.N,Net-(D43-DOUT)*%
X123600000Y-84700000D03*
%TO.P,D49,3,VDD_3*%
%TO.N,+5V*%
X118150000Y-84700000D03*
%TO.P,D49,4,DOUT_4*%
%TO.N,Net-(D49-DOUT)*%
X118150000Y-86200000D03*
%TD*%
D20*
%TO.P,D1,1,K_1*%
%TO.N,/LEft Sheet/ROW1*%
X188000000Y-34400000D03*
D12*
%TO.P,D1,2,A_2*%
%TO.N,Net-(D1-A)*%
X180380000Y-34400000D03*
%TD*%
D13*
%TO.P,C2,1*%
%TO.N,+5V*%
X240150000Y-62800000D03*
%TO.P,C2,2*%
%TO.N,GND*%
X242050000Y-62800000D03*
%TD*%
%TO.P,C33,1*%
%TO.N,+5V*%
X62750000Y-119900000D03*
%TO.P,C33,2*%
%TO.N,GND*%
X64650000Y-119900000D03*
%TD*%
D11*
%TO.P,D8,1,K_1*%
%TO.N,/LEft Sheet/ROW2*%
X250000000Y-96710000D03*
D12*
%TO.P,D8,2,A_2*%
%TO.N,Net-(D8-A)*%
X250000000Y-89090000D03*
%TD*%
D11*
%TO.P,D16,1,K_1*%
%TO.N,/LEft Sheet/ROW4*%
X250000000Y-115800000D03*
D12*
%TO.P,D16,2,A_2*%
%TO.N,Net-(D16-A)*%
X250000000Y-108180000D03*
%TD*%
D14*
%TO.P,D37,1,VSS_1*%
%TO.N,GND*%
X244025000Y-97650000D03*
%TO.P,D37,2,DIN_2*%
%TO.N,Net-(D36-DOUT)*%
X244025000Y-96150000D03*
%TO.P,D37,3,VDD_3*%
%TO.N,+5V*%
X238575000Y-96150000D03*
%TO.P,D37,4,DOUT_4*%
%TO.N,Net-(D37-DOUT)*%
X238575000Y-97650000D03*
%TD*%
%TO.P,D38,1,VSS_1*%
%TO.N,GND*%
X263225000Y-97650000D03*
%TO.P,D38,2,DIN_2*%
%TO.N,Net-(D37-DOUT)*%
X263225000Y-96150000D03*
%TO.P,D38,3,VDD_3*%
%TO.N,+5V*%
X257775000Y-96150000D03*
%TO.P,D38,4,DOUT_4*%
%TO.N,Net-(D38-DOUT)*%
X257775000Y-97650000D03*
%TD*%
D11*
%TO.P,D67,1,K_1*%
%TO.N,/Right Sheet/ROW4*%
X129700000Y-85010000D03*
D12*
%TO.P,D67,2,A_2*%
%TO.N,Net-(D67-A)*%
X129700000Y-77390000D03*
%TD*%
D14*
%TO.P,D30,1,VSS_1*%
%TO.N,GND*%
X225025000Y-72450000D03*
%TO.P,D30,2,DIN_2*%
%TO.N,Net-(D29-DOUT)*%
X225025000Y-70950000D03*
%TO.P,D30,3,VDD_3*%
%TO.N,+5V*%
X219575000Y-70950000D03*
%TO.P,D30,4,DOUT_4*%
%TO.N,Net-(D30-DOUT)*%
X219575000Y-72450000D03*
%TD*%
D13*
%TO.P,C29,1*%
%TO.N,+5V*%
X62750000Y-100900000D03*
%TO.P,C29,2*%
%TO.N,GND*%
X64650000Y-100900000D03*
%TD*%
D14*
%TO.P,D35,1,VSS_1*%
%TO.N,GND*%
X205950000Y-78600000D03*
%TO.P,D35,2,DIN_2*%
%TO.N,Net-(D34-DOUT)*%
X205950000Y-77100000D03*
%TO.P,D35,3,VDD_3*%
%TO.N,+5V*%
X200500000Y-77100000D03*
%TO.P,D35,4,DOUT_4*%
%TO.N,Net-(D35-DOUT)*%
X200500000Y-78600000D03*
%TD*%
%TO.P,D47,1,VSS_1*%
%TO.N,GND*%
X123425000Y-48150000D03*
%TO.P,D47,2,DIN_2*%
%TO.N,Net-(D41-DOUT)*%
X123425000Y-46650000D03*
%TO.P,D47,3,VDD_3*%
%TO.N,+5V*%
X117975000Y-46650000D03*
%TO.P,D47,4,DOUT_4*%
%TO.N,Net-(D47-DOUT)*%
X117975000Y-48150000D03*
%TD*%
%TO.P,D48,1,VSS_1*%
%TO.N,GND*%
X66525000Y-78850000D03*
%TO.P,D48,2,DIN_2*%
%TO.N,Net-(D42-DOUT)*%
X66525000Y-77350000D03*
%TO.P,D48,3,VDD_3*%
%TO.N,+5V*%
X61075000Y-77350000D03*
%TO.P,D48,4,DOUT_4*%
%TO.N,Net-(D48-DOUT)*%
X61075000Y-78850000D03*
%TD*%
D13*
%TO.P,C14,1*%
%TO.N,+5V*%
X164350000Y-78200000D03*
%TO.P,C14,2*%
%TO.N,GND*%
X166250000Y-78200000D03*
%TD*%
D11*
%TO.P,D55,1,K_1*%
%TO.N,/Right Sheet/ROW3*%
X110400000Y-40110000D03*
D12*
%TO.P,D55,2,A_2*%
%TO.N,Net-(D55-A)*%
X110400000Y-32490000D03*
%TD*%
D14*
%TO.P,D70,1,VSS_1*%
%TO.N,GND*%
X123400000Y-67300000D03*
%TO.P,D70,2,DIN_2*%
%TO.N,Net-(D63-DOUT)*%
X123400000Y-65800000D03*
%TO.P,D70,3,VDD_3*%
%TO.N,+5V*%
X117950000Y-65800000D03*
%TO.P,D70,4,DOUT_4*%
%TO.N,Net-(D70-DOUT)*%
X117950000Y-67300000D03*
%TD*%
D13*
%TO.P,C32,1*%
%TO.N,+5V*%
X100700000Y-62700000D03*
%TO.P,C32,2*%
%TO.N,GND*%
X102600000Y-62700000D03*
%TD*%
D11*
%TO.P,D20,1,K_1*%
%TO.N,/LEft Sheet/ROW4*%
X269200000Y-116710000D03*
D12*
%TO.P,D20,2,A_2*%
%TO.N,Net-(D20-A)*%
X269200000Y-109090000D03*
%TD*%
D13*
%TO.P,C4,1*%
%TO.N,+5V*%
X259400000Y-120100000D03*
%TO.P,C4,2*%
%TO.N,GND*%
X261300000Y-120100000D03*
%TD*%
%TO.P,C5,1*%
%TO.N,+5V*%
X240550000Y-120200000D03*
%TO.P,C5,2*%
%TO.N,GND*%
X242450000Y-120200000D03*
%TD*%
D11*
%TO.P,D72,1,K_1*%
%TO.N,/Right Sheet/ROW2*%
X72400000Y-59110000D03*
D12*
%TO.P,D72,2,A_2*%
%TO.N,Net-(D72-A)*%
X72400000Y-51490000D03*
%TD*%
D19*
%TO.P,D5,1,K_1*%
%TO.N,/LEft Sheet/ROW1*%
X193200000Y-39590000D03*
D12*
%TO.P,D5,2,A_2*%
%TO.N,Net-(D5-A)*%
X193200000Y-47210000D03*
%TD*%
D13*
%TO.P,C21,1*%
%TO.N,+5V*%
X138850000Y-97500000D03*
%TO.P,C21,2*%
%TO.N,GND*%
X140750000Y-97500000D03*
%TD*%
D14*
%TO.P,D62,1,VSS_1*%
%TO.N,GND*%
X85225000Y-53350000D03*
%TO.P,D62,2,DIN_2*%
%TO.N,Net-(D56-DOUT)*%
X85225000Y-51850000D03*
%TO.P,D62,3,VDD_3*%
%TO.N,+5V*%
X79775000Y-51850000D03*
%TO.P,D62,4,DOUT_4*%
%TO.N,Net-(D62-DOUT)*%
X79775000Y-53350000D03*
%TD*%
D15*
%TO.P,U2,1,PA02_A0_D0_1*%
%TO.N,unconnected-(U2-PA02_A0_D0-Pad1)*%
X147300000Y-43000000D03*
D16*
X148135000Y-43000000D03*
D15*
%TO.P,U2,2,PA4_A1_D1_2*%
%TO.N,/Right Sheet/DIN*%
X147300000Y-45540000D03*
D16*
X148135000Y-45540000D03*
D15*
%TO.P,U2,3,PA10_A2_D2_3*%
%TO.N,/Right Sheet/ROW4*%
X147300000Y-48080000D03*
D16*
X148135000Y-48080000D03*
D15*
%TO.P,U2,4,PA11_A3_D3_4*%
%TO.N,/Right Sheet/ROW3*%
X147300000Y-50620000D03*
D16*
X148135000Y-50620000D03*
D15*
%TO.P,U2,5,PA8_A4_D4_SDA_5*%
%TO.N,/Right Sheet/ROW2*%
X147300000Y-53160000D03*
D16*
X148135000Y-53160000D03*
D15*
%TO.P,U2,6,PA9_A5_D5_SCL_6*%
%TO.N,/Right Sheet/ROW1*%
X147300000Y-55700000D03*
D16*
X148135000Y-55700000D03*
D15*
%TO.P,U2,7,PB08_A6_D6_TX_7*%
%TO.N,/Right Sheet/COL5*%
X147300000Y-58240000D03*
D16*
X148135000Y-58240000D03*
D17*
%TO.P,U2,8,PB09_A7_D7_RX_8*%
%TO.N,/Right Sheet/COL4*%
X131225000Y-58240000D03*
D15*
X132060000Y-58240000D03*
D17*
%TO.P,U2,9,PA7_A8_D8_SCK_9*%
%TO.N,/Right Sheet/COL3*%
X131225000Y-55700000D03*
D15*
X132060000Y-55700000D03*
D17*
%TO.P,U2,10,PA5_A9_D9_MISO_10*%
%TO.N,/Right Sheet/COL2*%
X131225000Y-53160000D03*
D15*
X132060000Y-53160000D03*
D17*
%TO.P,U2,11,PA6_A10_D10_MOSI_11*%
%TO.N,/Right Sheet/COL1*%
X131225000Y-50620000D03*
D15*
X132060000Y-50620000D03*
D17*
%TO.P,U2,12,3V3_12*%
%TO.N,unconnected-(U2-3V3-Pad12)*%
X131225000Y-48080000D03*
D15*
X132060000Y-48080000D03*
D17*
%TO.P,U2,13,GND_13*%
%TO.N,GND*%
X131225000Y-45540000D03*
D15*
X132060000Y-45540000D03*
D17*
%TO.P,U2,14,5V_14*%
%TO.N,+5V*%
X131225000Y-43000000D03*
D15*
X132060000Y-43000000D03*
%TD*%
D14*
%TO.P,D78,1,VSS_1*%
%TO.N,GND*%
X47250000Y-97700000D03*
%TO.P,D78,2,DIN_2*%
%TO.N,Net-(D71-DOUT)*%
X47250000Y-96200000D03*
%TO.P,D78,3,VDD_3*%
%TO.N,+5V*%
X41800000Y-96200000D03*
%TO.P,D78,4,DOUT_4*%
%TO.N,Net-(D78-DOUT)*%
X41800000Y-97700000D03*
%TD*%
D11*
%TO.P,D3,1,K_1*%
%TO.N,/LEft Sheet/ROW1*%
X250200000Y-77710000D03*
D12*
%TO.P,D3,2,A_2*%
%TO.N,Net-(D3-A)*%
X250200000Y-70090000D03*
%TD*%
D14*
%TO.P,D31,1,VSS_1*%
%TO.N,GND*%
X244225000Y-78550000D03*
%TO.P,D31,2,DIN_2*%
%TO.N,Net-(D30-DOUT)*%
X244225000Y-77050000D03*
%TO.P,D31,3,VDD_3*%
%TO.N,+5V*%
X238775000Y-77050000D03*
%TO.P,D31,4,DOUT_4*%
%TO.N,Net-(D31-DOUT)*%
X238775000Y-78550000D03*
%TD*%
D21*
%TO.P,D44,1,K_1*%
%TO.N,/Right Sheet/ROW1*%
X116580000Y-33900000D03*
D12*
%TO.P,D44,2,A_2*%
%TO.N,Net-(D44-A)*%
X124200000Y-33900000D03*
%TD*%
D22*
%TO.N,Net-(D14-A)*%
X209000000Y-51800000D03*
%TO.N,/LEft Sheet/COL3*%
X208600000Y-33400000D03*
X212200000Y-35800000D03*
%TO.N,/LEft Sheet/COL2*%
X170800000Y-61400000D03*
X192200000Y-72600000D03*
X170200000Y-57600000D03*
X189200000Y-72500000D03*
%TO.N,/Right Sheet/COL2*%
X74000000Y-76300000D03*
X127594975Y-50305025D03*
%TO.N,/LEft Sheet/COL1*%
X194300000Y-73000000D03*
X193000000Y-75000000D03*
X170900000Y-56400000D03*
X164800000Y-45800000D03*
%TO.N,Net-(D5-A)*%
X189800000Y-47200000D03*
%TO.N,/Right Sheet/COL3*%
X133500000Y-57200000D03*
%TO.N,/Right Sheet/COL1*%
X110300000Y-53800000D03*
X60200000Y-102400000D03*
%TO.N,Net-(D51-A)*%
X116500000Y-49300000D03*
%TO.N,Net-(D66-A)*%
X108200000Y-51200000D03*
%TO.N,Net-(D6-A)*%
X170800000Y-73800000D03*
%TO.N,/Right Sheet/COL4*%
X67000000Y-83000000D03*
X136120828Y-58375736D03*
X129400000Y-58300000D03*
%TO.N,Net-(D54-A)*%
X69353196Y-84759046D03*
%TO.N,Net-(D52-A)*%
X145380000Y-66400000D03*
%TO.N,Net-(D1-A)*%
X174840001Y-39949949D03*
X176240000Y-36800000D03*
%TO.N,Net-(D4-A)*%
X225600000Y-84124264D03*
X221000000Y-83800000D03*
%TO.N,/Right Sheet/ROW4*%
X130544975Y-60455025D03*
%TO.N,+5V*%
X181600000Y-56450000D03*
X161800000Y-77000000D03*
X181200000Y-45400000D03*
X99000000Y-44000000D03*
X220200000Y-55400000D03*
X237200000Y-58200000D03*
X216600000Y-78800000D03*
X138000000Y-86600000D03*
X256000000Y-57400000D03*
X179800000Y-46200000D03*
X92600000Y-60900000D03*
X181400000Y-64800000D03*
X201175735Y-63024265D03*
X179800000Y-72000000D03*
X163200000Y-77800000D03*
X234800000Y-75600000D03*
X237600000Y-62000000D03*
X178200000Y-88000000D03*
X256600000Y-86000000D03*
X198200000Y-77400000D03*
X134200000Y-58600000D03*
X176240000Y-41600000D03*
X178800000Y-70500000D03*
X258800000Y-102600000D03*
X217200000Y-61400000D03*
X190600000Y-37600000D03*
X209200000Y-49800000D03*
X163705025Y-47050000D03*
X239400000Y-61400000D03*
X217000000Y-51400000D03*
X52600000Y-82200000D03*
X215400000Y-81600000D03*
X166000000Y-85200000D03*
X72300000Y-66500000D03*
X198600000Y-59200000D03*
X244000000Y-52200000D03*
X200200000Y-37800000D03*
X163000000Y-62400000D03*
X238175000Y-81000000D03*
X92300000Y-79100000D03*
X165000000Y-43000000D03*
X180400000Y-84200000D03*
X137300000Y-80900000D03*
X91000000Y-62400000D03*
X179800000Y-64800000D03*
X236800000Y-86800000D03*
X180000000Y-50800000D03*
X216400000Y-89000000D03*
X218200000Y-75800000D03*
X161800000Y-46600000D03*
X224400000Y-55000000D03*
X74200000Y-66900000D03*
X136800000Y-62100000D03*
X76100000Y-86800000D03*
X257200000Y-95000000D03*
X54500000Y-80500000D03*
X120200000Y-57850000D03*
X218975735Y-56624265D03*
X239200000Y-119000000D03*
X256600000Y-83600000D03*
X183000000Y-39800000D03*
X161600000Y-97200000D03*
X237975000Y-118800000D03*
X113600000Y-43400000D03*
X255000000Y-96000000D03*
X240000000Y-80400000D03*
X177600000Y-83600000D03*
X196600000Y-75200000D03*
X163200000Y-97200000D03*
X199800000Y-65900000D03*
X253200000Y-54600000D03*
X256200000Y-77200000D03*
X161600000Y-62400000D03*
%TO.N,GND*%
X206400000Y-56200000D03*
X266800000Y-90600000D03*
X184600000Y-57969858D03*
X66161909Y-117633322D03*
X205040000Y-52670000D03*
X246800000Y-101600000D03*
X107800000Y-60700000D03*
X205800000Y-82200000D03*
X140400000Y-63600000D03*
X167600000Y-78200000D03*
X171700000Y-52200000D03*
X186600000Y-53000000D03*
X169200000Y-93000000D03*
X188000000Y-60400000D03*
X205800000Y-66000000D03*
X65900000Y-63000000D03*
X225800000Y-59600000D03*
X247200000Y-84800000D03*
X207000000Y-79600000D03*
X108400000Y-62800000D03*
X187200000Y-70500000D03*
X66500000Y-79800000D03*
X246000000Y-88800000D03*
X224800000Y-78600000D03*
X187400000Y-49000000D03*
X48200000Y-97000000D03*
X161600000Y-44600000D03*
X245400000Y-117400000D03*
X207600000Y-59000000D03*
X142300000Y-80700000D03*
X243200000Y-62600000D03*
X170938000Y-55278303D03*
X143100000Y-55299283D03*
X190200000Y-86200000D03*
X225200000Y-56800000D03*
X266800000Y-109200000D03*
X64000000Y-82900000D03*
X205400000Y-63400000D03*
X122600000Y-70200000D03*
X244000000Y-81800000D03*
X206400000Y-41600000D03*
X244800000Y-71200000D03*
X205000000Y-46000000D03*
X188800000Y-86200000D03*
X226000000Y-65400000D03*
X105600000Y-40300000D03*
X46700000Y-120100000D03*
X166694975Y-47705025D03*
X47300000Y-117900000D03*
X66100000Y-60800000D03*
X66800000Y-81000000D03*
X135100000Y-43700000D03*
X186000000Y-73800000D03*
X204911930Y-71200000D03*
X67741060Y-118407470D03*
X92200000Y-81600000D03*
X270400000Y-61000000D03*
X186627774Y-87200000D03*
X110695000Y-62800000D03*
X231400000Y-96600000D03*
X48200000Y-60900000D03*
X224400000Y-75600000D03*
X69794975Y-98505025D03*
X250700000Y-117238071D03*
X245200000Y-98400000D03*
X206200000Y-43000000D03*
X120000000Y-37000000D03*
X185600000Y-55400000D03*
X104100000Y-62800000D03*
X187200000Y-79400000D03*
X124175735Y-47524265D03*
X143208301Y-93330006D03*
X121600000Y-72500000D03*
X231800000Y-108200000D03*
X194600000Y-82400000D03*
X223795866Y-94555607D03*
X226800000Y-63000000D03*
X186600000Y-89600000D03*
X86400000Y-74800000D03*
X202000000Y-68600000D03*
X64800000Y-108400000D03*
X187600000Y-50600000D03*
X187000000Y-72000000D03*
X165600000Y-65200000D03*
X83900000Y-78700000D03*
X86700000Y-71200000D03*
X196200000Y-82200000D03*
X245000000Y-100000000D03*
X46800000Y-71500000D03*
X266200000Y-82000000D03*
X124700000Y-67700000D03*
X100158683Y-80376135D03*
X265200000Y-100600000D03*
X192100000Y-83000000D03*
X242600000Y-84200000D03*
X88100000Y-75800000D03*
X44518977Y-81200000D03*
X247768114Y-111577952D03*
X127100000Y-82500000D03*
X265900000Y-60200000D03*
X144300000Y-45900000D03*
%TO.N,/Right Sheet/ROW2*%
X76100000Y-59800000D03*
%TO.N,/LEft Sheet/ROW3*%
X214200000Y-58400000D03*
X212000000Y-58400000D03*
%TO.N,/Right Sheet/ROW3*%
X110655025Y-45055025D03*
X147900000Y-62100000D03*
%TO.N,/LEft Sheet/ROW2*%
X214100000Y-65200000D03*
X210800000Y-64000000D03*
%TO.N,Net-(D39-DOUT)*%
X263400000Y-113800000D03*
X249000000Y-120800000D03*
%TO.N,Net-(D21-DOUT)*%
X195400000Y-40800000D03*
X192800000Y-41200000D03*
%TO.N,/LEft Sheet/ROW1*%
X177100000Y-54600000D03*
X193600000Y-84000000D03*
X251000000Y-67600000D03*
X175400000Y-55200000D03*
X232390000Y-90200000D03*
X195800000Y-84000000D03*
X252800000Y-67200000D03*
X233800000Y-90200000D03*
%TO.N,Net-(D41-DOUT)*%
X136190380Y-57000000D03*
X112700000Y-54500000D03*
%TO.N,/Right Sheet/D1*%
X44900000Y-64700000D03*
X50100000Y-70520000D03*
%TO.N,Net-(D42-DOUT)*%
X52700000Y-80300000D03*
X66300000Y-74800000D03*
%TO.N,Net-(D58-DOUT)*%
X95980331Y-80619669D03*
X87300000Y-89800000D03*
%TO.N,Net-(D64-DOUT)*%
X69400000Y-96200000D03*
X74800000Y-95200000D03*
%TO.N,Net-(D47-DOUT)*%
X106300000Y-39100000D03*
X115600000Y-47400000D03*
%TO.N,Net-(D56-DOUT)*%
X87300000Y-51800000D03*
X97550000Y-40500000D03*
%TO.N,Net-(D57-DOUT)*%
X105800000Y-57700000D03*
X90655025Y-61144975D03*
%TO.N,Net-(D63-DOUT)*%
X123300000Y-64400000D03*
X111400000Y-61900000D03*
%TO.N,Net-(D22-DOUT)*%
X215000000Y-48000000D03*
X209200000Y-48200000D03*
%TO.N,Net-(D36-DOUT)*%
X220044393Y-93955607D03*
X244000000Y-95200000D03*
%TO.N,Net-(D23-DOUT)*%
X232400000Y-56400000D03*
X230500000Y-56600000D03*
%TO.N,/Right Sheet/D2*%
X140000000Y-82700000D03*
X142400000Y-90900000D03*
%TO.N,Net-(D43-DOUT)*%
X133444975Y-84344975D03*
X124100000Y-83600000D03*
%TO.N,Net-(D70-DOUT)*%
X142600000Y-71300000D03*
X132600000Y-63500000D03*
%TO.N,Net-(D29-DOUT)*%
X200600000Y-61600000D03*
X225200000Y-69400000D03*
%TO.N,Net-(D33-DOUT)*%
X178200000Y-85800000D03*
X175400000Y-86400000D03*
%TO.N,Net-(D34-DOUT)*%
X194500001Y-76679899D03*
X192200000Y-79200000D03*
%TO.N,Net-(D27-DOUT)*%
X170800000Y-76200000D03*
X187200000Y-64600000D03*
%TO.N,Net-(D31-DOUT)*%
X264300000Y-75800000D03*
X249400000Y-83000000D03*
%TO.N,/LEft Sheet/D2*%
X169200000Y-91600000D03*
X233790000Y-85000000D03*
X245600000Y-85000000D03*
X256800000Y-80600000D03*
X232294975Y-86705025D03*
X193800000Y-89800000D03*
%TO.N,Net-(D25-DOUT)*%
X176700000Y-39600000D03*
X170300000Y-54400000D03*
X210700000Y-39200000D03*
X214100000Y-44000000D03*
X255600000Y-60800000D03*
X237200000Y-43900000D03*
%TO.N,/LEft Sheet/D1*%
X167800000Y-70600000D03*
X168024265Y-68575735D03*
%TO.N,Net-(D48-DOUT)*%
X72000000Y-67500000D03*
X85500000Y-68700000D03*
%TO.N,Net-(D49-DOUT)*%
X93500000Y-84100000D03*
X105800000Y-77300000D03*
%TO.N,Net-(D71-DOUT)*%
X49000000Y-96100000D03*
X58900000Y-98000000D03*
%TO.N,Net-(D30-DOUT)*%
X219575000Y-73800000D03*
X227600000Y-78600000D03*
X244200000Y-75200000D03*
X232390000Y-78600000D03*
%TD*%
%TO.N,Net-(D14-A)*%
D23*
X199390000Y-52070000D02*
X208730000Y-52070000D01*
X208730000Y-52070000D02*
X209000000Y-51800000D01*
%TO.N,/LEft Sheet/COL3*%
D24*
X208600000Y-33400000D02*
X211000000Y-35800000D01*
X211000000Y-35800000D02*
X212200000Y-35800000D01*
%TO.N,Net-(D13-A)*%
D23*
X218960000Y-45200000D02*
X230710000Y-45200000D01*
X230710000Y-45200000D02*
X231200000Y-45690000D01*
X218440000Y-45720000D02*
X218960000Y-45200000D01*
%TO.N,/LEft Sheet/COL2*%
D24*
X189200000Y-72500000D02*
X192100000Y-72500000D01*
X189200000Y-72500000D02*
X189200000Y-72400000D01*
X170200000Y-57600000D02*
X170800000Y-58200000D01*
X170800000Y-58200000D02*
X170800000Y-61400000D01*
X192100000Y-72500000D02*
X192200000Y-72600000D01*
%TO.N,Net-(D12-A)*%
D23*
X257110000Y-89600000D02*
X269320000Y-89600000D01*
X256540000Y-90170000D02*
X257110000Y-89600000D01*
X269320000Y-89600000D02*
X269400000Y-89680000D01*
%TO.N,/Right Sheet/COL2*%
D24*
X127800000Y-50300000D02*
X127794975Y-50305025D01*
X75500000Y-63400000D02*
X73100000Y-65800000D01*
X131060000Y-53160000D02*
X128200000Y-50300000D01*
X75500000Y-61200000D02*
X75500000Y-63400000D01*
X73700000Y-75900000D02*
X74000000Y-76200000D01*
D23*
X131225000Y-53160000D02*
X131060000Y-53160000D01*
D24*
X76000000Y-60700000D02*
X75500000Y-61200000D01*
X74000000Y-76200000D02*
X74000000Y-76300000D01*
X128200000Y-50300000D02*
X127800000Y-50300000D01*
X85090000Y-62230000D02*
X83560000Y-60700000D01*
X73100000Y-65800000D02*
X73100000Y-67900000D01*
X127794975Y-50305025D02*
X127594975Y-50305025D01*
X83560000Y-60700000D02*
X76000000Y-60700000D01*
X73100000Y-67900000D02*
X73700000Y-68500000D01*
X73700000Y-68500000D02*
X73700000Y-75900000D01*
%TO.N,Net-(D9-A)*%
D23*
X200255847Y-32000000D02*
X211210000Y-32000000D01*
X211210000Y-32000000D02*
X211900000Y-32690000D01*
X199390000Y-32865847D02*
X200255847Y-32000000D01*
%TO.N,/Right Sheet/COL5*%
D24*
X34900000Y-84500000D02*
X34800000Y-84600000D01*
X93300000Y-85600000D02*
X94600000Y-84300000D01*
X74300000Y-97200000D02*
X75200000Y-96300000D01*
X85090000Y-43180000D02*
X74920000Y-43180000D01*
X37800000Y-45100000D02*
X34900000Y-48000000D01*
X146080000Y-59460000D02*
X147300000Y-58240000D01*
X146080000Y-78120000D02*
X146080000Y-59460000D01*
X110900000Y-89900000D02*
X112300000Y-91300000D01*
X110900000Y-85400000D02*
X110900000Y-89900000D01*
X34900000Y-48000000D02*
X34900000Y-84500000D01*
X91700000Y-96300000D02*
X93300000Y-94700000D01*
X140800000Y-83400000D02*
X146080000Y-78120000D01*
X71900000Y-121600000D02*
X74300000Y-119200000D01*
X95000000Y-30100000D02*
X103760000Y-30100000D01*
X73000000Y-45100000D02*
X37800000Y-45100000D01*
X34800000Y-84600000D02*
X34800000Y-120200000D01*
X132400000Y-84400000D02*
X133400000Y-83400000D01*
X36200000Y-121600000D02*
X71900000Y-121600000D01*
X94600000Y-84300000D02*
X109800000Y-84300000D01*
X94300000Y-37500000D02*
X94300000Y-30800000D01*
X88620000Y-43180000D02*
X94300000Y-37500000D01*
X94300000Y-30800000D02*
X95000000Y-30100000D01*
X93300000Y-94700000D02*
X93300000Y-85600000D01*
X132400000Y-87700000D02*
X132400000Y-84400000D01*
X141820000Y-83400000D02*
X142240000Y-83820000D01*
X74300000Y-119200000D02*
X74300000Y-97200000D01*
X109800000Y-84300000D02*
X110900000Y-85400000D01*
X34800000Y-120200000D02*
X36200000Y-121600000D01*
X38030000Y-87630000D02*
X46990000Y-87630000D01*
X75200000Y-96300000D02*
X91700000Y-96300000D01*
X140800000Y-83400000D02*
X141820000Y-83400000D01*
X85090000Y-43180000D02*
X88620000Y-43180000D01*
X128800000Y-91300000D02*
X132400000Y-87700000D01*
X34900000Y-84500000D02*
X38030000Y-87630000D01*
X133400000Y-83400000D02*
X140800000Y-83400000D01*
X103760000Y-30100000D02*
X104140000Y-30480000D01*
X74920000Y-43180000D02*
X73000000Y-45100000D01*
X112300000Y-91300000D02*
X128800000Y-91300000D01*
%TO.N,Net-(D60-A)*%
D23*
X135890000Y-86360000D02*
X136550000Y-85700000D01*
X136550000Y-85700000D02*
X148500000Y-85700000D01*
%TO.N,/LEft Sheet/COL1*%
D24*
X193000000Y-75000000D02*
X194000000Y-74000000D01*
X194000000Y-74000000D02*
X194000000Y-73200000D01*
X194000000Y-73200000D02*
X194100000Y-73200000D01*
X170900000Y-56400000D02*
X170410050Y-56400000D01*
X167640000Y-59170050D02*
X167640000Y-64770000D01*
X164880000Y-45720000D02*
X164800000Y-45800000D01*
X194100000Y-73200000D02*
X194300000Y-73000000D01*
X167640000Y-45720000D02*
X164880000Y-45720000D01*
X170410050Y-56400000D02*
X167640000Y-59170050D01*
%TO.N,Net-(D20-A)*%
D23*
X268510000Y-108400000D02*
X269200000Y-109090000D01*
X256540000Y-109220000D02*
X257360000Y-108400000D01*
X257360000Y-108400000D02*
X268510000Y-108400000D01*
%TO.N,Net-(D10-A)*%
X193000000Y-59690000D02*
X193100000Y-59790000D01*
X180340000Y-59690000D02*
X193000000Y-59690000D01*
%TO.N,Net-(D5-A)*%
X189800000Y-47200000D02*
X189810000Y-47210000D01*
X189810000Y-47210000D02*
X193200000Y-47210000D01*
%TO.N,Net-(D16-A)*%
X237490000Y-109220000D02*
X238110000Y-108600000D01*
X238110000Y-108600000D02*
X249580000Y-108600000D01*
X249580000Y-108600000D02*
X250000000Y-108180000D01*
%TO.N,/Right Sheet/COL3*%
D24*
X132900000Y-56600000D02*
X132000000Y-55700000D01*
X132900000Y-56600000D02*
X132206366Y-56600000D01*
X123800000Y-44300000D02*
X123800000Y-41200000D01*
X133500000Y-57200000D02*
X132900000Y-56600000D01*
X125300000Y-49000000D02*
X125300000Y-45800000D01*
X129500000Y-53200000D02*
X125300000Y-49000000D01*
X123800000Y-41200000D02*
X123190000Y-40590000D01*
X132206366Y-56600000D02*
X129500000Y-53893634D01*
X129500000Y-53893634D02*
X129500000Y-53200000D01*
X125300000Y-45800000D02*
X123800000Y-44300000D01*
X123190000Y-40590000D02*
X123190000Y-38100000D01*
%TO.N,/Right Sheet/COL1*%
X108200000Y-53100000D02*
X107710000Y-53100000D01*
X107710000Y-53100000D02*
X104140000Y-49530000D01*
X110300000Y-53800000D02*
X108900000Y-53800000D01*
X108900000Y-53800000D02*
X108200000Y-53100000D01*
X62780000Y-106680000D02*
X66040000Y-106680000D01*
X60200000Y-102400000D02*
X61900000Y-104100000D01*
X61900000Y-105800000D02*
X62780000Y-106680000D01*
X61900000Y-104100000D02*
X61900000Y-105800000D01*
%TO.N,Net-(D51-A)*%
D23*
X117190000Y-49390000D02*
X117190000Y-51800000D01*
X116500000Y-49300000D02*
X117100000Y-49300000D01*
X117100000Y-49300000D02*
X117190000Y-49390000D01*
%TO.N,Net-(D66-A)*%
X108200000Y-51200000D02*
X108390000Y-51390000D01*
X108390000Y-51390000D02*
X110500000Y-51390000D01*
%TO.N,Net-(D8-A)*%
X237490000Y-90170000D02*
X238260000Y-89400000D01*
X245400000Y-88200000D02*
X249110000Y-88200000D01*
X249110000Y-88200000D02*
X250000000Y-89090000D01*
X244200000Y-89400000D02*
X245400000Y-88200000D01*
X238260000Y-89400000D02*
X244200000Y-89400000D01*
%TO.N,Net-(D17-A)*%
X250310000Y-51200000D02*
X250500000Y-51390000D01*
X237490000Y-52070000D02*
X238360000Y-51200000D01*
X238360000Y-51200000D02*
X250310000Y-51200000D01*
%TO.N,Net-(D19-A)*%
X199390000Y-71120000D02*
X199910000Y-70600000D01*
X211190000Y-70600000D02*
X212200000Y-69590000D01*
X199910000Y-70600000D02*
X211190000Y-70600000D01*
%TO.N,Net-(D6-A)*%
X170800000Y-72200000D02*
X170800000Y-73800000D01*
X165910000Y-67310000D02*
X170800000Y-72200000D01*
X161290000Y-67310000D02*
X165910000Y-67310000D01*
%TO.N,/Right Sheet/COL4*%
D24*
X80800306Y-77200000D02*
X75800000Y-77200000D01*
X123190000Y-57150000D02*
X114350000Y-57150000D01*
X107420000Y-68580000D02*
X104140000Y-68580000D01*
X93900000Y-74248528D02*
X90948528Y-77200000D01*
X70000000Y-83000000D02*
X67000000Y-83000000D01*
X95420000Y-68580000D02*
X93900000Y-70100000D01*
X104140000Y-68580000D02*
X95420000Y-68580000D01*
X134210050Y-59700000D02*
X130800000Y-59700000D01*
X82725306Y-77225000D02*
X82700306Y-77200000D01*
X82399694Y-77200000D02*
X82374694Y-77225000D01*
X93900000Y-70100000D02*
X93900000Y-74248528D01*
X82374694Y-77225000D02*
X80825306Y-77225000D01*
X75800000Y-77200000D02*
X70000000Y-83000000D01*
X136120828Y-58375736D02*
X135534314Y-58375736D01*
X82700306Y-77200000D02*
X82399694Y-77200000D01*
X113500000Y-58000000D02*
X113500000Y-62500000D01*
X135534314Y-58375736D02*
X134210050Y-59700000D01*
X129440000Y-58260000D02*
X129400000Y-58300000D01*
X90948528Y-77200000D02*
X84299694Y-77200000D01*
X80825306Y-77225000D02*
X80800306Y-77200000D01*
X84299694Y-77200000D02*
X84274694Y-77225000D01*
X131225000Y-58240000D02*
X129440000Y-58240000D01*
X130800000Y-59700000D02*
X129400000Y-58300000D01*
X129440000Y-58240000D02*
X129440000Y-58260000D01*
X113500000Y-62500000D02*
X107420000Y-68580000D01*
X84274694Y-77225000D02*
X82725306Y-77225000D01*
X114350000Y-57150000D02*
X113500000Y-58000000D01*
%TO.N,Net-(D54-A)*%
D23*
X69353196Y-84759046D02*
X72300000Y-87705850D01*
X72300000Y-87705850D02*
X72300000Y-89290000D01*
%TO.N,Net-(D52-A)*%
X141134744Y-61075000D02*
X145380000Y-65320256D01*
X135890000Y-67310000D02*
X135890000Y-62161471D01*
X135890000Y-62161471D02*
X136976471Y-61075000D01*
X145380000Y-65320256D02*
X145380000Y-66400000D01*
X136976471Y-61075000D02*
X141134744Y-61075000D01*
%TO.N,Net-(D3-A)*%
X249690000Y-70600000D02*
X250200000Y-70090000D01*
X238010000Y-70600000D02*
X249690000Y-70600000D01*
X237490000Y-71120000D02*
X238010000Y-70600000D01*
%TO.N,Net-(D1-A)*%
X168844499Y-40705501D02*
X174094499Y-40705501D01*
X161290000Y-48260000D02*
X168844499Y-40705501D01*
X176400000Y-36800000D02*
X178800000Y-34400000D01*
X174850051Y-39949949D02*
X174840001Y-39949949D01*
X174094499Y-40705501D02*
X174850051Y-39949949D01*
X176240000Y-36800000D02*
X176400000Y-36800000D01*
X178800000Y-34400000D02*
X180380000Y-34400000D01*
%TO.N,Net-(D4-A)*%
X220980000Y-83820000D02*
X221000000Y-83800000D01*
X225600000Y-84124264D02*
X225934264Y-83790000D01*
X225934264Y-83790000D02*
X231100000Y-83790000D01*
X218440000Y-83820000D02*
X220980000Y-83820000D01*
%TO.N,Net-(D18-A)*%
X218440000Y-64770000D02*
X230880000Y-64770000D01*
X230880000Y-64770000D02*
X231000000Y-64890000D01*
%TO.N,Net-(D59-A)*%
X116840000Y-59690000D02*
X126200000Y-59690000D01*
X126200000Y-59690000D02*
X129200000Y-62690000D01*
%TO.N,Net-(D2-A)*%
X269590000Y-51600000D02*
X269600000Y-51590000D01*
X256540000Y-52070000D02*
X257010000Y-51600000D01*
X257010000Y-51600000D02*
X269590000Y-51600000D01*
%TO.N,Net-(D7-A)*%
X256540000Y-71120000D02*
X257060000Y-70600000D01*
X268600000Y-70600000D02*
X269100000Y-70100000D01*
X257060000Y-70600000D02*
X268600000Y-70600000D01*
%TO.N,Net-(D11-A)*%
X165942944Y-86360000D02*
X172192944Y-92610000D01*
X172192944Y-92610000D02*
X173800000Y-92610000D01*
X161290000Y-86360000D02*
X165942944Y-86360000D01*
%TO.N,Net-(D15-A)*%
X193090000Y-78200000D02*
X193100000Y-78190000D01*
X180880000Y-78200000D02*
X193090000Y-78200000D01*
X180340000Y-78740000D02*
X180880000Y-78200000D01*
%TO.N,/Right Sheet/ROW4*%
D24*
X135824264Y-59075736D02*
X134400000Y-60500000D01*
X143480000Y-53180000D02*
X143900000Y-53600000D01*
X55200000Y-105500000D02*
X53400000Y-103700000D01*
X134400000Y-60500000D02*
X130589950Y-60500000D01*
X144820000Y-48080000D02*
X143480000Y-49420000D01*
X55200000Y-114420000D02*
X55200000Y-105500000D01*
X147300000Y-48080000D02*
X144820000Y-48080000D01*
X143800000Y-54500000D02*
X143800000Y-58951472D01*
X143675736Y-59075736D02*
X135824264Y-59075736D01*
X53400000Y-103700000D02*
X53400000Y-96820000D01*
X53500000Y-116120000D02*
X55200000Y-114420000D01*
X143480000Y-49420000D02*
X143480000Y-53180000D01*
X143900000Y-53600000D02*
X143900000Y-54400000D01*
X143900000Y-54400000D02*
X143800000Y-54500000D01*
X143800000Y-58951472D02*
X143675736Y-59075736D01*
X130589950Y-60500000D02*
X130544975Y-60455025D01*
%TO.N,/LEft Sheet/ROW4*%
X233090000Y-72510000D02*
X233800000Y-71800000D01*
X231000000Y-77000000D02*
X231000000Y-72510000D01*
X175600000Y-32800000D02*
X191400000Y-32800000D01*
X233090000Y-120690000D02*
X234600000Y-122200000D01*
X193200000Y-26400000D02*
X212800000Y-26400000D01*
X212200000Y-77210000D02*
X213400000Y-76010000D01*
X250000000Y-66200000D02*
X250500000Y-65700000D01*
X212800000Y-26400000D02*
X213400000Y-27000000D01*
X191400000Y-32800000D02*
X193200000Y-31000000D01*
X175540000Y-48140000D02*
X175540000Y-32860000D01*
X234600000Y-122200000D02*
X249200000Y-122200000D01*
X230200000Y-77800000D02*
X231000000Y-77000000D01*
X172800000Y-48140000D02*
X175540000Y-48140000D01*
X249200000Y-122200000D02*
X249300000Y-122100000D01*
X233090000Y-72510000D02*
X233090000Y-120690000D01*
X249300000Y-122100000D02*
X267500000Y-122100000D01*
X213400000Y-27000000D02*
X213400000Y-76010000D01*
X233800000Y-66400000D02*
X234000000Y-66200000D01*
X231000000Y-72510000D02*
X233090000Y-72510000D01*
X267500000Y-122100000D02*
X269200000Y-120400000D01*
X213400000Y-77000000D02*
X214200000Y-77800000D01*
X213400000Y-76010000D02*
X213400000Y-77000000D01*
X250500000Y-65700000D02*
X250500000Y-59010000D01*
X193200000Y-31000000D02*
X193200000Y-26400000D01*
X249300000Y-122100000D02*
X250000000Y-121400000D01*
X269200000Y-120400000D02*
X269200000Y-116710000D01*
X175540000Y-32860000D02*
X175600000Y-32800000D01*
X233800000Y-71800000D02*
X233800000Y-66400000D01*
X234000000Y-66200000D02*
X250000000Y-66200000D01*
X214200000Y-77800000D02*
X230200000Y-77800000D01*
X250000000Y-121400000D02*
X250000000Y-115800000D01*
%TO.N,+5V*%
D25*
X163950000Y-77800000D02*
X164350000Y-78200000D01*
X161350000Y-76800000D02*
X161350000Y-73700000D01*
X220200000Y-55450000D02*
X221350000Y-56600000D01*
X257039339Y-81900000D02*
X257039339Y-83160661D01*
X61500000Y-52500000D02*
X61500000Y-51100000D01*
X99075000Y-77250000D02*
X95950000Y-77250000D01*
X99000000Y-44000000D02*
X100650000Y-44000000D01*
X73650000Y-97656878D02*
X68606878Y-102700000D01*
X114220000Y-60030000D02*
X114220000Y-64320000D01*
X180400000Y-84200000D02*
X180950000Y-84200000D01*
X180775000Y-84700000D02*
X180200000Y-85275000D01*
X256800000Y-57400000D02*
X257600000Y-58200000D01*
X60800000Y-111100000D02*
X60800000Y-115100000D01*
X115400000Y-65800000D02*
X114200000Y-67000000D01*
X237400406Y-95799594D02*
X237750812Y-96150000D01*
X38700000Y-58400000D02*
X38700000Y-61500000D01*
X119200000Y-58900000D02*
X118440000Y-58140000D01*
X58400000Y-95600000D02*
X60225000Y-95600000D01*
X237200000Y-58200000D02*
X237200000Y-61600000D01*
X137075000Y-49267032D02*
X137075000Y-54250000D01*
X198800000Y-77400000D02*
X200200000Y-77400000D01*
X77500000Y-90000000D02*
X75800000Y-91700000D01*
X159740000Y-43060000D02*
X159800000Y-43000000D01*
X254850000Y-58550000D02*
X254850000Y-62650000D01*
X238425000Y-58200000D02*
X238575000Y-58050000D01*
X76600000Y-74400000D02*
X77700000Y-75500000D01*
X83130000Y-44730000D02*
X83100000Y-44700000D01*
X60800000Y-115100000D02*
X58800000Y-115100000D01*
X161000000Y-97200000D02*
X161600000Y-97200000D01*
X41775000Y-96175000D02*
X41800000Y-96200000D01*
X61240000Y-90812032D02*
X61240000Y-88940000D01*
X256550000Y-115050000D02*
X256550000Y-117250000D01*
X77700000Y-75500000D02*
X81600000Y-75500000D01*
X239400000Y-61400000D02*
X239400000Y-62050000D01*
X61500000Y-52100000D02*
X61500000Y-52500000D01*
X60665000Y-76940000D02*
X61075000Y-77350000D01*
X162375000Y-54150000D02*
X162375000Y-52945000D01*
X234800000Y-75600000D02*
X235000000Y-75600000D01*
X176240000Y-42640000D02*
X179800000Y-46200000D01*
X99000000Y-44000000D02*
X98300000Y-44000000D01*
X134950000Y-73250000D02*
X133900000Y-74300000D01*
X90200000Y-43300000D02*
X88770000Y-44730000D01*
X51100000Y-83700000D02*
X43500000Y-83700000D01*
X96400000Y-82100000D02*
X100650000Y-82100000D01*
X181200000Y-45400000D02*
X181200000Y-46275000D01*
X41300000Y-101200000D02*
X42900000Y-102800000D01*
X216600000Y-78800000D02*
X216600000Y-80400000D01*
X181400000Y-64800000D02*
X181400000Y-65575000D01*
X219000000Y-56600000D02*
X218975735Y-56624265D01*
X240000000Y-81250000D02*
X240550000Y-81800000D01*
X137440000Y-47617968D02*
X137440000Y-48902032D01*
X136975000Y-69095000D02*
X136975000Y-73250000D01*
X96800000Y-39200000D02*
X97050000Y-38950000D01*
X107500000Y-70500000D02*
X101000000Y-70500000D01*
X188400000Y-39800000D02*
X190600000Y-37600000D01*
X131225000Y-43000000D02*
X129300000Y-43000000D01*
X45725534Y-90450000D02*
X45485534Y-90210000D01*
X180950000Y-84200000D02*
X181450000Y-84700000D01*
X164050000Y-62400000D02*
X164150000Y-62300000D01*
X163200000Y-97200000D02*
X164350000Y-97200000D01*
X129300000Y-43000000D02*
X125900000Y-39600000D01*
X43550000Y-81900000D02*
X42850000Y-82600000D01*
X161000000Y-92710812D02*
X161000000Y-97200000D01*
X220200000Y-55400000D02*
X220200000Y-55450000D01*
X52600000Y-48800000D02*
X51200000Y-50200000D01*
X258800000Y-101550000D02*
X259550000Y-100800000D01*
X216400000Y-89000000D02*
X218925000Y-89000000D01*
X216400000Y-93000000D02*
X218399938Y-94999938D01*
X77350000Y-51850000D02*
X77000000Y-52200000D01*
X124400000Y-35800000D02*
X120100000Y-35800000D01*
X161510812Y-73250000D02*
X158670000Y-70409188D01*
X42900000Y-83100000D02*
X42900000Y-82550000D01*
X163000000Y-84810000D02*
X160647968Y-84810000D01*
X256200000Y-77200000D02*
X256800000Y-77200000D01*
X133900000Y-77200000D02*
X134800000Y-78100000D01*
X217200000Y-61400000D02*
X215820000Y-62780000D01*
X41300000Y-101200000D02*
X42500000Y-101200000D01*
X93300000Y-78100000D02*
X92300000Y-79100000D01*
X137100000Y-92400000D02*
X134800000Y-92400000D01*
X217600000Y-51400000D02*
X217600000Y-55200000D01*
X68606878Y-102700000D02*
X62700000Y-102700000D01*
X256600406Y-114999594D02*
X256750812Y-115150000D01*
X115900000Y-89500000D02*
X119750000Y-89500000D01*
X58100000Y-62800000D02*
X62650000Y-62800000D01*
X200200000Y-44400000D02*
X196770000Y-47830000D01*
X57900000Y-96100000D02*
X58400000Y-95600000D01*
X55900000Y-50000000D02*
X54700000Y-48800000D01*
X75800000Y-92700000D02*
X73650000Y-94850000D01*
X237137500Y-117962500D02*
X237975000Y-118800000D01*
X161250000Y-62050000D02*
X161250000Y-54600000D01*
X201650000Y-44400000D02*
X202450000Y-43600000D01*
X200200000Y-37800000D02*
X200200000Y-38375000D01*
X78200000Y-56500000D02*
X81400000Y-56500000D01*
X114550000Y-46650000D02*
X114200000Y-46300000D01*
X181600000Y-56450000D02*
X180822283Y-56450000D01*
X196770000Y-55169188D02*
X199750812Y-58150000D01*
X118700000Y-76700000D02*
X118700000Y-79694466D01*
X221350000Y-56600000D02*
X222950000Y-55000000D01*
X60875000Y-91177032D02*
X61240000Y-90812032D01*
X75800000Y-91700000D02*
X75800000Y-92700000D01*
X180900000Y-89500000D02*
X183250000Y-89500000D01*
X237425000Y-115150000D02*
X238575000Y-115150000D01*
X253920000Y-107480000D02*
X253920000Y-112319188D01*
X234200000Y-105400000D02*
X234200000Y-111925000D01*
X79900000Y-70800000D02*
X78100000Y-70800000D01*
X161460812Y-92250000D02*
X162475000Y-92250000D01*
X79900000Y-66400000D02*
X79900000Y-70800000D01*
X57000000Y-59400000D02*
X57000000Y-61700000D01*
X118100000Y-80294466D02*
X118100000Y-84700000D01*
X97350000Y-58150000D02*
X96300000Y-59200000D01*
X162600000Y-45800000D02*
X161800000Y-46600000D01*
X161820025Y-52390025D02*
X161820025Y-49922007D01*
X218399938Y-94999938D02*
X220750062Y-94999938D01*
X60225000Y-95600000D02*
X60875000Y-96250000D01*
X217000000Y-51400000D02*
X217600000Y-51400000D01*
X137440000Y-48902032D02*
X137075000Y-49267032D01*
X136975000Y-73250000D02*
X134950000Y-73250000D01*
X161350000Y-78000000D02*
X161350000Y-78200000D01*
X95100000Y-78100000D02*
X93300000Y-78100000D01*
X58000000Y-99700000D02*
X57900000Y-99600000D01*
X253920000Y-88680000D02*
X253920000Y-94920000D01*
X177600000Y-74200000D02*
X177600000Y-83600000D01*
X256800000Y-77200000D02*
X257825000Y-77200000D01*
X239400000Y-62050000D02*
X240150000Y-62800000D01*
X236800000Y-86800000D02*
X234870000Y-88730000D01*
X198800000Y-80800000D02*
X200000000Y-82000000D01*
X96800000Y-42500000D02*
X96800000Y-39200000D01*
X125900000Y-37300000D02*
X124400000Y-35800000D01*
X161350000Y-73700000D02*
X161800000Y-73250000D01*
X135300000Y-78100000D02*
X138850000Y-78100000D01*
X96900000Y-62700000D02*
X100700000Y-62700000D01*
X257825000Y-77200000D02*
X257875000Y-77250000D01*
X256050000Y-80910661D02*
X257039339Y-81900000D01*
X181200000Y-46275000D02*
X181475000Y-46550000D01*
X75800000Y-92700000D02*
X77700000Y-94600000D01*
X79775000Y-46925000D02*
X79775000Y-51850000D01*
X58400000Y-119100000D02*
X61950000Y-119100000D01*
X53917767Y-90450000D02*
X45725534Y-90450000D01*
X199650000Y-58150000D02*
X198600000Y-59200000D01*
X58350000Y-58050000D02*
X57000000Y-59400000D01*
X198800000Y-77400000D02*
X198800000Y-80800000D01*
X88770000Y-44730000D02*
X83130000Y-44730000D01*
X177720000Y-62789188D02*
X179365406Y-64434594D01*
X98300000Y-44000000D02*
X96800000Y-42500000D01*
X97050000Y-38950000D02*
X99175000Y-38950000D01*
X135440380Y-55777630D02*
X135440380Y-57359620D01*
X133900000Y-74300000D02*
X121100000Y-74300000D01*
X218925000Y-89000000D02*
X219575000Y-89650000D01*
X200200000Y-38375000D02*
X200575000Y-38750000D01*
X253920000Y-94920000D02*
X255000000Y-96000000D01*
X248279188Y-54600000D02*
X253200000Y-54600000D01*
X158670000Y-89459188D02*
X161460812Y-92250000D01*
X237750812Y-96150000D02*
X238575000Y-96150000D01*
X179365406Y-64434594D02*
X179000000Y-64800000D01*
X67600000Y-51500000D02*
X62100000Y-51500000D01*
X158670000Y-70409188D02*
X158670000Y-65330000D01*
X62300000Y-101350000D02*
X62750000Y-100900000D01*
X119200000Y-58700000D02*
X119200000Y-58900000D01*
X41750000Y-96250000D02*
X39950000Y-96250000D01*
X179800000Y-72000000D02*
X177600000Y-74200000D01*
X118100000Y-84700000D02*
X116200000Y-84700000D01*
X136800000Y-62100000D02*
X137440000Y-62740000D01*
X62300000Y-102300000D02*
X62300000Y-101350000D01*
X161820025Y-49922007D02*
X163705025Y-48037007D01*
X240000000Y-80400000D02*
X240000000Y-81250000D01*
X138000000Y-86600000D02*
X137100000Y-87500000D01*
X41875000Y-58050000D02*
X39050000Y-58050000D01*
X196600000Y-69100000D02*
X196600000Y-75200000D01*
X131225000Y-43000000D02*
X132822032Y-43000000D01*
X45485534Y-90210000D02*
X43414466Y-90210000D01*
X215820000Y-62780000D02*
X215820000Y-67870000D01*
X158670000Y-86787968D02*
X158670000Y-89459188D01*
X37900000Y-82000000D02*
X37900000Y-78400000D01*
X61950000Y-119100000D02*
X62750000Y-119900000D01*
X179900000Y-70500000D02*
X178800000Y-70500000D01*
X158670000Y-65330000D02*
X161600000Y-62400000D01*
X115100000Y-70700000D02*
X118700000Y-70700000D01*
X100300000Y-52374466D02*
X98875000Y-53799466D01*
X161700000Y-54150000D02*
X162375000Y-54150000D01*
X77700000Y-94600000D02*
X81650000Y-94600000D01*
X39900000Y-101200000D02*
X41300000Y-101200000D01*
X256000000Y-57400000D02*
X254850000Y-58550000D01*
X57900000Y-116000000D02*
X57900000Y-118600000D01*
X217600000Y-51400000D02*
X219325000Y-51400000D01*
X179000000Y-88800000D02*
X178200000Y-88000000D01*
X98300000Y-44000000D02*
X97600000Y-43300000D01*
X179365406Y-64434594D02*
X179730812Y-64800000D01*
X39900000Y-62700000D02*
X43650000Y-62700000D01*
X97600000Y-43300000D02*
X90200000Y-43300000D01*
X117900000Y-65800000D02*
X115700000Y-65800000D01*
X133700000Y-93500000D02*
X133700000Y-96200000D01*
X114200000Y-46300000D02*
X114200000Y-44000000D01*
X161350000Y-83160000D02*
X161350000Y-78200000D01*
X201175735Y-63024265D02*
X201975735Y-63024265D01*
X180200000Y-88800000D02*
X179000000Y-88800000D01*
X114900000Y-88500000D02*
X115900000Y-89500000D01*
X37600000Y-118600000D02*
X39100000Y-120100000D01*
X39100000Y-120100000D02*
X43500000Y-120100000D01*
X120100000Y-35800000D02*
X119000000Y-36900000D01*
X54700000Y-48800000D02*
X52600000Y-48800000D01*
X163000000Y-84810000D02*
X161350000Y-83160000D01*
X56367767Y-88000000D02*
X53917767Y-90450000D01*
X118440000Y-58140000D02*
X116110000Y-58140000D01*
X57000000Y-61700000D02*
X58100000Y-62800000D01*
X239200000Y-119000000D02*
X239350000Y-119000000D01*
X60300000Y-88000000D02*
X56367767Y-88000000D01*
X180200000Y-85275000D02*
X180200000Y-88800000D01*
X198200000Y-77400000D02*
X198800000Y-77400000D01*
X51200000Y-50400000D02*
X49600000Y-52000000D01*
X166000000Y-85200000D02*
X165610000Y-84810000D01*
X102300000Y-47200000D02*
X100300000Y-49200000D01*
X118700000Y-70700000D02*
X119000000Y-70400000D01*
X41800000Y-110874466D02*
X41800000Y-115300000D01*
X237137500Y-114862500D02*
X237137500Y-117962500D01*
X257039339Y-83160661D02*
X256600000Y-83600000D01*
X77000000Y-55300000D02*
X78200000Y-56500000D01*
X96300000Y-62100000D02*
X96900000Y-62700000D01*
X42800000Y-100900000D02*
X43450000Y-100900000D01*
X179730812Y-64800000D02*
X179800000Y-64800000D01*
X219200000Y-75600000D02*
X221350000Y-75600000D01*
X237400406Y-99000406D02*
X239000000Y-100600000D01*
X57900000Y-118600000D02*
X58400000Y-119100000D01*
X42850000Y-82600000D02*
X38500000Y-82600000D01*
X61240000Y-108577968D02*
X61240000Y-110660000D01*
X135000000Y-97500000D02*
X138850000Y-97500000D01*
X119000000Y-36900000D02*
X119000000Y-41000000D01*
X218200000Y-75400000D02*
X219000000Y-75400000D01*
X236750000Y-79575000D02*
X238175000Y-81000000D01*
X239000000Y-100600000D02*
X234200000Y-105400000D01*
X119000000Y-41000000D02*
X117975000Y-42025000D01*
X134800000Y-78100000D02*
X135300000Y-78100000D01*
X121100000Y-74300000D02*
X118700000Y-76700000D01*
X38500000Y-82600000D02*
X37900000Y-82000000D01*
X256550000Y-117250000D02*
X259400000Y-120100000D01*
X235000000Y-75600000D02*
X236600000Y-77200000D01*
X39100000Y-97100000D02*
X39100000Y-100400000D01*
X256000000Y-57400000D02*
X256800000Y-57400000D01*
X38700000Y-61500000D02*
X39900000Y-62700000D01*
X200475000Y-58150000D02*
X199650000Y-58150000D01*
X207380000Y-47980000D02*
X209200000Y-49800000D01*
X218900000Y-70950000D02*
X218200000Y-71650000D01*
X136968010Y-54250000D02*
X135440380Y-55777630D01*
X79775000Y-51850000D02*
X77350000Y-51850000D01*
X216400000Y-89000000D02*
X216400000Y-93000000D01*
X66700000Y-70500000D02*
X62600000Y-70500000D01*
X199200000Y-39450000D02*
X199200000Y-43400000D01*
X79775000Y-51850000D02*
X77650000Y-51850000D01*
X180200000Y-88800000D02*
X180900000Y-89500000D01*
X58800000Y-115100000D02*
X57900000Y-116000000D01*
X239300000Y-100900000D02*
X240450000Y-100900000D01*
X69700000Y-49400000D02*
X67600000Y-51500000D01*
X118700000Y-79694466D02*
X118100000Y-80294466D01*
X137440000Y-68630000D02*
X136975000Y-69095000D01*
X125900000Y-39600000D02*
X125900000Y-37300000D01*
X79900000Y-70800000D02*
X77300000Y-70800000D01*
X95950000Y-77250000D02*
X95100000Y-78100000D01*
X132822032Y-43000000D02*
X137440000Y-47617968D01*
X60665000Y-72435000D02*
X60665000Y-76940000D01*
X116110000Y-58140000D02*
X114220000Y-60030000D01*
X237200000Y-61600000D02*
X237600000Y-62000000D01*
X234200000Y-111925000D02*
X237137500Y-114862500D01*
X96300000Y-59200000D02*
X94300000Y-59200000D01*
X114220000Y-64320000D02*
X115700000Y-65800000D01*
X161250000Y-54600000D02*
X161700000Y-54150000D01*
X37600000Y-116300000D02*
X37600000Y-118600000D01*
X98875000Y-58150000D02*
X97350000Y-58150000D01*
X62600000Y-70500000D02*
X60665000Y-72435000D01*
X113300000Y-47200000D02*
X102300000Y-47200000D01*
X42500000Y-101200000D02*
X42800000Y-100900000D01*
X183000000Y-39800000D02*
X188400000Y-39800000D01*
X114200000Y-69800000D02*
X115100000Y-70700000D01*
X163705025Y-48037007D02*
X163705025Y-47050000D01*
X41800000Y-96200000D02*
X41750000Y-96250000D01*
X237400406Y-95799594D02*
X237400406Y-99000406D01*
X254850000Y-62650000D02*
X255000000Y-62800000D01*
X41800000Y-115300000D02*
X38600000Y-115300000D01*
X117975000Y-46650000D02*
X114550000Y-46650000D01*
X220750062Y-94999938D02*
X221250000Y-94500000D01*
X60875000Y-96250000D02*
X60875000Y-91177032D01*
X39950000Y-96250000D02*
X39100000Y-97100000D01*
X234870000Y-88730000D02*
X234870000Y-93269188D01*
X163000000Y-62400000D02*
X164050000Y-62400000D01*
X162475000Y-73250000D02*
X161510812Y-73250000D01*
X42900000Y-109774466D02*
X41800000Y-110874466D01*
X116200000Y-84700000D02*
X114900000Y-86000000D01*
X119600000Y-58300000D02*
X119200000Y-58700000D01*
X100650000Y-82100000D02*
X100850000Y-81900000D01*
X234870000Y-93269188D02*
X237400406Y-95799594D01*
X137075000Y-54250000D02*
X136968010Y-54250000D01*
X137100000Y-87500000D02*
X137100000Y-92400000D01*
X200000000Y-82000000D02*
X202300000Y-82000000D01*
X100300000Y-49200000D02*
X100300000Y-52374466D01*
X38600000Y-115300000D02*
X37600000Y-116300000D01*
X177720000Y-59552283D02*
X177720000Y-62789188D01*
X58000000Y-99700000D02*
X58000000Y-105337968D01*
X61240000Y-88940000D02*
X60300000Y-88000000D01*
X114200000Y-44000000D02*
X113600000Y-43400000D01*
X95100000Y-80800000D02*
X96400000Y-82100000D01*
X257200000Y-95000000D02*
X257200000Y-95575000D01*
X61075000Y-77350000D02*
X58950000Y-77350000D01*
X56800000Y-80800000D02*
X58300000Y-82300000D01*
X81600000Y-64700000D02*
X79900000Y-66400000D01*
X76100000Y-88600000D02*
X77500000Y-90000000D01*
X133900000Y-74300000D02*
X133900000Y-77200000D01*
X95100000Y-78100000D02*
X95100000Y-80800000D01*
X160647968Y-84810000D02*
X158670000Y-86787968D01*
X199800000Y-65900000D02*
X196600000Y-69100000D01*
X114900000Y-86000000D02*
X114900000Y-88500000D01*
X200200000Y-77400000D02*
X200500000Y-77100000D01*
X196770000Y-47830000D02*
X196770000Y-55169188D01*
X237200000Y-58200000D02*
X238425000Y-58200000D01*
X163200000Y-77800000D02*
X163950000Y-77800000D01*
X133700000Y-96200000D02*
X135000000Y-97500000D01*
X39150000Y-77150000D02*
X41775000Y-77150000D01*
X257039339Y-81900000D02*
X259600000Y-81900000D01*
X165610000Y-84810000D02*
X163000000Y-84810000D01*
X43414466Y-90210000D02*
X41775000Y-91849466D01*
X216600000Y-80400000D02*
X215400000Y-81600000D01*
X119750000Y-58300000D02*
X119600000Y-58300000D01*
X179000000Y-64800000D02*
X179000000Y-69600000D01*
X99075000Y-72425000D02*
X99075000Y-77250000D01*
X218200000Y-71650000D02*
X218200000Y-75400000D01*
X161600000Y-62400000D02*
X161250000Y-62050000D01*
X76100000Y-86800000D02*
X76100000Y-88600000D01*
X60875000Y-53325000D02*
X60875000Y-58050000D01*
X217600000Y-55200000D02*
X219000000Y-56600000D01*
X62100000Y-51500000D02*
X61500000Y-52100000D01*
X218900000Y-70950000D02*
X219575000Y-70950000D01*
X61500000Y-51100000D02*
X60400000Y-50000000D01*
X161350000Y-78000000D02*
X161350000Y-76800000D01*
X61500000Y-52700000D02*
X60875000Y-53325000D01*
X176240000Y-41600000D02*
X176240000Y-42640000D01*
X162600000Y-43000000D02*
X165000000Y-43000000D01*
X135440380Y-57359620D02*
X134200000Y-58600000D01*
X236750000Y-77050000D02*
X236750000Y-79575000D01*
X202450000Y-43600000D02*
X202450000Y-45050000D01*
X256600000Y-86000000D02*
X253920000Y-88680000D01*
X222950000Y-55000000D02*
X224400000Y-55000000D01*
X201975735Y-63024265D02*
X202200000Y-62800000D01*
X257200000Y-95575000D02*
X257775000Y-96150000D01*
X39050000Y-58050000D02*
X38700000Y-58400000D01*
X200200000Y-44400000D02*
X201650000Y-44400000D01*
X239000000Y-100600000D02*
X239300000Y-100900000D01*
X181400000Y-65575000D02*
X181475000Y-65650000D01*
X49600000Y-52000000D02*
X43500000Y-52000000D01*
X161460812Y-92250000D02*
X161000000Y-92710812D01*
X117975000Y-42025000D02*
X117975000Y-46650000D01*
X77650000Y-51850000D02*
X75200000Y-49400000D01*
X52600000Y-82200000D02*
X51100000Y-83700000D01*
X111000000Y-67000000D02*
X107500000Y-70500000D01*
X94300000Y-59200000D02*
X92600000Y-60900000D01*
X258800000Y-102600000D02*
X258800000Y-101550000D01*
X56900000Y-79400000D02*
X55600000Y-79400000D01*
X256600406Y-114999594D02*
X256550000Y-115050000D01*
X215820000Y-67870000D02*
X218900000Y-70950000D01*
X179000000Y-69600000D02*
X179900000Y-70500000D01*
X180000000Y-50800000D02*
X182900000Y-50800000D01*
X100650000Y-44000000D02*
X100950000Y-43700000D01*
X202450000Y-45050000D02*
X205380000Y-47980000D01*
X56900000Y-79400000D02*
X56800000Y-79500000D01*
X134800000Y-92400000D02*
X133700000Y-93500000D01*
X236750000Y-77050000D02*
X238775000Y-77050000D01*
X114200000Y-67000000D02*
X114200000Y-69800000D01*
X181450000Y-84700000D02*
X180775000Y-84700000D01*
X55600000Y-79400000D02*
X54500000Y-80500000D01*
X256800000Y-77200000D02*
X256050000Y-77950000D01*
X199750812Y-58150000D02*
X200475000Y-58150000D01*
X58950000Y-77350000D02*
X56900000Y-79400000D01*
X82000000Y-44700000D02*
X79775000Y-46925000D01*
X205380000Y-47980000D02*
X207380000Y-47980000D01*
X73650000Y-94850000D02*
X73650000Y-97656878D01*
X76600000Y-71500000D02*
X76600000Y-74400000D01*
X43500000Y-83700000D02*
X42900000Y-83100000D01*
X218200000Y-75400000D02*
X218200000Y-75800000D01*
X58000000Y-105337968D02*
X61240000Y-108577968D01*
X39100000Y-100400000D02*
X39900000Y-101200000D01*
X120200000Y-57850000D02*
X119750000Y-58300000D01*
X77000000Y-52200000D02*
X77000000Y-55300000D01*
X182900000Y-50800000D02*
X183400000Y-51300000D01*
X135300000Y-78100000D02*
X135300000Y-78900000D01*
X119000000Y-70400000D02*
X119650000Y-70400000D01*
X135300000Y-78900000D02*
X137300000Y-80900000D01*
X88700000Y-64700000D02*
X81600000Y-64700000D01*
X59200000Y-100900000D02*
X58000000Y-99700000D01*
X57900000Y-99600000D02*
X57900000Y-96100000D01*
X236600000Y-77200000D02*
X236750000Y-77050000D01*
X137440000Y-62740000D02*
X137440000Y-68630000D01*
X41775000Y-91849466D02*
X41775000Y-96175000D01*
X78100000Y-70800000D02*
X74200000Y-66900000D01*
X115700000Y-65800000D02*
X115400000Y-65800000D01*
X77500000Y-90000000D02*
X79900000Y-90000000D01*
X91000000Y-62400000D02*
X88700000Y-64700000D01*
X114200000Y-67000000D02*
X111000000Y-67000000D01*
X37900000Y-78400000D02*
X39150000Y-77150000D01*
X245879188Y-52200000D02*
X248279188Y-54600000D01*
X180822283Y-56450000D02*
X177720000Y-59552283D01*
X162375000Y-52945000D02*
X161820025Y-52390025D01*
X83100000Y-44700000D02*
X82000000Y-44700000D01*
X258800000Y-102600000D02*
X253920000Y-107480000D01*
X58300000Y-82300000D02*
X62500000Y-82300000D01*
X62700000Y-102700000D02*
X62300000Y-102300000D01*
X98875000Y-53799466D02*
X98875000Y-58150000D01*
X61240000Y-110660000D02*
X60800000Y-111100000D01*
X255100000Y-62700000D02*
X259350000Y-62700000D01*
X161350000Y-76800000D02*
X161600000Y-76800000D01*
X136800000Y-62100000D02*
X138750000Y-62100000D01*
X199900000Y-38750000D02*
X199200000Y-39450000D01*
X253920000Y-112319188D02*
X256600406Y-114999594D01*
X61500000Y-52500000D02*
X61500000Y-52700000D01*
X244000000Y-52200000D02*
X245879188Y-52200000D01*
X159740000Y-43060000D02*
X156725000Y-43060000D01*
X41875000Y-53625000D02*
X41875000Y-58050000D01*
X255000000Y-62800000D02*
X255100000Y-62700000D01*
X256050000Y-77950000D02*
X256050000Y-80910661D01*
X101000000Y-70500000D02*
X99075000Y-72425000D01*
X60400000Y-50000000D02*
X55900000Y-50000000D01*
X161800000Y-73250000D02*
X162475000Y-73250000D01*
X72300000Y-66500000D02*
X70700000Y-66500000D01*
X43500000Y-52000000D02*
X41875000Y-53625000D01*
X179900000Y-70500000D02*
X183250000Y-70500000D01*
X42900000Y-82550000D02*
X43550000Y-81900000D01*
X162600000Y-43000000D02*
X162600000Y-45800000D01*
X219000000Y-75400000D02*
X219200000Y-75600000D01*
X219325000Y-51400000D02*
X219575000Y-51650000D01*
X114200000Y-46300000D02*
X113300000Y-47200000D01*
X62750000Y-100900000D02*
X59200000Y-100900000D01*
X75200000Y-49400000D02*
X69700000Y-49400000D01*
X199200000Y-43400000D02*
X200200000Y-44400000D01*
X96300000Y-59200000D02*
X96300000Y-62100000D01*
X60875000Y-58050000D02*
X58350000Y-58050000D01*
X56800000Y-79500000D02*
X56800000Y-80800000D01*
X77300000Y-70800000D02*
X76600000Y-71500000D01*
X200575000Y-38750000D02*
X199900000Y-38750000D01*
X42900000Y-102800000D02*
X42900000Y-109774466D01*
X51200000Y-50200000D02*
X51200000Y-50400000D01*
X161600000Y-76800000D02*
X161800000Y-77000000D01*
X62500000Y-82300000D02*
X62900000Y-81900000D01*
X70700000Y-66500000D02*
X66700000Y-70500000D01*
X159800000Y-43000000D02*
X162600000Y-43000000D01*
X256750812Y-115150000D02*
X257675000Y-115150000D01*
X239350000Y-119000000D02*
X240550000Y-120200000D01*
X237137500Y-114862500D02*
X237425000Y-115150000D01*
%TO.N,GND*%
D24*
X167825000Y-58136522D02*
X166050000Y-59911522D01*
X187800000Y-84063720D02*
X187800000Y-80000000D01*
X265900000Y-60200000D02*
X263550000Y-60200000D01*
X226800000Y-63000000D02*
X226800000Y-60600000D01*
D25*
X85225000Y-53350000D02*
X85225000Y-54575000D01*
X69700000Y-98600000D02*
X67200000Y-98600000D01*
X140650000Y-62100000D02*
X140650000Y-67264466D01*
D23*
X122000000Y-50100000D02*
X118465685Y-50100000D01*
D25*
X106750000Y-59650000D02*
X107800000Y-60700000D01*
D24*
X225525000Y-86393478D02*
X225525000Y-85125000D01*
D23*
X114699938Y-48699938D02*
X114200000Y-48200000D01*
D25*
X94380762Y-45000000D02*
X88050000Y-51330762D01*
X104325000Y-59650000D02*
X106750000Y-59650000D01*
D24*
X167825000Y-55650000D02*
X167825000Y-58136522D01*
D25*
X85225000Y-54575000D02*
X83300000Y-56500000D01*
D24*
X247768114Y-115031886D02*
X247768114Y-111577952D01*
X225200000Y-56800000D02*
X223450000Y-56800000D01*
D25*
X83900000Y-78700000D02*
X83540000Y-79060000D01*
D24*
X225025000Y-92625000D02*
X225025000Y-91150000D01*
X166050000Y-62300000D02*
X166050000Y-64750000D01*
D25*
X142425000Y-74750000D02*
X142425000Y-76425000D01*
X105600000Y-40300000D02*
X104800000Y-40300000D01*
D24*
X171038000Y-54148050D02*
X171038000Y-54638000D01*
X166050000Y-59911522D02*
X166050000Y-62300000D01*
D25*
X143144994Y-93330006D02*
X142525000Y-93950000D01*
X50880000Y-70239339D02*
X50880000Y-75595000D01*
D24*
X225200000Y-93151473D02*
X225200000Y-92800000D01*
X244775000Y-117400000D02*
X244025000Y-116650000D01*
D25*
X83300000Y-56500000D02*
X83300000Y-56887561D01*
X104600000Y-40500000D02*
X104600000Y-41950000D01*
X64000000Y-82900000D02*
X64000000Y-82700000D01*
X143550000Y-71189339D02*
X143550000Y-73731990D01*
D24*
X223450000Y-56800000D02*
X223250000Y-56600000D01*
D25*
X104600000Y-41950000D02*
X102850000Y-43700000D01*
D24*
X206980000Y-73268070D02*
X204911930Y-71200000D01*
D25*
X67200000Y-98600000D02*
X67200000Y-98525000D01*
D24*
X167925000Y-93750000D02*
X167925000Y-95525000D01*
X226800000Y-69200000D02*
X226000000Y-68400000D01*
D25*
X64750000Y-63000000D02*
X64550000Y-62800000D01*
D24*
X166114823Y-48350000D02*
X168000000Y-50235177D01*
D25*
X124050735Y-47524265D02*
X123425000Y-48150000D01*
D24*
X246600000Y-101600000D02*
X245000000Y-100000000D01*
D25*
X123832032Y-36550000D02*
X120450000Y-36550000D01*
D24*
X245200000Y-98400000D02*
X244775000Y-98400000D01*
X187800000Y-80000000D02*
X187200000Y-79400000D01*
D25*
X124700000Y-67700000D02*
X123800000Y-67700000D01*
D24*
X225025000Y-91150000D02*
X225061280Y-91150000D01*
D25*
X48250000Y-114868010D02*
X48250000Y-116400000D01*
D24*
X247200000Y-84800000D02*
X246600000Y-84200000D01*
X184600000Y-57969858D02*
X184600000Y-56400000D01*
D25*
X89300000Y-78700000D02*
X92200000Y-81600000D01*
D24*
X226800000Y-60600000D02*
X225800000Y-59600000D01*
D25*
X143350000Y-70989339D02*
X143550000Y-71189339D01*
X67741060Y-118407470D02*
X66248530Y-119900000D01*
X83540000Y-79060000D02*
X83540000Y-83814466D01*
X84200000Y-74800000D02*
X83500000Y-75500000D01*
D24*
X170050000Y-53650000D02*
X170257107Y-53650000D01*
X265200000Y-99625000D02*
X264787500Y-99212500D01*
D25*
X86280000Y-87719339D02*
X88050000Y-89489339D01*
X123600000Y-86200000D02*
X123600000Y-87550000D01*
D24*
X170750000Y-55650000D02*
X167825000Y-55650000D01*
X188400000Y-63238478D02*
X187930000Y-62768478D01*
X188800000Y-86200000D02*
X186900000Y-86200000D01*
D25*
X122600000Y-70200000D02*
X121750000Y-70200000D01*
D24*
X243200000Y-62600000D02*
X243600000Y-62200000D01*
D23*
X123425000Y-48150000D02*
X123599355Y-48150000D01*
D25*
X83300000Y-56887561D02*
X82112561Y-58075000D01*
X68800000Y-59500000D02*
X66300000Y-59500000D01*
D24*
X185250000Y-89600000D02*
X185150000Y-89500000D01*
X244225000Y-78550000D02*
X244900000Y-78550000D01*
X224800000Y-75600000D02*
X226000000Y-74400000D01*
D25*
X142531990Y-74750000D02*
X142425000Y-74750000D01*
D24*
X225025000Y-72450000D02*
X225061280Y-72450000D01*
X187200000Y-67425000D02*
X186925000Y-67150000D01*
X194800000Y-82200000D02*
X194600000Y-82400000D01*
D25*
X124740000Y-39429949D02*
X124740000Y-37457968D01*
X45350000Y-108370812D02*
X47871990Y-110892802D01*
D24*
X170938000Y-54738000D02*
X170938000Y-55278303D01*
X244025000Y-60975000D02*
X244025000Y-59550000D01*
X231800000Y-97000000D02*
X231400000Y-96600000D01*
X225200000Y-53325000D02*
X225025000Y-53150000D01*
X246800000Y-101600000D02*
X246600000Y-101600000D01*
D25*
X143208301Y-93330006D02*
X143144994Y-93330006D01*
D24*
X245800000Y-77650000D02*
X245800000Y-76800000D01*
D25*
X100158683Y-80376135D02*
X101226135Y-80376135D01*
D24*
X242250000Y-62600000D02*
X242050000Y-62800000D01*
X170257107Y-53650000D02*
X170307106Y-53700000D01*
D25*
X66500000Y-78875000D02*
X66525000Y-78850000D01*
X114200000Y-48200000D02*
X106600000Y-48200000D01*
X86400000Y-74800000D02*
X87100000Y-74800000D01*
X66161909Y-117633322D02*
X66425000Y-117370231D01*
X72686878Y-57300000D02*
X71000000Y-57300000D01*
D24*
X186600000Y-53000000D02*
X186600000Y-51600000D01*
D25*
X50880000Y-75595000D02*
X47875000Y-78600000D01*
D24*
X207025000Y-79575000D02*
X207025000Y-74243478D01*
X262000000Y-119200000D02*
X263125000Y-118075000D01*
D25*
X47300000Y-59500000D02*
X47300000Y-60950000D01*
D24*
X223795866Y-94555607D02*
X225200000Y-93151473D01*
X196200000Y-82200000D02*
X194800000Y-82200000D01*
X225061280Y-72450000D02*
X226800000Y-70711280D01*
D25*
X44518977Y-81200000D02*
X44750000Y-81200000D01*
X47871990Y-114490000D02*
X48250000Y-114868010D01*
D24*
X170307106Y-53700000D02*
X170589950Y-53700000D01*
X262000000Y-120400000D02*
X262000000Y-119200000D01*
D25*
X101226135Y-80376135D02*
X102750000Y-81900000D01*
X102850000Y-43700000D02*
X101550000Y-45000000D01*
X140400000Y-62350000D02*
X140650000Y-62100000D01*
D24*
X186600000Y-89600000D02*
X185250000Y-89600000D01*
X169000000Y-52600000D02*
X170050000Y-53650000D01*
X191107106Y-83000000D02*
X190100000Y-84007106D01*
X244900000Y-78550000D02*
X245800000Y-77650000D01*
X243000000Y-120200000D02*
X242450000Y-120200000D01*
D25*
X143550000Y-73731990D02*
X142531990Y-74750000D01*
X88050000Y-52110661D02*
X86810661Y-53350000D01*
D24*
X186936280Y-86200000D02*
X187975000Y-85161280D01*
X254686929Y-121225000D02*
X250700000Y-117238071D01*
X187930000Y-60470000D02*
X188000000Y-60400000D01*
X231800000Y-108200000D02*
X231800000Y-97000000D01*
D25*
X104525000Y-80675000D02*
X104525000Y-78750000D01*
X130850051Y-45540000D02*
X124740000Y-39429949D01*
D24*
X205000000Y-46000000D02*
X205000000Y-44250000D01*
X266100000Y-81900000D02*
X261500000Y-81900000D01*
D25*
X88050000Y-89489339D02*
X88050000Y-90110661D01*
D24*
X160400000Y-44600000D02*
X161600000Y-44600000D01*
D25*
X140650000Y-67264466D02*
X143350000Y-69964466D01*
X47200000Y-78600000D02*
X47200000Y-78700000D01*
X85400000Y-91500000D02*
X85400000Y-92750000D01*
X71000000Y-57300000D02*
X68800000Y-59500000D01*
X144300000Y-45587968D02*
X144300000Y-45900000D01*
D24*
X187930000Y-62768478D02*
X187930000Y-60470000D01*
D25*
X82112561Y-58075000D02*
X73461878Y-58075000D01*
X103497968Y-47980000D02*
X102590000Y-48887968D01*
D24*
X205400000Y-62600000D02*
X206600000Y-61400000D01*
D25*
X124740000Y-37457968D02*
X123832032Y-36550000D01*
X143100000Y-55299283D02*
X142975717Y-55299283D01*
X140750000Y-78100000D02*
X140750000Y-79150000D01*
D24*
X264787500Y-99212500D02*
X263225000Y-97650000D01*
D25*
X108400000Y-62800000D02*
X110695000Y-62800000D01*
D24*
X262000000Y-120400000D02*
X261600000Y-120400000D01*
X204700000Y-63400000D02*
X204100000Y-62800000D01*
D25*
X102750000Y-81900000D02*
X103850000Y-80800000D01*
D24*
X245080000Y-93248478D02*
X245080000Y-89720000D01*
D25*
X67950000Y-115068010D02*
X67950000Y-118198530D01*
D23*
X118465685Y-50100000D02*
X117065623Y-48699938D01*
D24*
X167600000Y-78200000D02*
X166250000Y-78200000D01*
D25*
X121550000Y-70400000D02*
X121550000Y-72450000D01*
D24*
X263125000Y-116650000D02*
X263800000Y-116650000D01*
X205400000Y-63400000D02*
X205400000Y-62600000D01*
X266800000Y-97200000D02*
X266800000Y-90600000D01*
X226800000Y-70711280D02*
X226800000Y-69200000D01*
D25*
X127100000Y-82500000D02*
X127100000Y-83800000D01*
X142525000Y-95725000D02*
X140750000Y-97500000D01*
D24*
X245000000Y-76000000D02*
X245000000Y-71400000D01*
X205600000Y-43600000D02*
X206200000Y-43000000D01*
X245400000Y-117400000D02*
X244775000Y-117400000D01*
D23*
X117065623Y-48699938D02*
X114699938Y-48699938D01*
D24*
X243600000Y-62200000D02*
X243600000Y-61400000D01*
X184175000Y-52425000D02*
X175425000Y-52425000D01*
D23*
X124175735Y-47524265D02*
X124050735Y-47524265D01*
D24*
X244800000Y-79600000D02*
X244800000Y-79125000D01*
D25*
X142975717Y-55299283D02*
X142525000Y-55750000D01*
D24*
X207025000Y-74243478D02*
X206980000Y-74198478D01*
X167925000Y-95525000D02*
X166250000Y-97200000D01*
D25*
X106550000Y-58100000D02*
X105000000Y-59650000D01*
D24*
X190100000Y-84007106D02*
X190100000Y-86100000D01*
X244025000Y-119175000D02*
X243000000Y-120200000D01*
X223200000Y-82800000D02*
X223200000Y-80000000D01*
X244025000Y-116650000D02*
X244025000Y-119175000D01*
X226400000Y-89811280D02*
X226400000Y-87268478D01*
D25*
X127100000Y-83800000D02*
X124700000Y-86200000D01*
D24*
X245000000Y-71400000D02*
X244800000Y-71200000D01*
X206400000Y-40625000D02*
X206025000Y-40250000D01*
X157560000Y-45600000D02*
X159400000Y-45600000D01*
X244000000Y-81800000D02*
X242450000Y-81800000D01*
X245800000Y-76800000D02*
X245000000Y-76000000D01*
X243600000Y-61400000D02*
X244025000Y-60975000D01*
X186900000Y-86927774D02*
X186627774Y-87200000D01*
D25*
X64800000Y-108400000D02*
X67171990Y-110771990D01*
X46700000Y-120100000D02*
X45400000Y-120100000D01*
X86400000Y-74800000D02*
X84200000Y-74800000D01*
D24*
X206950000Y-79600000D02*
X205950000Y-78600000D01*
X225525000Y-85125000D02*
X223200000Y-82800000D01*
X187975000Y-84238720D02*
X187800000Y-84063720D01*
X264787500Y-99212500D02*
X266800000Y-97200000D01*
X226000000Y-68400000D02*
X226000000Y-65400000D01*
X265200000Y-100600000D02*
X261650000Y-100600000D01*
X226000000Y-74400000D02*
X225800000Y-74200000D01*
D25*
X48200000Y-60400000D02*
X47300000Y-59500000D01*
D24*
X263800000Y-116650000D02*
X266800000Y-113650000D01*
D25*
X103850000Y-80800000D02*
X104400000Y-80800000D01*
D24*
X225800000Y-73225000D02*
X225025000Y-72450000D01*
X224600000Y-78600000D02*
X224800000Y-78600000D01*
D25*
X142425000Y-76425000D02*
X140750000Y-78100000D01*
D24*
X223200000Y-80000000D02*
X224600000Y-78600000D01*
X225200000Y-92800000D02*
X225025000Y-92625000D01*
D25*
X101550000Y-45000000D02*
X94380762Y-45000000D01*
X47125000Y-116850000D02*
X47125000Y-117725000D01*
D24*
X245080000Y-89720000D02*
X246000000Y-88800000D01*
X263550000Y-60200000D02*
X263050000Y-59700000D01*
X224400000Y-75600000D02*
X224800000Y-75600000D01*
D25*
X44750000Y-81200000D02*
X45450000Y-81900000D01*
X120450000Y-36550000D02*
X120000000Y-37000000D01*
X121550000Y-72450000D02*
X121600000Y-72500000D01*
X102700000Y-62800000D02*
X102600000Y-62700000D01*
D24*
X263050000Y-59700000D02*
X263050000Y-60900000D01*
X187975000Y-85161280D02*
X187975000Y-84238720D01*
X168000000Y-52600000D02*
X169000000Y-52600000D01*
X266200000Y-81625000D02*
X263325000Y-78750000D01*
X169200000Y-93000000D02*
X168675000Y-93000000D01*
X244800000Y-79125000D02*
X244225000Y-78550000D01*
X186600000Y-53000000D02*
X186600000Y-52600000D01*
X174842000Y-51842000D02*
X172058000Y-51842000D01*
D25*
X140750000Y-79150000D02*
X142300000Y-80700000D01*
X66500000Y-79800000D02*
X66500000Y-78875000D01*
X105289339Y-54763805D02*
X105289339Y-56128678D01*
D24*
X185300000Y-51300000D02*
X184175000Y-52425000D01*
D25*
X86810661Y-53350000D02*
X85225000Y-53350000D01*
D24*
X204350000Y-43600000D02*
X205600000Y-43600000D01*
X244000000Y-81800000D02*
X244000000Y-80400000D01*
X166114823Y-48285177D02*
X166694975Y-47705025D01*
X186900000Y-86200000D02*
X186900000Y-86927774D01*
D25*
X123600000Y-87550000D02*
X121650000Y-89500000D01*
D24*
X263050000Y-60900000D02*
X261250000Y-62700000D01*
X263125000Y-118075000D02*
X263125000Y-116650000D01*
X267000000Y-81200000D02*
X267000000Y-73897057D01*
X187400000Y-49000000D02*
X187400000Y-48525000D01*
X245200000Y-93368478D02*
X245080000Y-93248478D01*
X204600000Y-66000000D02*
X205800000Y-66000000D01*
D25*
X48200000Y-97000000D02*
X47500000Y-97700000D01*
X87100000Y-74800000D02*
X88100000Y-75800000D01*
D24*
X187400000Y-48525000D02*
X186925000Y-48050000D01*
X175425000Y-52425000D02*
X174842000Y-51842000D01*
X206950000Y-59650000D02*
X205925000Y-59650000D01*
D25*
X66300000Y-59500000D02*
X66300000Y-60600000D01*
D24*
X188400000Y-66350000D02*
X188400000Y-63238478D01*
X206400000Y-41600000D02*
X206400000Y-40625000D01*
X206400000Y-54030000D02*
X205040000Y-52670000D01*
D25*
X142412032Y-43700000D02*
X144300000Y-45587968D01*
X88050000Y-90110661D02*
X86660661Y-91500000D01*
D24*
X243200000Y-62600000D02*
X242250000Y-62600000D01*
D25*
X47300000Y-60950000D02*
X45550000Y-62700000D01*
D24*
X266200000Y-82000000D02*
X266100000Y-81900000D01*
D25*
X105289339Y-56128678D02*
X106550000Y-57389339D01*
D24*
X167600000Y-78200000D02*
X167925000Y-77875000D01*
X243050000Y-101600000D02*
X242350000Y-100900000D01*
X187200000Y-70500000D02*
X187200000Y-67425000D01*
X225800000Y-74200000D02*
X225800000Y-73225000D01*
D25*
X67200000Y-98525000D02*
X66425000Y-97750000D01*
X67171990Y-110771990D02*
X67171990Y-114290000D01*
D24*
X270400000Y-70497057D02*
X270400000Y-61000000D01*
X184600000Y-56400000D02*
X185600000Y-55400000D01*
X265200000Y-100600000D02*
X265200000Y-99625000D01*
D25*
X106600000Y-48200000D02*
X106380000Y-47980000D01*
D24*
X266800000Y-113650000D02*
X266800000Y-109200000D01*
X266200000Y-82000000D02*
X267000000Y-81200000D01*
X205400000Y-63400000D02*
X204700000Y-63400000D01*
D25*
X73461878Y-58075000D02*
X72686878Y-57300000D01*
D24*
X266200000Y-82000000D02*
X266200000Y-81625000D01*
X245400000Y-117400000D02*
X247768114Y-115031886D01*
X267000000Y-73897057D02*
X270400000Y-70497057D01*
D25*
X83540000Y-83814466D02*
X86280000Y-86554466D01*
D24*
X223205607Y-94555607D02*
X223150000Y-94500000D01*
X207000000Y-79600000D02*
X206950000Y-79600000D01*
D25*
X47875000Y-78600000D02*
X47200000Y-78600000D01*
D23*
X123425000Y-47917096D02*
X123425000Y-48675000D01*
D25*
X104800000Y-40300000D02*
X104600000Y-40500000D01*
D24*
X207000000Y-79600000D02*
X207025000Y-79575000D01*
D25*
X86660661Y-91500000D02*
X85400000Y-91500000D01*
D24*
X244000000Y-80400000D02*
X244800000Y-79600000D01*
D25*
X48250000Y-116400000D02*
X47800000Y-116850000D01*
X47250000Y-97700000D02*
X47250000Y-99000000D01*
D24*
X207600000Y-59000000D02*
X206950000Y-59650000D01*
X168000000Y-50235177D02*
X168000000Y-52600000D01*
D25*
X102590000Y-52064466D02*
X105289339Y-54763805D01*
D24*
X159400000Y-45600000D02*
X160400000Y-44600000D01*
X206400000Y-56200000D02*
X206400000Y-54030000D01*
X245200000Y-98400000D02*
X245200000Y-93368478D01*
D25*
X48530000Y-69770000D02*
X50410661Y-69770000D01*
X47871990Y-110892802D02*
X47871990Y-114490000D01*
D24*
X206600000Y-61400000D02*
X206600000Y-60325000D01*
D25*
X105000000Y-59650000D02*
X104325000Y-59650000D01*
X102590000Y-48887968D02*
X102590000Y-52064466D01*
D24*
X205000000Y-44250000D02*
X204350000Y-43600000D01*
D25*
X106550000Y-57389339D02*
X106550000Y-58100000D01*
X46800000Y-71500000D02*
X48530000Y-69770000D01*
X86280000Y-86554466D02*
X86280000Y-87719339D01*
X48200000Y-60900000D02*
X48200000Y-60400000D01*
X132060000Y-45540000D02*
X130850051Y-45540000D01*
D24*
X187600000Y-67150000D02*
X188400000Y-66350000D01*
D25*
X88050000Y-51330762D02*
X88050000Y-52110661D01*
X66300000Y-60600000D02*
X66100000Y-60800000D01*
X64800000Y-81900000D02*
X65900000Y-81900000D01*
X45350000Y-100900000D02*
X45350000Y-108370812D01*
D24*
X186000000Y-73800000D02*
X186000000Y-73000000D01*
X205800000Y-82200000D02*
X204400000Y-82200000D01*
X167925000Y-77875000D02*
X167925000Y-74750000D01*
X186000000Y-73000000D02*
X187000000Y-72000000D01*
D25*
X66425000Y-117370231D02*
X66425000Y-116650000D01*
D24*
X246800000Y-101600000D02*
X243050000Y-101600000D01*
D25*
X66950000Y-98600000D02*
X64650000Y-100900000D01*
X85400000Y-92750000D02*
X83550000Y-94600000D01*
D24*
X192100000Y-83000000D02*
X191107106Y-83000000D01*
X171038000Y-54638000D02*
X170938000Y-54738000D01*
X206980000Y-74198478D02*
X206980000Y-73268070D01*
D25*
X104400000Y-80800000D02*
X104525000Y-80675000D01*
D24*
X246000000Y-88800000D02*
X246200000Y-88800000D01*
D25*
X135100000Y-43700000D02*
X142412032Y-43700000D01*
X83900000Y-78700000D02*
X89300000Y-78700000D01*
D24*
X171038000Y-55362000D02*
X170750000Y-55650000D01*
D25*
X47500000Y-97700000D02*
X47250000Y-97700000D01*
X65900000Y-81900000D02*
X66800000Y-81000000D01*
D24*
X190100000Y-86100000D02*
X190200000Y-86200000D01*
X223795866Y-94555607D02*
X223205607Y-94555607D01*
X170589950Y-53700000D02*
X171038000Y-54148050D01*
X244775000Y-98400000D02*
X244025000Y-97650000D01*
D25*
X86700000Y-71200000D02*
X85600000Y-72300000D01*
D23*
X123425000Y-48675000D02*
X122000000Y-50100000D01*
D24*
X168675000Y-93000000D02*
X167925000Y-93750000D01*
X186600000Y-52600000D02*
X185300000Y-51300000D01*
X202000000Y-68600000D02*
X204600000Y-66000000D01*
D25*
X123800000Y-67700000D02*
X123400000Y-67300000D01*
D24*
X186600000Y-51600000D02*
X187600000Y-50600000D01*
D25*
X67171990Y-114290000D02*
X67950000Y-115068010D01*
X143350000Y-69964466D02*
X143350000Y-70989339D01*
X121750000Y-70200000D02*
X121550000Y-70400000D01*
X104100000Y-62800000D02*
X102700000Y-62800000D01*
X67950000Y-118198530D02*
X67741060Y-118407470D01*
X66248530Y-119900000D02*
X64650000Y-119900000D01*
X50410661Y-69770000D02*
X50880000Y-70239339D01*
D24*
X226400000Y-87268478D02*
X225525000Y-86393478D01*
X187200000Y-70500000D02*
X185150000Y-70500000D01*
D25*
X69794975Y-98505025D02*
X69700000Y-98600000D01*
X64000000Y-82700000D02*
X64800000Y-81900000D01*
D24*
X186925000Y-67150000D02*
X187600000Y-67150000D01*
X166114823Y-48350000D02*
X166114823Y-48285177D01*
D25*
X142525000Y-93950000D02*
X142525000Y-95725000D01*
D24*
X204400000Y-82200000D02*
X204200000Y-82000000D01*
X261300000Y-120100000D02*
X260175000Y-121225000D01*
D25*
X47250000Y-99000000D02*
X45350000Y-100900000D01*
D24*
X225061280Y-91150000D02*
X226400000Y-89811280D01*
D25*
X124700000Y-86200000D02*
X123600000Y-86200000D01*
D24*
X261600000Y-120400000D02*
X261300000Y-120100000D01*
D25*
X106380000Y-47980000D02*
X103497968Y-47980000D01*
X140400000Y-63600000D02*
X140400000Y-62350000D01*
D24*
X261650000Y-100600000D02*
X261450000Y-100800000D01*
D25*
X47800000Y-116850000D02*
X47125000Y-116850000D01*
D24*
X246600000Y-84200000D02*
X242600000Y-84200000D01*
D25*
X67200000Y-98600000D02*
X66950000Y-98600000D01*
D24*
X172058000Y-51842000D02*
X171700000Y-52200000D01*
X225200000Y-56800000D02*
X225200000Y-53325000D01*
X260175000Y-121225000D02*
X254686929Y-121225000D01*
X206600000Y-60325000D02*
X205925000Y-59650000D01*
D25*
X65900000Y-63000000D02*
X64750000Y-63000000D01*
X47125000Y-117725000D02*
X47300000Y-117900000D01*
D24*
X224400000Y-75600000D02*
X223250000Y-75600000D01*
D25*
X85600000Y-72300000D02*
X85400000Y-72300000D01*
D24*
X186900000Y-86200000D02*
X186936280Y-86200000D01*
X166050000Y-64750000D02*
X165600000Y-65200000D01*
%TO.N,/Right Sheet/ROW2*%
X128700000Y-59600000D02*
X128700000Y-53300000D01*
X136200000Y-59700000D02*
X134700000Y-61200000D01*
X112500000Y-56500000D02*
X112500000Y-62200000D01*
X143900000Y-59700000D02*
X136200000Y-59700000D01*
X148500000Y-91300000D02*
X149751000Y-90049000D01*
X53200000Y-61100000D02*
X53200000Y-58720000D01*
X72400000Y-62900000D02*
X70900000Y-64400000D01*
X90300000Y-59800000D02*
X76100000Y-59800000D01*
X70300000Y-87200000D02*
X70300000Y-96000000D01*
X53200000Y-58720000D02*
X53200000Y-61900000D01*
X112500000Y-62200000D02*
X109100000Y-65600000D01*
X53200000Y-61900000D02*
X49700000Y-65400000D01*
X147300000Y-53160000D02*
X146140000Y-53160000D01*
X146140000Y-53160000D02*
X144400000Y-54900000D01*
X56500000Y-64400000D02*
X53200000Y-61100000D01*
X67900000Y-84800000D02*
X70300000Y-87200000D01*
X70300000Y-96000000D02*
X71210000Y-96910000D01*
X36100000Y-83300000D02*
X37600000Y-84800000D01*
X148500000Y-93320000D02*
X148500000Y-91300000D01*
X49700000Y-65400000D02*
X36100000Y-65400000D01*
X130300000Y-61200000D02*
X128700000Y-59600000D01*
X128700000Y-53300000D02*
X127200000Y-51800000D01*
X127200000Y-51800000D02*
X124810000Y-51800000D01*
X96100000Y-65600000D02*
X90300000Y-59800000D01*
X37600000Y-84800000D02*
X67900000Y-84800000D01*
X144400000Y-54900000D02*
X144400000Y-59200000D01*
X144400000Y-59200000D02*
X143900000Y-59700000D01*
X71210000Y-96910000D02*
X72300000Y-96910000D01*
X124810000Y-51800000D02*
X122210000Y-54400000D01*
X134700000Y-61200000D02*
X130300000Y-61200000D01*
X36100000Y-65400000D02*
X36100000Y-83300000D01*
X70900000Y-64400000D02*
X56500000Y-64400000D01*
X149751000Y-54776000D02*
X148135000Y-53160000D01*
X149751000Y-90049000D02*
X149751000Y-54776000D01*
X109100000Y-65600000D02*
X96100000Y-65600000D01*
X72400000Y-59110000D02*
X72400000Y-62900000D01*
X122210000Y-54400000D02*
X114600000Y-54400000D01*
X114600000Y-54400000D02*
X112500000Y-56500000D01*
%TO.N,Net-(D78-DOUT)*%
D23*
X47125000Y-111111598D02*
X47125000Y-115350000D01*
X43934744Y-99875000D02*
X44550000Y-100490256D01*
X44550000Y-108536598D02*
X47125000Y-111111598D01*
X41800000Y-97700000D02*
X41800000Y-98268370D01*
X44550000Y-100490256D02*
X44550000Y-108536598D01*
X41800000Y-98268370D02*
X43406630Y-99875000D01*
X43406630Y-99875000D02*
X43934744Y-99875000D01*
%TO.N,Net-(D79-DOUT)*%
X43375000Y-119075000D02*
X57575000Y-119075000D01*
X41675000Y-116850000D02*
X41675000Y-117375000D01*
X64508446Y-118400000D02*
X66900000Y-118400000D01*
X66900000Y-118400000D02*
X67400000Y-117900000D01*
X67400000Y-117900000D02*
X67400000Y-116125000D01*
X67400000Y-116125000D02*
X66425000Y-115150000D01*
X63600000Y-121000000D02*
X63800000Y-120800000D01*
X63800000Y-119108446D02*
X64508446Y-118400000D01*
X57575000Y-119075000D02*
X59500000Y-121000000D01*
X59500000Y-121000000D02*
X63600000Y-121000000D01*
X41675000Y-117375000D02*
X43375000Y-119075000D01*
X63800000Y-120800000D02*
X63800000Y-119108446D01*
%TO.N,/LEft Sheet/ROW3*%
D24*
X171300000Y-71992894D02*
X171300000Y-73310050D01*
X192200000Y-91400000D02*
X193200000Y-90400000D01*
X193700000Y-75148528D02*
X194600000Y-74248528D01*
X171500000Y-74089950D02*
X171089950Y-74500000D01*
X171480000Y-50920000D02*
X171480000Y-51338478D01*
X171400000Y-61010050D02*
X171500000Y-61110050D01*
X193889950Y-83300000D02*
X193800000Y-83300000D01*
X194600000Y-74248528D02*
X194600000Y-73689950D01*
X194300000Y-78687057D02*
X194300000Y-77692943D01*
X171500000Y-61110050D02*
X171500000Y-61689950D01*
X271200000Y-96400000D02*
X270300000Y-97300000D01*
X171400000Y-57951472D02*
X171400000Y-61010050D01*
X230600000Y-58400000D02*
X231200000Y-57800000D01*
X211900000Y-59510000D02*
X211900000Y-58500000D01*
X171500000Y-76489950D02*
X171089950Y-76900000D01*
X171189950Y-57100000D02*
X171000000Y-57100000D01*
X171000000Y-70868478D02*
X171000000Y-71692894D01*
X193200000Y-76990000D02*
X193200000Y-75700000D01*
X171000000Y-75500000D02*
X171089950Y-75500000D01*
X171500000Y-75910050D02*
X171500000Y-76489950D01*
X171638000Y-55610528D02*
X171369239Y-55879289D01*
X171000000Y-76900000D02*
X171000000Y-82190000D01*
X193800000Y-83300000D02*
X193800000Y-79187057D01*
X211900000Y-58500000D02*
X212000000Y-58400000D01*
X171000000Y-53151472D02*
X171638000Y-53789472D01*
X171600000Y-56110050D02*
X171600000Y-56689950D01*
X173800000Y-84990000D02*
X175390000Y-84990000D01*
X173635000Y-50680000D02*
X171720000Y-50680000D01*
X194589950Y-72300000D02*
X194300000Y-72300000D01*
X231200000Y-48600000D02*
X235200000Y-44600000D01*
X176200000Y-90800000D02*
X176800000Y-91400000D01*
X231200000Y-57800000D02*
X231200000Y-53310000D01*
X193100000Y-85810000D02*
X193590000Y-85810000D01*
X194000000Y-85400000D02*
X194000000Y-84589950D01*
X176800000Y-91400000D02*
X192200000Y-91400000D01*
X171000000Y-74500000D02*
X171000000Y-75500000D01*
X171600000Y-56689950D02*
X171189950Y-57100000D01*
X171720000Y-50680000D02*
X171480000Y-50920000D01*
X171000000Y-51818478D02*
X171000000Y-53151472D01*
X171369239Y-55879289D02*
X171600000Y-56110050D01*
X171000000Y-57100000D02*
X171000000Y-57551472D01*
X193700000Y-75289950D02*
X193700000Y-75148528D01*
X195000000Y-72710050D02*
X194589950Y-72300000D01*
X171000000Y-71692894D02*
X171300000Y-71992894D01*
X210800000Y-65200000D02*
X211900000Y-64100000D01*
X175390000Y-84990000D02*
X176200000Y-85800000D01*
X193100000Y-90300000D02*
X193100000Y-85810000D01*
X176200000Y-85800000D02*
X176200000Y-90800000D01*
X231200000Y-53310000D02*
X231200000Y-48600000D01*
X194000000Y-84589950D02*
X194300000Y-84289950D01*
X171480000Y-69311522D02*
X171480000Y-70388478D01*
X195000000Y-73289950D02*
X195000000Y-72710050D01*
X193590000Y-85810000D02*
X194000000Y-85400000D01*
X211900000Y-64100000D02*
X211900000Y-59510000D01*
X171638000Y-53789472D02*
X171638000Y-55610528D01*
X194300000Y-72300000D02*
X194300000Y-67100000D01*
X171500000Y-73510050D02*
X171500000Y-74089950D01*
X171089950Y-75500000D02*
X171500000Y-75910050D01*
X171480000Y-51338478D02*
X171000000Y-51818478D01*
X171000000Y-82190000D02*
X173800000Y-84990000D01*
X269400000Y-44600000D02*
X271200000Y-46400000D01*
X271200000Y-46400000D02*
X271200000Y-96400000D01*
X193289950Y-75700000D02*
X193700000Y-75289950D01*
X235200000Y-44600000D02*
X269400000Y-44600000D01*
X270300000Y-97300000D02*
X269400000Y-97300000D01*
X171000000Y-68831522D02*
X171480000Y-69311522D01*
X171480000Y-70388478D02*
X171000000Y-70868478D01*
X194300000Y-84289950D02*
X194300000Y-83710050D01*
X193200000Y-90400000D02*
X193100000Y-90300000D01*
X171300000Y-73310050D02*
X171500000Y-73510050D01*
X194300000Y-83710050D02*
X193889950Y-83300000D01*
X196200000Y-65200000D02*
X210800000Y-65200000D01*
X171000000Y-62100000D02*
X171000000Y-68831522D01*
X171089950Y-62100000D02*
X171000000Y-62100000D01*
X194300000Y-77692943D02*
X193597057Y-76990000D01*
X214200000Y-58400000D02*
X230600000Y-58400000D01*
X194600000Y-73689950D02*
X195000000Y-73289950D01*
X171089950Y-74500000D02*
X171000000Y-74500000D01*
X171089950Y-76900000D02*
X171000000Y-76900000D01*
X171000000Y-57551472D02*
X171400000Y-57951472D01*
X193800000Y-79187057D02*
X194300000Y-78687057D01*
X194300000Y-67100000D02*
X196200000Y-65200000D01*
X171500000Y-61689950D02*
X171089950Y-62100000D01*
X193200000Y-75700000D02*
X193289950Y-75700000D01*
X193597057Y-76990000D02*
X193200000Y-76990000D01*
%TO.N,/Right Sheet/ROW3*%
X111900000Y-39500000D02*
X111900000Y-43810050D01*
X91600000Y-71810000D02*
X91600000Y-75500000D01*
X129400000Y-33700000D02*
X128400000Y-32700000D01*
X114300000Y-32700000D02*
X112000000Y-35000000D01*
X82973834Y-76625000D02*
X82848834Y-76500000D01*
D23*
X147300000Y-62700000D02*
X147900000Y-62100000D01*
D24*
X112000000Y-35000000D02*
X112000000Y-39400000D01*
X84026166Y-76625000D02*
X82973834Y-76625000D01*
X129400000Y-38400000D02*
X129400000Y-33700000D01*
X150000000Y-50200000D02*
X150000000Y-41300000D01*
X80948834Y-76500000D02*
X74700000Y-76500000D01*
X148135000Y-50620000D02*
X149580000Y-50620000D01*
X73415025Y-76704975D02*
X72200000Y-77920000D01*
X147800000Y-41100000D02*
X147200000Y-41700000D01*
X132700000Y-41700000D02*
X129400000Y-38400000D01*
X81073834Y-76625000D02*
X80948834Y-76500000D01*
X84151166Y-76500000D02*
X84026166Y-76625000D01*
X82848834Y-76500000D02*
X82251166Y-76500000D01*
D23*
X148400000Y-74710000D02*
X147300000Y-73610000D01*
D24*
X147200000Y-41700000D02*
X132700000Y-41700000D01*
X111900000Y-43810050D02*
X110655025Y-45055025D01*
X74289950Y-77000000D02*
X73710050Y-77000000D01*
X149800000Y-41100000D02*
X147800000Y-41100000D01*
X112000000Y-39400000D02*
X111900000Y-39500000D01*
X74700000Y-76589950D02*
X74289950Y-77000000D01*
X150000000Y-41300000D02*
X149800000Y-41100000D01*
X74700000Y-76500000D02*
X74700000Y-76589950D01*
X110400000Y-40110000D02*
X111010000Y-39500000D01*
X149580000Y-50620000D02*
X150000000Y-50200000D01*
D23*
X147300000Y-73610000D02*
X147300000Y-62700000D01*
D24*
X82251166Y-76500000D02*
X82126166Y-76625000D01*
X111900000Y-39500000D02*
X111010000Y-39500000D01*
X149880000Y-50620000D02*
X148135000Y-50620000D01*
X73710050Y-77000000D02*
X73415025Y-76704975D01*
X90600000Y-76500000D02*
X84151166Y-76500000D01*
X82126166Y-76625000D02*
X81073834Y-76625000D01*
X91600000Y-75500000D02*
X90600000Y-76500000D01*
X128400000Y-32700000D02*
X114300000Y-32700000D01*
%TO.N,/LEft Sheet/ROW2*%
X184623834Y-71625000D02*
X185676166Y-71625000D01*
X269200000Y-84600000D02*
X269100000Y-84500000D01*
X183776166Y-71625000D02*
X184150000Y-71251166D01*
X176400000Y-64400000D02*
X175110000Y-65690000D01*
X193100000Y-67410000D02*
X195910000Y-64600000D01*
X249673834Y-57810000D02*
X251326166Y-57810000D01*
X184150000Y-71200000D02*
X184250000Y-71200000D01*
X210600000Y-64200000D02*
X210800000Y-64000000D01*
X176800000Y-64800000D02*
X176800000Y-71200000D01*
X173635000Y-53220000D02*
X175580000Y-53220000D01*
X229000000Y-76800000D02*
X229800000Y-76000000D01*
X184150000Y-71251166D02*
X184150000Y-71200000D01*
X176800000Y-71200000D02*
X182350000Y-71200000D01*
X230283834Y-71200000D02*
X232800000Y-71200000D01*
X214100000Y-65200000D02*
X214100000Y-76300000D01*
X210000000Y-64600000D02*
X210000000Y-64200000D01*
X185676166Y-71625000D02*
X186050000Y-71251166D01*
X252000000Y-85200000D02*
X252000000Y-95400000D01*
X214100000Y-76300000D02*
X214600000Y-76800000D01*
X252000000Y-58483834D02*
X252000000Y-85200000D01*
X248400000Y-65600000D02*
X248400000Y-59083834D01*
X192200000Y-71200000D02*
X193100000Y-70300000D01*
X176400000Y-54040000D02*
X176400000Y-64400000D01*
X195910000Y-64600000D02*
X210000000Y-64600000D01*
X251326166Y-57810000D02*
X252000000Y-58483834D01*
X175580000Y-53220000D02*
X176400000Y-54040000D01*
X182350000Y-71200000D02*
X182350000Y-71251166D01*
X193100000Y-70300000D02*
X193100000Y-67410000D01*
X229800000Y-71683834D02*
X230283834Y-71200000D01*
X182723834Y-71625000D02*
X183776166Y-71625000D01*
X182350000Y-71251166D02*
X182723834Y-71625000D01*
X229800000Y-76000000D02*
X229800000Y-71683834D01*
X252000000Y-85200000D02*
X268600000Y-85200000D01*
X232800000Y-71200000D02*
X232800000Y-66551472D01*
X252000000Y-95400000D02*
X250690000Y-96710000D01*
X186050000Y-71200000D02*
X192200000Y-71200000D01*
X248400000Y-59083834D02*
X249673834Y-57810000D01*
X232800000Y-66551472D02*
X233751472Y-65600000D01*
X214600000Y-76800000D02*
X229000000Y-76800000D01*
X250690000Y-96710000D02*
X250000000Y-96710000D01*
X184250000Y-71251166D02*
X184623834Y-71625000D01*
X233751472Y-65600000D02*
X248400000Y-65600000D01*
X176400000Y-64400000D02*
X176800000Y-64800000D01*
X184250000Y-71200000D02*
X184250000Y-71251166D01*
X210000000Y-64200000D02*
X210000000Y-42210000D01*
X175110000Y-65690000D02*
X174000000Y-65690000D01*
X186050000Y-71251166D02*
X186050000Y-71200000D01*
X269100000Y-84500000D02*
X269100000Y-77720000D01*
X210000000Y-64200000D02*
X210600000Y-64200000D01*
X268600000Y-85200000D02*
X269200000Y-84600000D01*
X210000000Y-42210000D02*
X211900000Y-40310000D01*
%TO.N,Net-(D38-DOUT)*%
D23*
X257775000Y-101960635D02*
X249175635Y-110560000D01*
X257775000Y-97650000D02*
X257775000Y-101960635D01*
X244025000Y-112417944D02*
X244025000Y-115150000D01*
X249175635Y-110560000D02*
X245882944Y-110560000D01*
X245882944Y-110560000D02*
X244025000Y-112417944D01*
%TO.N,Net-(D39-DOUT)*%
X239400000Y-121400000D02*
X248400000Y-121400000D01*
X248400000Y-121400000D02*
X249000000Y-120800000D01*
X263400000Y-114875000D02*
X263125000Y-115150000D01*
X238575000Y-116650000D02*
X238575000Y-120575000D01*
X238575000Y-120575000D02*
X239400000Y-121400000D01*
X263400000Y-113800000D02*
X263400000Y-114875000D01*
%TO.N,/Right Sheet/ROW1*%
D24*
X146200000Y-55700000D02*
X145100000Y-56800000D01*
X56000000Y-83700000D02*
X70400000Y-83700000D01*
X110900000Y-45800000D02*
X112900000Y-43800000D01*
X56500000Y-65600000D02*
X71800000Y-65600000D01*
X93800000Y-83200000D02*
X93500000Y-82900000D01*
X93800000Y-51200000D02*
X93800000Y-46500000D01*
X89500000Y-77800000D02*
X93500000Y-81800000D01*
X74400000Y-59800000D02*
X75200000Y-59000000D01*
X53400000Y-78210000D02*
X53400000Y-81100000D01*
X70400000Y-83700000D02*
X76300000Y-77800000D01*
X113200000Y-73700000D02*
X113200000Y-81500000D01*
X91880000Y-91320000D02*
X91400000Y-91320000D01*
X54290000Y-78210000D02*
X55800000Y-76700000D01*
X129200000Y-70310000D02*
X126310000Y-73200000D01*
X112900000Y-43800000D02*
X112900000Y-35100000D01*
X93500000Y-82900000D02*
X93100000Y-83300000D01*
X91400000Y-52510000D02*
X92490000Y-52510000D01*
X92700000Y-83300000D02*
X92600000Y-83400000D01*
X94500000Y-45800000D02*
X110900000Y-45800000D01*
X147300000Y-55700000D02*
X146200000Y-55700000D01*
X144600000Y-61000000D02*
X142200000Y-61000000D01*
X55800000Y-76700000D02*
X55800000Y-66300000D01*
X93500000Y-81800000D02*
X93500000Y-82900000D01*
X92600000Y-90600000D02*
X91880000Y-91320000D01*
X141600000Y-60400000D02*
X136800000Y-60400000D01*
X55800000Y-66300000D02*
X56500000Y-65600000D01*
X74400000Y-63000000D02*
X74400000Y-59800000D01*
X71800000Y-65600000D02*
X74400000Y-63000000D01*
X114100000Y-33900000D02*
X116580000Y-33900000D01*
X111500000Y-83200000D02*
X93800000Y-83200000D01*
X84523222Y-77825000D02*
X84548222Y-77800000D01*
X80551778Y-77800000D02*
X80576778Y-77825000D01*
X145100000Y-56800000D02*
X145100000Y-60500000D01*
X92600000Y-83400000D02*
X92600000Y-90600000D01*
X131900000Y-65300000D02*
X131900000Y-70200000D01*
X113700000Y-73200000D02*
X113200000Y-73700000D01*
X93800000Y-46500000D02*
X94500000Y-45800000D01*
X75200000Y-59000000D02*
X89400000Y-59000000D01*
X145100000Y-60500000D02*
X144600000Y-61000000D01*
X142200000Y-61000000D02*
X141600000Y-60400000D01*
X131900000Y-70200000D02*
X131790000Y-70310000D01*
X84548222Y-77800000D02*
X89500000Y-77800000D01*
X92490000Y-52510000D02*
X93800000Y-51200000D01*
X53400000Y-78210000D02*
X54290000Y-78210000D01*
X126310000Y-73200000D02*
X113700000Y-73200000D01*
X136800000Y-60400000D02*
X131900000Y-65300000D01*
X89400000Y-59000000D02*
X91400000Y-57000000D01*
X112900000Y-35100000D02*
X114100000Y-33900000D01*
X76300000Y-77800000D02*
X80551778Y-77800000D01*
X91400000Y-57000000D02*
X91400000Y-52510000D01*
X93100000Y-83300000D02*
X92700000Y-83300000D01*
X113200000Y-81500000D02*
X111500000Y-83200000D01*
X131790000Y-70310000D02*
X129200000Y-70310000D01*
X80576778Y-77825000D02*
X84523222Y-77825000D01*
X53400000Y-81100000D02*
X56000000Y-83700000D01*
%TO.N,/LEft Sheet/DIN*%
D23*
X171738000Y-47497000D02*
X171738000Y-48579895D01*
X171738000Y-48579895D02*
X172776105Y-49618000D01*
X172776105Y-49618000D02*
X187818000Y-49618000D01*
X188800000Y-49000000D02*
X188800000Y-46800000D01*
X187818000Y-49618000D02*
X188000000Y-49800000D01*
X188000000Y-49800000D02*
X188800000Y-49000000D01*
X188800000Y-46800000D02*
X187175000Y-46800000D01*
X187175000Y-46800000D02*
X186925000Y-46550000D01*
X173635000Y-45600000D02*
X171738000Y-47497000D01*
%TO.N,Net-(D21-DOUT)*%
X195400000Y-40800000D02*
X195400000Y-39882445D01*
X206600000Y-38175000D02*
X206025000Y-38750000D01*
X181475000Y-48050000D02*
X180500000Y-47075000D01*
X204173402Y-33055847D02*
X206600000Y-35482445D01*
X192430000Y-40830000D02*
X192800000Y-41200000D01*
X183176598Y-40830000D02*
X192430000Y-40830000D01*
X180500000Y-47075000D02*
X180500000Y-43506598D01*
X195400000Y-39882445D02*
X202226598Y-33055847D01*
X206600000Y-35482445D02*
X206600000Y-38175000D01*
X202226598Y-33055847D02*
X204173402Y-33055847D01*
X180500000Y-43506598D02*
X183176598Y-40830000D01*
%TO.N,/LEft Sheet/ROW1*%
D24*
X194000000Y-46312943D02*
X194000000Y-40390000D01*
X175160000Y-55760000D02*
X175400000Y-55520000D01*
X175400000Y-55520000D02*
X175400000Y-55200000D01*
X231100000Y-95300000D02*
X231100000Y-91410000D01*
X193200000Y-39590000D02*
X192390000Y-39590000D01*
X191600000Y-35800000D02*
X188200000Y-35800000D01*
X230000000Y-96400000D02*
X231100000Y-95300000D01*
X231180000Y-91410000D02*
X232390000Y-90200000D01*
X173635000Y-55760000D02*
X175160000Y-55760000D01*
X172800000Y-82000000D02*
X174200000Y-83400000D01*
X233800000Y-90200000D02*
X233800000Y-86400000D01*
X269000000Y-66200000D02*
X269600000Y-65600000D01*
X174800000Y-64200000D02*
X173200000Y-64200000D01*
X175400000Y-63600000D02*
X174800000Y-64200000D01*
X209800000Y-84000000D02*
X212600000Y-86800000D01*
X252800000Y-67200000D02*
X253800000Y-66200000D01*
X251400000Y-68000000D02*
X251000000Y-67600000D01*
X190400000Y-54600000D02*
X191800000Y-53200000D01*
X212600000Y-86800000D02*
X212600000Y-96000000D01*
X191800000Y-53200000D02*
X191800000Y-49800000D01*
X175200000Y-83400000D02*
X177200000Y-85400000D01*
X213000000Y-96400000D02*
X230000000Y-96400000D01*
X194000000Y-40390000D02*
X193200000Y-39590000D01*
X191800000Y-39000000D02*
X191800000Y-36000000D01*
X250200000Y-85400000D02*
X250200000Y-77710000D01*
X253800000Y-66200000D02*
X269000000Y-66200000D01*
X188200000Y-35800000D02*
X188200000Y-34600000D01*
X177200000Y-90600000D02*
X177400000Y-90800000D01*
X173200000Y-64200000D02*
X172800000Y-64600000D01*
X193697057Y-48410000D02*
X194400000Y-47707057D01*
X234200000Y-86000000D02*
X249600000Y-86000000D01*
X194400000Y-47707057D02*
X194400000Y-46712943D01*
X250200000Y-77710000D02*
X250200000Y-77200000D01*
X191800000Y-87200000D02*
X191800000Y-84400000D01*
X193190000Y-48410000D02*
X193697057Y-48410000D01*
X188200000Y-90800000D02*
X191800000Y-87200000D01*
X231100000Y-91410000D02*
X231180000Y-91410000D01*
X269600000Y-65600000D02*
X269600000Y-59210000D01*
X233800000Y-86400000D02*
X234200000Y-86000000D01*
X192200000Y-84000000D02*
X193600000Y-84000000D01*
X212600000Y-96000000D02*
X213000000Y-96400000D01*
X191800000Y-36000000D02*
X191600000Y-35800000D01*
X177200000Y-85400000D02*
X177200000Y-90600000D01*
X191800000Y-84400000D02*
X192200000Y-84000000D01*
X188200000Y-34600000D02*
X188000000Y-34400000D01*
X195800000Y-84000000D02*
X209800000Y-84000000D01*
X194400000Y-46712943D02*
X194000000Y-46312943D01*
X249600000Y-86000000D02*
X250200000Y-85400000D01*
X174200000Y-83400000D02*
X175200000Y-83400000D01*
X177100000Y-54600000D02*
X190400000Y-54600000D01*
X172800000Y-64600000D02*
X172800000Y-82000000D01*
X177400000Y-90800000D02*
X188200000Y-90800000D01*
X175400000Y-55200000D02*
X175400000Y-63600000D01*
X250200000Y-77200000D02*
X251400000Y-76000000D01*
X191800000Y-49800000D02*
X193190000Y-48410000D01*
X251400000Y-76000000D02*
X251400000Y-68000000D01*
X192390000Y-39590000D02*
X191800000Y-39000000D01*
%TO.N,/Right Sheet/DIN*%
D23*
X142525000Y-54250000D02*
X142525000Y-49667894D01*
X142525000Y-49667894D02*
X146652894Y-45540000D01*
X146652894Y-45540000D02*
X147300000Y-45540000D01*
%TO.N,Net-(D41-DOUT)*%
X137075000Y-56115380D02*
X136190380Y-57000000D01*
X124800000Y-47300000D02*
X124150000Y-46650000D01*
X112700000Y-54500000D02*
X114300000Y-52900000D01*
X121400000Y-52900000D02*
X124800000Y-49500000D01*
X124150000Y-46650000D02*
X123425000Y-46650000D01*
X124800000Y-49500000D02*
X124800000Y-47300000D01*
X137075000Y-55750000D02*
X137075000Y-56115380D01*
X114300000Y-52900000D02*
X121400000Y-52900000D01*
%TO.N,/Right Sheet/D1*%
X50100000Y-70520000D02*
X50100000Y-71580000D01*
X41850000Y-59500000D02*
X41850000Y-60359744D01*
X44750000Y-62290256D02*
X44750000Y-64550000D01*
X48400000Y-71300000D02*
X48100000Y-71600000D01*
X41850000Y-60359744D02*
X43165256Y-61675000D01*
X48100000Y-71600000D02*
X48100000Y-76200000D01*
X48100000Y-76200000D02*
X47200000Y-77100000D01*
X44134744Y-61675000D02*
X44750000Y-62290256D01*
X49320000Y-71580000D02*
X49040000Y-71300000D01*
X50100000Y-71580000D02*
X49320000Y-71580000D01*
X49040000Y-71300000D02*
X48400000Y-71300000D01*
X43165256Y-61675000D02*
X44134744Y-61675000D01*
X44750000Y-64550000D02*
X44900000Y-64700000D01*
%TO.N,Net-(D42-DOUT)*%
X42300000Y-80600000D02*
X52400000Y-80600000D01*
X41750000Y-80050000D02*
X42300000Y-80600000D01*
X66300000Y-74800000D02*
X66525000Y-75025000D01*
X52400000Y-80600000D02*
X52700000Y-80300000D01*
X66525000Y-75025000D02*
X66525000Y-77350000D01*
X41750000Y-78600000D02*
X41750000Y-80050000D01*
%TO.N,Net-(D58-DOUT)*%
X99075000Y-78750000D02*
X99075000Y-80425000D01*
X99000000Y-80500000D02*
X96100000Y-80500000D01*
X99075000Y-80425000D02*
X99000000Y-80500000D01*
X96100000Y-80500000D02*
X95980331Y-80619669D01*
X85600000Y-89800000D02*
X85400000Y-90000000D01*
X87300000Y-89800000D02*
X85600000Y-89800000D01*
%TO.N,Net-(D64-DOUT)*%
X80740256Y-95200000D02*
X74800000Y-95200000D01*
X79950000Y-91500000D02*
X79950000Y-92359744D01*
X69400000Y-96200000D02*
X69350000Y-96250000D01*
X81165256Y-95625000D02*
X80740256Y-95200000D01*
X82134744Y-95625000D02*
X81165256Y-95625000D01*
X79950000Y-92359744D02*
X81165256Y-93575000D01*
X82450000Y-93890256D02*
X82450000Y-95309744D01*
X82134744Y-93575000D02*
X82450000Y-93890256D01*
X69350000Y-96250000D02*
X66425000Y-96250000D01*
X82450000Y-95309744D02*
X82134744Y-95625000D01*
X81165256Y-93575000D02*
X82134744Y-93575000D01*
%TO.N,Net-(D47-DOUT)*%
X106300000Y-39100000D02*
X104700000Y-39100000D01*
X116350000Y-48150000D02*
X115600000Y-47400000D01*
X104700000Y-39100000D02*
X104600000Y-39000000D01*
X117975000Y-48150000D02*
X116350000Y-48150000D01*
%TO.N,Net-(D56-DOUT)*%
X87300000Y-51800000D02*
X87250000Y-51850000D01*
X87250000Y-51850000D02*
X85225000Y-51850000D01*
X99150000Y-40500000D02*
X97550000Y-40500000D01*
%TO.N,Net-(D69-DOUT)*%
X54300000Y-57935256D02*
X53984744Y-57620000D01*
X66975000Y-61775000D02*
X67600000Y-62400000D01*
X60850000Y-59500000D02*
X58400000Y-59500000D01*
X58347183Y-63825000D02*
X54300000Y-59777817D01*
X58525000Y-61775000D02*
X66975000Y-61775000D01*
X67175000Y-63825000D02*
X58347183Y-63825000D01*
X54300000Y-59777817D02*
X54300000Y-57935256D01*
X53984744Y-57620000D02*
X47680000Y-57620000D01*
X67600000Y-63400000D02*
X67175000Y-63825000D01*
X58500000Y-61800000D02*
X58525000Y-61775000D01*
X57900000Y-61200000D02*
X58500000Y-61800000D01*
X57900000Y-60000000D02*
X57900000Y-61200000D01*
X67600000Y-62400000D02*
X67600000Y-63400000D01*
X47680000Y-57620000D02*
X47300000Y-58000000D01*
X58400000Y-59500000D02*
X57900000Y-60000000D01*
%TO.N,Net-(D57-DOUT)*%
X92700000Y-66394858D02*
X92700000Y-63189950D01*
X92700000Y-63189950D02*
X90655025Y-61144975D01*
X104775000Y-57700000D02*
X104325000Y-58150000D01*
X79950000Y-73350000D02*
X80700000Y-74100000D01*
X80700000Y-74100000D02*
X84994858Y-74100000D01*
X79950000Y-72300000D02*
X79950000Y-73350000D01*
X105800000Y-57700000D02*
X104775000Y-57700000D01*
X84994858Y-74100000D02*
X92700000Y-66394858D01*
%TO.N,Net-(D63-DOUT)*%
X99100000Y-60900000D02*
X99200000Y-60900000D01*
X111000000Y-61500000D02*
X111400000Y-61900000D01*
X123300000Y-65700000D02*
X123400000Y-65800000D01*
X98875000Y-60675000D02*
X99100000Y-60900000D01*
X123300000Y-64400000D02*
X123300000Y-65700000D01*
X99800000Y-61500000D02*
X111000000Y-61500000D01*
X99200000Y-60900000D02*
X99800000Y-61500000D01*
X98875000Y-59650000D02*
X98875000Y-60675000D01*
%TO.N,Net-(D62-DOUT)*%
X80915256Y-57525000D02*
X80440256Y-57050000D01*
X81884744Y-57525000D02*
X80915256Y-57525000D01*
X82200000Y-55790256D02*
X82200000Y-57209744D01*
X80915256Y-55475000D02*
X81884744Y-55475000D01*
X79775000Y-54334744D02*
X80915256Y-55475000D01*
X79775000Y-53350000D02*
X79775000Y-54334744D01*
X80440256Y-57050000D02*
X77972182Y-57050000D01*
X70800000Y-56700000D02*
X70100000Y-57400000D01*
X66900000Y-57400000D02*
X66300000Y-58000000D01*
X77622182Y-56700000D02*
X70800000Y-56700000D01*
X70100000Y-57400000D02*
X66900000Y-57400000D01*
X82200000Y-57209744D02*
X81884744Y-57525000D01*
X81884744Y-55475000D02*
X82200000Y-55790256D01*
X77972182Y-57050000D02*
X77622182Y-56700000D01*
%TO.N,Net-(D22-DOUT)*%
X215000000Y-48000000D02*
X215940000Y-47060000D01*
X218007056Y-47400000D02*
X219400000Y-47400000D01*
X225025000Y-47711598D02*
X225025000Y-51650000D01*
X215940000Y-47060000D02*
X217667056Y-47060000D01*
X201400000Y-42200000D02*
X200575000Y-41375000D01*
X207400000Y-42200000D02*
X209200000Y-44000000D01*
X200575000Y-41375000D02*
X200575000Y-40250000D01*
X207400000Y-42200000D02*
X201400000Y-42200000D01*
X220890000Y-45910000D02*
X223223402Y-45910000D01*
X225025000Y-51650000D02*
X225050000Y-51650000D01*
X225050000Y-51650000D02*
X225300000Y-51900000D01*
X209200000Y-44000000D02*
X209200000Y-48200000D01*
X219400000Y-47400000D02*
X220890000Y-45910000D01*
X223223402Y-45910000D02*
X225025000Y-47711598D01*
X217667056Y-47060000D02*
X218007056Y-47400000D01*
%TO.N,Net-(D35-DOUT)*%
X200500000Y-78600000D02*
X200500000Y-79168370D01*
X202306630Y-80975000D02*
X209975000Y-80975000D01*
X200500000Y-79168370D02*
X202306630Y-80975000D01*
X225025000Y-85811598D02*
X225025000Y-89650000D01*
X209975000Y-80975000D02*
X211200000Y-82200000D01*
X221413402Y-82200000D02*
X225025000Y-85811598D01*
X211200000Y-82200000D02*
X221413402Y-82200000D01*
%TO.N,Net-(D36-DOUT)*%
X219575000Y-91150000D02*
X219575000Y-92575000D01*
X244000000Y-96125000D02*
X244025000Y-96150000D01*
X219575000Y-92575000D02*
X220044393Y-93044393D01*
X220044393Y-93044393D02*
X220044393Y-93955607D01*
X244000000Y-95200000D02*
X244000000Y-96125000D01*
%TO.N,Net-(D23-DOUT)*%
X238800000Y-53400000D02*
X239730000Y-52470000D01*
X219575000Y-53975000D02*
X219200000Y-54350000D01*
X219600000Y-56400000D02*
X219600000Y-57000000D01*
X219575000Y-53150000D02*
X219575000Y-53975000D01*
X219200000Y-54350000D02*
X219200000Y-56000000D01*
X244000000Y-53986598D02*
X244000000Y-54000000D01*
X239730000Y-52470000D02*
X240000000Y-52470000D01*
X219200000Y-56000000D02*
X219600000Y-56400000D01*
X219600000Y-57000000D02*
X220500000Y-57900000D01*
X244000000Y-54000000D02*
X244025000Y-54025000D01*
X220500000Y-57900000D02*
X229200000Y-57900000D01*
X238800000Y-56400000D02*
X238800000Y-53400000D01*
X232400000Y-56400000D02*
X238800000Y-56400000D01*
X244025000Y-54025000D02*
X244025000Y-58050000D01*
X240000000Y-52470000D02*
X240210000Y-52260000D01*
X240210000Y-52260000D02*
X242273402Y-52260000D01*
X242273402Y-52260000D02*
X244000000Y-53986598D01*
X229200000Y-57900000D02*
X230500000Y-56600000D01*
%TO.N,/Right Sheet/D2*%
X136975000Y-76475000D02*
X137000000Y-76500000D01*
X137000000Y-76500000D02*
X138759744Y-76500000D01*
X142400000Y-90900000D02*
X142400000Y-92325000D01*
X136975000Y-74750000D02*
X136975000Y-76475000D01*
X142400000Y-92325000D02*
X142525000Y-92450000D01*
X139950000Y-77690256D02*
X139950000Y-82650000D01*
X138759744Y-76500000D02*
X139950000Y-77690256D01*
X139950000Y-82650000D02*
X140000000Y-82700000D01*
%TO.N,Net-(D43-DOUT)*%
X124100000Y-83600000D02*
X124100000Y-84200000D01*
X139334744Y-98525000D02*
X135225000Y-98525000D01*
X137075000Y-95475000D02*
X137400000Y-95800000D01*
X138659744Y-95800000D02*
X139650000Y-96790256D01*
X124100000Y-84200000D02*
X123600000Y-84700000D01*
X137400000Y-95800000D02*
X138659744Y-95800000D01*
X133000000Y-96300000D02*
X133000000Y-84789950D01*
X137075000Y-93950000D02*
X137075000Y-95475000D01*
X135225000Y-98525000D02*
X133000000Y-96300000D01*
X139650000Y-98209744D02*
X139334744Y-98525000D01*
X139650000Y-96790256D02*
X139650000Y-98209744D01*
X133000000Y-84789950D02*
X133444975Y-84344975D01*
%TO.N,Net-(D70-DOUT)*%
X117950000Y-67300000D02*
X117950000Y-68250000D01*
X118910000Y-69210000D02*
X126890000Y-69210000D01*
X142425000Y-71475000D02*
X142425000Y-73250000D01*
X126890000Y-69210000D02*
X132600000Y-63500000D01*
X142600000Y-71300000D02*
X142425000Y-71475000D01*
X117950000Y-68250000D02*
X118910000Y-69210000D01*
%TO.N,Net-(D28-DOUT)*%
X179760101Y-58290000D02*
X180919899Y-58290000D01*
X208800000Y-58400000D02*
X208550000Y-58150000D01*
X196460114Y-58569858D02*
X199800000Y-61909744D01*
X200300000Y-64100000D02*
X205900000Y-64100000D01*
X180500000Y-66175000D02*
X180500000Y-61829899D01*
X180919899Y-58290000D02*
X181199757Y-58569858D01*
X178940000Y-59110101D02*
X179760101Y-58290000D01*
X180500000Y-61829899D02*
X178940000Y-60269899D01*
X181199757Y-58569858D02*
X196460114Y-58569858D01*
X205900000Y-64100000D02*
X208800000Y-61200000D01*
X208800000Y-61200000D02*
X208800000Y-58400000D01*
X199800000Y-63600000D02*
X200300000Y-64100000D01*
X208550000Y-58150000D02*
X205925000Y-58150000D01*
X199800000Y-61909744D02*
X199800000Y-63600000D01*
X181475000Y-67150000D02*
X180500000Y-66175000D01*
X178940000Y-60269899D02*
X178940000Y-59110101D01*
%TO.N,Net-(D29-DOUT)*%
X200475000Y-61475000D02*
X200600000Y-61600000D01*
X200475000Y-59650000D02*
X200475000Y-61475000D01*
X225200000Y-69400000D02*
X225200000Y-70775000D01*
X225200000Y-70775000D02*
X225025000Y-70950000D01*
%TO.N,Net-(D33-DOUT)*%
X183176598Y-78930000D02*
X185130000Y-78930000D01*
X162400000Y-93825000D02*
X162400000Y-98000000D01*
X162625000Y-98225000D02*
X172975000Y-98225000D01*
X178200000Y-85800000D02*
X178200000Y-83906598D01*
X178200000Y-83906598D02*
X183176598Y-78930000D01*
X185130000Y-78930000D02*
X186900000Y-80700000D01*
X186900000Y-80700000D02*
X186900000Y-84700000D01*
X175600000Y-86600000D02*
X175400000Y-86400000D01*
X175300000Y-95900000D02*
X175300000Y-86900000D01*
X162475000Y-93750000D02*
X162400000Y-93825000D01*
X172975000Y-98225000D02*
X175300000Y-95900000D01*
X175300000Y-86900000D02*
X175600000Y-86600000D01*
X162400000Y-98000000D02*
X162625000Y-98225000D01*
%TO.N,Net-(D34-DOUT)*%
X201400000Y-72136598D02*
X202226598Y-71310000D01*
X194500001Y-76679899D02*
X196856699Y-76679899D01*
X189600000Y-83800000D02*
X192200000Y-81200000D01*
X196856699Y-76679899D02*
X201400000Y-72136598D01*
X181800000Y-87800000D02*
X189400000Y-87800000D01*
X189400000Y-87800000D02*
X189600000Y-88000000D01*
X202226598Y-71310000D02*
X204173402Y-71310000D01*
X204173402Y-71310000D02*
X205950000Y-73086598D01*
X181450000Y-87450000D02*
X181800000Y-87800000D01*
X189600000Y-88000000D02*
X189600000Y-83800000D01*
X192200000Y-81200000D02*
X192200000Y-79200000D01*
X181450000Y-86200000D02*
X181450000Y-87450000D01*
X205950000Y-73086598D02*
X205950000Y-77100000D01*
%TO.N,Net-(D27-DOUT)*%
X162400000Y-78400000D02*
X163600000Y-79600000D01*
X167400000Y-79600000D02*
X170800000Y-76200000D01*
X162400000Y-75550000D02*
X162400000Y-78400000D01*
X162475000Y-74750000D02*
X162475000Y-75475000D01*
X162475000Y-75475000D02*
X162400000Y-75550000D01*
X187200000Y-65375000D02*
X186925000Y-65650000D01*
X163600000Y-79600000D02*
X167400000Y-79600000D01*
X187200000Y-64600000D02*
X187200000Y-65375000D01*
%TO.N,Net-(D31-DOUT)*%
X264300000Y-76275000D02*
X263325000Y-77250000D01*
X238775000Y-78550000D02*
X238775000Y-81775000D01*
X240000000Y-83000000D02*
X249400000Y-83000000D01*
X238775000Y-81775000D02*
X240000000Y-83000000D01*
X264300000Y-75800000D02*
X264300000Y-76275000D01*
%TO.N,/LEft Sheet/D2*%
X194200000Y-85907107D02*
X194200000Y-89400000D01*
X195200000Y-84907107D02*
X194200000Y-85907107D01*
X230490000Y-90310000D02*
X230315256Y-90310000D01*
X230000000Y-90625256D02*
X230000000Y-90800000D01*
X232294975Y-86705025D02*
X232294975Y-88505025D01*
X214000000Y-95800000D02*
X213100000Y-94900000D01*
X230000000Y-90800000D02*
X226000000Y-94800000D01*
X213100000Y-86592893D02*
X209707107Y-83200000D01*
X213100000Y-94900000D02*
X213100000Y-86592893D01*
X224400000Y-94800000D02*
X223400000Y-95800000D01*
X169200000Y-91600000D02*
X168575000Y-91600000D01*
X194200000Y-89400000D02*
X193800000Y-89800000D01*
X209707107Y-83200000D02*
X195600000Y-83200000D01*
X226000000Y-94800000D02*
X224400000Y-94800000D01*
X232294975Y-88505025D02*
X230490000Y-90310000D01*
X256800000Y-79825000D02*
X256800000Y-80600000D01*
X257875000Y-78750000D02*
X256800000Y-79825000D01*
X223400000Y-95800000D02*
X214000000Y-95800000D01*
X245600000Y-85000000D02*
X233790000Y-85000000D01*
X168575000Y-91600000D02*
X167925000Y-92250000D01*
X195200000Y-83600000D02*
X195200000Y-84907107D01*
X230315256Y-90310000D02*
X230000000Y-90625256D01*
X195600000Y-83200000D02*
X195200000Y-83600000D01*
%TO.N,Net-(D25-DOUT)*%
X204339087Y-32655847D02*
X207000000Y-35316759D01*
X256500000Y-60800000D02*
X255600000Y-60800000D01*
X197844254Y-33300000D02*
X198810101Y-34265847D01*
X235048590Y-43697118D02*
X234948494Y-43693852D01*
X234948494Y-43693852D02*
X233293852Y-43693852D01*
X209000000Y-39200000D02*
X210700000Y-39200000D01*
X214200000Y-44000000D02*
X214100000Y-44000000D01*
X170050000Y-54150000D02*
X167825000Y-54150000D01*
X170300000Y-54400000D02*
X170050000Y-54150000D01*
X201579899Y-32655847D02*
X204339087Y-32655847D01*
X233293852Y-43693852D02*
X230800000Y-41200000D01*
X199969899Y-34265847D02*
X201579899Y-32655847D01*
X185700101Y-33300000D02*
X197844254Y-33300000D01*
X207000000Y-37200000D02*
X209000000Y-39200000D01*
X257600000Y-59700000D02*
X256500000Y-60800000D01*
X217000000Y-41200000D02*
X214200000Y-44000000D01*
X198810101Y-34265847D02*
X199969899Y-34265847D01*
X179400101Y-39600000D02*
X185700101Y-33300000D01*
X237200000Y-43900000D02*
X235251472Y-43900000D01*
X207000000Y-35316759D02*
X207000000Y-37200000D01*
X235251472Y-43900000D02*
X235048590Y-43697118D01*
X176700000Y-39600000D02*
X179400101Y-39600000D01*
X230800000Y-41200000D02*
X217000000Y-41200000D01*
%TO.N,/LEft Sheet/D1*%
X167800000Y-70600000D02*
X167800000Y-70800000D01*
X162375000Y-55650000D02*
X162375000Y-63775000D01*
X162375000Y-63775000D02*
X162400000Y-63800000D01*
X163248530Y-63800000D02*
X168024265Y-68575735D01*
X162400000Y-63800000D02*
X163248530Y-63800000D01*
X167925000Y-70925000D02*
X167925000Y-73250000D01*
X167800000Y-70800000D02*
X167925000Y-70925000D01*
%TO.N,Net-(D48-DOUT)*%
X71100000Y-68400000D02*
X72000000Y-67500000D01*
X61075000Y-80075000D02*
X61400000Y-80400000D01*
X85500000Y-68700000D02*
X85400000Y-68800000D01*
X67400000Y-80400000D02*
X70600000Y-77200000D01*
X61400000Y-80400000D02*
X67400000Y-80400000D01*
X70600000Y-68700000D02*
X70900000Y-68400000D01*
X61075000Y-78850000D02*
X61075000Y-80075000D01*
X70900000Y-68400000D02*
X71100000Y-68400000D01*
X85400000Y-68800000D02*
X85400000Y-70800000D01*
X70600000Y-77200000D02*
X70600000Y-68700000D01*
%TO.N,Net-(D24-DOUT)*%
X263400000Y-54200000D02*
X263400000Y-57200000D01*
X239840256Y-64000000D02*
X242776728Y-64000000D01*
X238575000Y-59550000D02*
X238575000Y-62734744D01*
X238575000Y-62734744D02*
X239840256Y-64000000D01*
X263050000Y-57550000D02*
X263050000Y-58200000D01*
X242776728Y-64000000D02*
X250966728Y-55810000D01*
X255826598Y-55810000D02*
X259376598Y-52260000D01*
X250966728Y-55810000D02*
X255826598Y-55810000D01*
X261460000Y-52260000D02*
X263400000Y-54200000D01*
X263400000Y-57200000D02*
X263050000Y-57550000D01*
X259376598Y-52260000D02*
X261460000Y-52260000D01*
%TO.N,Net-(D49-DOUT)*%
X120234744Y-88475000D02*
X120550000Y-88790256D01*
X104575000Y-77300000D02*
X104525000Y-77250000D01*
X120550000Y-88790256D02*
X120550000Y-90350000D01*
X118150000Y-86200000D02*
X118150000Y-87359744D01*
X93800000Y-83800000D02*
X93500000Y-84100000D01*
X118150000Y-87359744D02*
X119265256Y-88475000D01*
X114825000Y-90525000D02*
X111700000Y-87400000D01*
X120550000Y-90350000D02*
X120375000Y-90525000D01*
X120375000Y-90525000D02*
X114825000Y-90525000D01*
X105800000Y-77300000D02*
X104575000Y-77300000D01*
X111700000Y-87400000D02*
X111700000Y-84500000D01*
X111000000Y-83800000D02*
X93800000Y-83800000D01*
X111700000Y-84500000D02*
X111000000Y-83800000D01*
X119265256Y-88475000D02*
X120234744Y-88475000D01*
%TO.N,Net-(D71-DOUT)*%
X47350000Y-96100000D02*
X47250000Y-96200000D01*
X59150000Y-97750000D02*
X58900000Y-98000000D01*
X60975000Y-97750000D02*
X59150000Y-97750000D01*
X49000000Y-96100000D02*
X47350000Y-96100000D01*
%TO.N,Net-(D37-DOUT)*%
X238800000Y-99200000D02*
X253000000Y-99200000D01*
X261323402Y-90360000D02*
X263225000Y-92261598D01*
X253000000Y-99200000D02*
X256000000Y-96200000D01*
X238575000Y-98975000D02*
X238800000Y-99200000D01*
X238575000Y-97650000D02*
X238575000Y-98975000D01*
X263225000Y-92261598D02*
X263225000Y-96150000D01*
X256000000Y-93736598D02*
X259376598Y-90360000D01*
X256000000Y-96200000D02*
X256000000Y-93736598D01*
X259376598Y-90360000D02*
X261323402Y-90360000D01*
%TO.N,Net-(D30-DOUT)*%
X227600000Y-78600000D02*
X232390000Y-78600000D01*
X219575000Y-73800000D02*
X219575000Y-72450000D01*
X244200000Y-77025000D02*
X244225000Y-77050000D01*
X244200000Y-75200000D02*
X244200000Y-77025000D01*
%TD*%
M02*
