M48
; DRILL file KiCad 10.0.4 date 2026-07-12T00:26:31
; FORMAT={-:-/ absolute / metric / decimal}
; #@! TF.CreationDate,2026-07-12T00:26:31+05:30
; #@! TF.GenerationSoftware,Kicad,Pcbnew,10.0.4
; #@! TF.FileFunction,Plated,1,2,PTH
FMAT,2
METRIC
; #@! TA.AperFunction,Plated,PTH,ViaDrill
T1C0.300
; #@! TA.AperFunction,Plated,PTH,ComponentDrill
T2C0.800
; #@! TA.AperFunction,Plated,PTH,ComponentDrill
T3C0.889
; #@! TA.AperFunction,Plated,PTH,ComponentDrill
T4C1.500
%
G90
G05
T1
X44.519Y-81.2
X44.9Y-64.7
X46.7Y-120.1
X46.8Y-71.5
X47.3Y-117.9
X48.2Y-60.9
X48.2Y-97.0
X49.0Y-96.1
X50.1Y-70.52
X52.6Y-82.2
X52.7Y-80.3
X54.5Y-80.5
X58.9Y-98.0
X60.2Y-102.4
X64.0Y-82.9
X64.8Y-108.4
X65.9Y-63.0
X66.1Y-60.8
X66.162Y-117.633
X66.3Y-74.8
X66.5Y-79.8
X66.8Y-81.0
X67.0Y-83.0
X67.741Y-118.407
X69.353Y-84.759
X69.4Y-96.2
X69.795Y-98.505
X72.0Y-67.5
X72.3Y-66.5
X74.0Y-76.3
X74.2Y-66.9
X74.8Y-95.2
X76.1Y-59.8
X76.1Y-86.8
X83.9Y-78.7
X85.5Y-68.7
X86.4Y-74.8
X86.7Y-71.2
X87.3Y-51.8
X87.3Y-89.8
X88.1Y-75.8
X90.655Y-61.145
X91.0Y-62.4
X92.2Y-81.6
X92.3Y-79.1
X92.6Y-60.9
X93.5Y-84.1
X95.98Y-80.62
X97.55Y-40.5
X99.0Y-44.0
X100.159Y-80.376
X104.1Y-62.8
X105.6Y-40.3
X105.8Y-57.7
X105.8Y-77.3
X106.3Y-39.1
X107.8Y-60.7
X108.2Y-51.2
X108.4Y-62.8
X110.3Y-53.8
X110.655Y-45.055
X110.695Y-62.8
X111.4Y-61.9
X112.7Y-54.5
X113.6Y-43.4
X115.6Y-47.4
X116.5Y-49.3
X120.0Y-37.0
X120.2Y-57.85
X121.6Y-72.5
X122.6Y-70.2
X123.3Y-64.4
X124.1Y-83.6
X124.176Y-47.524
X124.7Y-67.7
X127.1Y-82.5
X127.595Y-50.305
X129.4Y-58.3
X130.545Y-60.455
X132.6Y-63.5
X133.445Y-84.345
X133.5Y-57.2
X134.2Y-58.6
X135.1Y-43.7
X136.121Y-58.376
X136.19Y-57.0
X136.8Y-62.1
X137.3Y-80.9
X138.0Y-86.6
X140.0Y-82.7
X140.4Y-63.6
X142.3Y-80.7
X142.4Y-90.9
X142.6Y-71.3
X143.1Y-55.299
X143.208Y-93.33
X144.3Y-45.9
X145.38Y-66.4
X147.9Y-62.1
X161.6Y-44.6
X161.6Y-62.4
X161.6Y-97.2
X161.8Y-46.6
X161.8Y-77.0
X163.0Y-62.4
X163.2Y-77.8
X163.2Y-97.2
X163.705Y-47.05
X164.8Y-45.8
X165.0Y-43.0
X165.6Y-65.2
X166.0Y-85.2
X166.695Y-47.705
X167.6Y-78.2
X167.8Y-70.6
X168.024Y-68.576
X169.2Y-91.6
X169.2Y-93.0
X170.2Y-57.6
X170.3Y-54.4
X170.8Y-61.4
X170.8Y-73.8
X170.8Y-76.2
X170.9Y-56.4
X170.938Y-55.278
X171.7Y-52.2
X174.84Y-39.95
X175.4Y-55.2
X175.4Y-86.4
X176.24Y-36.8
X176.24Y-41.6
X176.7Y-39.6
X177.1Y-54.6
X177.6Y-83.6
X178.2Y-85.8
X178.2Y-88.0
X178.8Y-70.5
X179.8Y-46.2
X179.8Y-64.8
X179.8Y-72.0
X180.0Y-50.8
X180.4Y-84.2
X181.2Y-45.4
X181.4Y-64.8
X181.6Y-56.45
X183.0Y-39.8
X184.6Y-57.97
X185.6Y-55.4
X186.0Y-73.8
X186.6Y-53.0
X186.6Y-89.6
X186.628Y-87.2
X187.0Y-72.0
X187.2Y-64.6
X187.2Y-70.5
X187.2Y-79.4
X187.4Y-49.0
X187.6Y-50.6
X188.0Y-60.4
X188.8Y-86.2
X189.2Y-72.5
X189.8Y-47.2
X190.2Y-86.2
X190.6Y-37.6
X192.1Y-83.0
X192.2Y-72.6
X192.2Y-79.2
X192.8Y-41.2
X193.0Y-75.0
X193.6Y-84.0
X193.8Y-89.8
X194.3Y-73.0
X194.5Y-76.68
X194.6Y-82.4
X195.4Y-40.8
X195.8Y-84.0
X196.2Y-82.2
X196.6Y-75.2
X198.2Y-77.4
X198.6Y-59.2
X199.8Y-65.9
X200.2Y-37.8
X200.6Y-61.6
X201.176Y-63.024
X202.0Y-68.6
X204.912Y-71.2
X205.0Y-46.0
X205.04Y-52.67
X205.4Y-63.4
X205.8Y-66.0
X205.8Y-82.2
X206.2Y-43.0
X206.4Y-41.6
X206.4Y-56.2
X207.0Y-79.6
X207.6Y-59.0
X208.6Y-33.4
X209.0Y-51.8
X209.2Y-48.2
X209.2Y-49.8
X210.7Y-39.2
X210.8Y-64.0
X212.0Y-58.4
X212.2Y-35.8
X214.1Y-44.0
X214.1Y-65.2
X214.2Y-58.4
X215.0Y-48.0
X215.4Y-81.6
X216.4Y-89.0
X216.6Y-78.8
X217.0Y-51.4
X217.2Y-61.4
X218.2Y-75.8
X218.976Y-56.624
X219.575Y-73.8
X220.044Y-93.956
X220.2Y-55.4
X221.0Y-83.8
X223.796Y-94.556
X224.4Y-55.0
X224.4Y-75.6
X224.8Y-78.6
X225.2Y-56.8
X225.2Y-69.4
X225.6Y-84.124
X225.8Y-59.6
X226.0Y-65.4
X226.8Y-63.0
X227.6Y-78.6
X230.5Y-56.6
X231.4Y-96.6
X231.8Y-108.2
X232.295Y-86.705
X232.39Y-78.6
X232.39Y-90.2
X232.4Y-56.4
X233.79Y-85.0
X233.8Y-90.2
X234.8Y-75.6
X236.8Y-86.8
X237.2Y-43.9
X237.2Y-58.2
X237.6Y-62.0
X237.975Y-118.8
X238.175Y-81.0
X239.2Y-119.0
X239.4Y-61.4
X240.0Y-80.4
X242.6Y-84.2
X243.2Y-62.6
X244.0Y-52.2
X244.0Y-81.8
X244.0Y-95.2
X244.2Y-75.2
X244.8Y-71.2
X245.0Y-100.0
X245.2Y-98.4
X245.4Y-117.4
X245.6Y-85.0
X246.0Y-88.8
X246.8Y-101.6
X247.2Y-84.8
X247.768Y-111.578
X249.0Y-120.8
X249.4Y-83.0
X250.7Y-117.238
X251.0Y-67.6
X252.8Y-67.2
X253.2Y-54.6
X255.0Y-96.0
X255.6Y-60.8
X256.0Y-57.4
X256.2Y-77.2
X256.6Y-83.6
X256.6Y-86.0
X256.8Y-80.6
X257.2Y-95.0
X258.8Y-102.6
X263.4Y-113.8
X264.3Y-75.8
X265.2Y-100.6
X265.9Y-60.2
X266.2Y-82.0
X266.8Y-90.6
X266.8Y-109.2
X270.4Y-61.0
T2
X53.2Y-51.1
X53.2Y-58.72
X53.4Y-70.59
X53.4Y-78.21
X53.4Y-89.2
X53.4Y-96.82
X53.5Y-108.5
X53.5Y-116.12
X72.2Y-70.3
X72.2Y-77.92
X72.3Y-89.29
X72.3Y-96.91
X72.4Y-51.49
X72.4Y-59.11
X72.5Y-108.29
X72.5Y-115.91
X91.4Y-44.89
X91.4Y-52.51
X91.4Y-83.7
X91.4Y-91.32
X91.6Y-64.19
X91.6Y-71.81
X110.4Y-32.49
X110.4Y-40.11
X110.5Y-51.39
X110.5Y-59.01
X110.5Y-70.6
X110.5Y-78.22
X116.58Y-33.9
X117.19Y-51.8
X124.2Y-33.9
X124.81Y-51.8
X129.2Y-62.69
X129.2Y-70.31
X129.7Y-77.39
X129.7Y-85.01
X148.4Y-67.09
X148.4Y-74.71
X148.5Y-85.7
X148.5Y-93.32
X173.8Y-84.99
X173.8Y-92.61
X174.0Y-65.69
X174.0Y-73.31
X180.38Y-34.4
X188.0Y-34.4
X193.1Y-59.79
X193.1Y-67.41
X193.1Y-78.19
X193.1Y-85.81
X193.2Y-39.59
X193.2Y-47.21
X211.9Y-32.69
X211.9Y-40.31
X211.9Y-51.89
X211.9Y-59.51
X212.2Y-69.59
X212.2Y-77.21
X231.0Y-64.89
X231.0Y-72.51
X231.1Y-83.79
X231.1Y-91.41
X231.2Y-45.69
X231.2Y-53.31
X250.0Y-89.09
X250.0Y-96.71
X250.0Y-108.18
X250.0Y-115.8
X250.2Y-70.09
X250.2Y-77.71
X250.5Y-51.39
X250.5Y-59.01
X269.1Y-70.1
X269.1Y-77.72
X269.2Y-109.09
X269.2Y-116.71
X269.4Y-89.68
X269.4Y-97.3
X269.6Y-51.59
X269.6Y-59.21
T3
X132.06Y-43.0
X132.06Y-45.54
X132.06Y-48.08
X132.06Y-50.62
X132.06Y-53.16
X132.06Y-55.7
X132.06Y-58.24
X147.3Y-43.0
X147.3Y-45.54
X147.3Y-48.08
X147.3Y-50.62
X147.3Y-53.16
X147.3Y-55.7
X147.3Y-58.24
X157.56Y-43.06
X157.56Y-45.6
X157.56Y-48.14
X157.56Y-50.68
X157.56Y-53.22
X157.56Y-55.76
X157.56Y-58.3
X172.8Y-43.06
X172.8Y-45.6
X172.8Y-48.14
X172.8Y-50.68
X172.8Y-53.22
X172.8Y-55.76
X172.8Y-58.3
T4
X40.64Y-52.07
X40.64Y-71.12
X40.64Y-90.17
X40.64Y-109.22
X46.99Y-49.53
X46.99Y-68.58
X46.99Y-87.63
X46.99Y-106.68
X59.69Y-52.07
X59.69Y-71.12
X59.69Y-90.17
X59.69Y-109.22
X66.04Y-49.53
X66.04Y-68.58
X66.04Y-87.63
X66.04Y-106.68
X78.74Y-45.72
X78.74Y-64.77
X78.74Y-83.82
X85.09Y-43.18
X85.09Y-62.23
X85.09Y-81.28
X97.79Y-33.02
X97.79Y-52.07
X97.79Y-71.12
X104.14Y-30.48
X104.14Y-49.53
X104.14Y-68.58
X116.84Y-40.64
X116.84Y-59.69
X116.84Y-78.74
X123.19Y-38.1
X123.19Y-57.15
X123.19Y-76.2
X135.89Y-48.26
X135.89Y-67.31
X135.89Y-86.36
X142.24Y-45.72
X142.24Y-64.77
X142.24Y-83.82
X161.29Y-48.26
X161.29Y-67.31
X161.29Y-86.36
X167.64Y-45.72
X167.64Y-64.77
X167.64Y-83.82
X180.34Y-40.64
X180.34Y-59.69
X180.34Y-78.74
X186.69Y-38.1
X186.69Y-57.15
X186.69Y-76.2
X199.39Y-32.866
X199.39Y-52.07
X199.39Y-71.12
X205.74Y-30.326
X205.74Y-49.53
X205.74Y-68.58
X218.44Y-45.72
X218.44Y-64.77
X218.44Y-83.82
X224.79Y-43.18
X224.79Y-62.23
X224.79Y-81.28
X237.49Y-52.07
X237.49Y-71.12
X237.49Y-90.17
X237.49Y-109.22
X243.84Y-49.53
X243.84Y-68.58
X243.84Y-87.63
X243.84Y-106.68
X256.54Y-52.07
X256.54Y-71.12
X256.54Y-90.17
X256.54Y-109.22
X262.89Y-49.53
X262.89Y-68.58
X262.89Y-87.63
X262.89Y-106.68
M30
