M48
; DRILL file KiCad 10.0.4 date 2026-07-12T00:26:31
; FORMAT={-:-/ absolute / metric / decimal}
; #@! TF.CreationDate,2026-07-12T00:26:31+05:30
; #@! TF.GenerationSoftware,Kicad,Pcbnew,10.0.4
; #@! TF.FileFunction,NonPlated,1,2,NPTH
FMAT,2
METRIC
; #@! TA.AperFunction,NonPlated,NPTH,ComponentDrill
T1C0.500
; #@! TA.AperFunction,NonPlated,NPTH,ComponentDrill
T2C1.700
; #@! TA.AperFunction,NonPlated,NPTH,ComponentDrill
T3C4.000
%
G90
G05
T1
X150.996Y-49.3
X150.996Y-50.074
X150.996Y-50.824
X150.996Y-51.574
X150.996Y-52.336
X151.0Y-70.376
X151.0Y-71.15
X151.0Y-71.9
X151.0Y-72.65
X151.0Y-73.412
X151.0Y-91.376
X151.0Y-92.15
X151.0Y-92.9
X151.0Y-93.65
X151.0Y-94.412
X153.996Y-49.3
X153.996Y-50.074
X153.996Y-50.824
X153.996Y-51.586
X153.996Y-52.336
X154.0Y-70.376
X154.0Y-71.15
X154.0Y-71.9
X154.0Y-72.662
X154.0Y-73.412
X154.0Y-91.376
X154.0Y-92.15
X154.0Y-92.9
X154.0Y-93.662
X154.0Y-94.412
T2
X39.37Y-54.61
X39.37Y-73.66
X39.37Y-92.71
X39.37Y-111.76
X49.53Y-54.61
X49.53Y-73.66
X49.53Y-92.71
X49.53Y-111.76
X58.42Y-54.61
X58.42Y-73.66
X58.42Y-92.71
X58.42Y-111.76
X68.58Y-54.61
X68.58Y-73.66
X68.58Y-92.71
X68.58Y-111.76
X77.47Y-48.26
X77.47Y-67.31
X77.47Y-86.36
X87.63Y-48.26
X87.63Y-67.31
X87.63Y-86.36
X96.52Y-35.56
X96.52Y-54.61
X96.52Y-73.66
X106.68Y-35.56
X106.68Y-54.61
X106.68Y-73.66
X115.57Y-43.18
X115.57Y-62.23
X115.57Y-81.28
X125.73Y-43.18
X125.73Y-62.23
X125.73Y-81.28
X134.62Y-50.8
X134.62Y-69.85
X134.62Y-88.9
X144.78Y-50.8
X144.78Y-69.85
X144.78Y-88.9
X160.02Y-50.8
X160.02Y-69.85
X160.02Y-88.9
X170.18Y-50.8
X170.18Y-69.85
X170.18Y-88.9
X179.07Y-43.18
X179.07Y-62.23
X179.07Y-81.28
X189.23Y-43.18
X189.23Y-62.23
X189.23Y-81.28
X198.12Y-35.406
X198.12Y-54.61
X198.12Y-73.66
X208.28Y-35.406
X208.28Y-54.61
X208.28Y-73.66
X217.17Y-48.26
X217.17Y-67.31
X217.17Y-86.36
X227.33Y-48.26
X227.33Y-67.31
X227.33Y-86.36
X236.22Y-54.61
X236.22Y-73.66
X236.22Y-92.71
X236.22Y-111.76
X246.38Y-54.61
X246.38Y-73.66
X246.38Y-92.71
X246.38Y-111.76
X255.27Y-54.61
X255.27Y-73.66
X255.27Y-92.71
X255.27Y-111.76
X265.43Y-54.61
X265.43Y-73.66
X265.43Y-92.71
X265.43Y-111.76
T3
X44.45Y-54.61
X44.45Y-73.66
X44.45Y-92.71
X44.45Y-111.76
X63.5Y-54.61
X63.5Y-73.66
X63.5Y-92.71
X63.5Y-111.76
X82.55Y-48.26
X82.55Y-67.31
X82.55Y-86.36
X101.6Y-35.56
X101.6Y-54.61
X101.6Y-73.66
X120.65Y-43.18
X120.65Y-62.23
X120.65Y-81.28
X139.7Y-50.8
X139.7Y-69.85
X139.7Y-88.9
X165.1Y-50.8
X165.1Y-69.85
X165.1Y-88.9
X184.15Y-43.18
X184.15Y-62.23
X184.15Y-81.28
X203.2Y-35.406
X203.2Y-54.61
X203.2Y-73.66
X222.25Y-48.26
X222.25Y-67.31
X222.25Y-86.36
X241.3Y-54.61
X241.3Y-73.66
X241.3Y-92.71
X241.3Y-111.76
X260.35Y-54.61
X260.35Y-73.66
X260.35Y-92.71
X260.35Y-111.76
M30
