%TF.GenerationSoftware,KiCad,Pcbnew,10.0.4*%
%TF.CreationDate,2026-07-12T00:26:29+05:30*%
%TF.ProjectId,AMUS,414d5553-2e6b-4696-9361-645f70636258,rev?*%
%TF.SameCoordinates,Original*%
%TF.FileFunction,Copper,L1,Top*%
%TF.FilePolarity,Positive*%
%FSLAX46Y46*%
G04 Gerber Fmt 4.6, Leading zero omitted, Abs format (unit mm)*
G04 Created by KiCad (PCBNEW 10.0.4) date 2026-07-12 00:26:29*
%MOMM*%
%LPD*%
G01*
G04 APERTURE LIST*
G04 Aperture macros list*
%AMRoundRect*
0 Rectangle with rounded corners*
0 $1 Rounding radius*
0 $2 $3 $4 $5 $6 $7 $8 $9 X,Y pos of 4 corners*
0 Add a 4 corners polygon primitive as box body*
4,1,4,$2,$3,$4,$5,$6,$7,$8,$9,$2,$3,0*
0 Add four circle primitives for the rounded corners*
1,1,$1+$1,$2,$3*
1,1,$1+$1,$4,$5*
1,1,$1+$1,$6,$7*
1,1,$1+$1,$8,$9*
0 Add four rect primitives between the rounded corners*
20,1,$1+$1,$2,$3,$4,$5,0*
20,1,$1+$1,$4,$5,$6,$7,0*
20,1,$1+$1,$6,$7,$8,$9,0*
20,1,$1+$1,$8,$9,$2,$3,0*%
G04 Aperture macros list end*
%TA.AperFunction,ComponentPad*%
%ADD10C,2.200000*%
%TD*%
%TA.AperFunction,ComponentPad*%
%ADD11RoundRect,0.250000X0.550000X-0.550000X0.550000X0.550000X-0.550000X0.550000X-0.550000X-0.550000X0*%
%TD*%
%TA.AperFunction,ComponentPad*%
%ADD12C,1.600000*%
%TD*%
%TA.AperFunction,ComponentPad*%
%ADD13C,1.524000*%
%TD*%
%TA.AperFunction,ComponentPad*%
%ADD14RoundRect,0.250000X-0.550000X0.550000X-0.550000X-0.550000X0.550000X-0.550000X0.550000X0.550000X0*%
%TD*%
%TA.AperFunction,ComponentPad*%
%ADD15RoundRect,0.250000X0.550000X0.550000X-0.550000X0.550000X-0.550000X-0.550000X0.550000X-0.550000X0*%
%TD*%
%TA.AperFunction,ComponentPad*%
%ADD16RoundRect,0.250000X-0.550000X-0.550000X0.550000X-0.550000X0.550000X0.550000X-0.550000X0.550000X0*%
%TD*%
%TA.AperFunction,ViaPad*%
%ADD17C,0.600000*%
%TD*%
%TA.AperFunction,Conductor*%
%ADD18C,0.400000*%
%TD*%
%TA.AperFunction,Conductor*%
%ADD19C,0.200000*%
%TD*%
%TA.AperFunction,Conductor*%
%ADD20C,0.500000*%
%TD*%
G04 APERTURE END LIST*
D10*
%TO.P,SW14,1,1_1*%
%TO.N,/LEft Sheet/COL4*%
X205740000Y-49530000D03*
%TO.P,SW14,2,2_2*%
%TO.N,Net-(D14-A)*%
X199390000Y-52070000D03*
%TD*%
%TO.P,SW13,1,1_1*%
%TO.N,/LEft Sheet/COL3*%
X224790000Y-43180000D03*
%TO.P,SW13,2,2_2*%
%TO.N,Net-(D13-A)*%
X218440000Y-45720000D03*
%TD*%
%TO.P,SW12,1,1_1*%
%TO.N,/LEft Sheet/COL2*%
X262890000Y-87630000D03*
%TO.P,SW12,2,2_2*%
%TO.N,Net-(D12-A)*%
X256540000Y-90170000D03*
%TD*%
%TO.P,SW38,1,1_1*%
%TO.N,/Right Sheet/COL2*%
X85090000Y-62230000D03*
%TO.P,SW38,2,2_2*%
%TO.N,Net-(D73-A)*%
X78740000Y-64770000D03*
%TD*%
%TO.P,SW9,1,1_1*%
%TO.N,/LEft Sheet/COL4*%
X205740000Y-30325847D03*
%TO.P,SW9,2,2_2*%
%TO.N,Net-(D9-A)*%
X199390000Y-32865847D03*
%TD*%
%TO.P,SW31,1,1_1*%
%TO.N,/Right Sheet/COL5*%
X142240000Y-83820000D03*
%TO.P,SW31,2,2_2*%
%TO.N,Net-(D60-A)*%
X135890000Y-86360000D03*
%TD*%
%TO.P,SW20,1,1_1*%
%TO.N,/LEft Sheet/COL1*%
X262890000Y-106680000D03*
%TO.P,SW20,2,2_2*%
%TO.N,Net-(D20-A)*%
X256540000Y-109220000D03*
%TD*%
%TO.P,SW10,1,1_1*%
%TO.N,/LEft Sheet/COL5*%
X186690000Y-57150000D03*
%TO.P,SW10,2,2_2*%
%TO.N,Net-(D10-A)*%
X180340000Y-59690000D03*
%TD*%
%TO.P,SW5,1,1_1*%
%TO.N,/LEft Sheet/COL5*%
X186690000Y-38100000D03*
%TO.P,SW5,2,2_2*%
%TO.N,Net-(D5-A)*%
X180340000Y-40640000D03*
%TD*%
%TO.P,SW16,1,1_1*%
%TO.N,/LEft Sheet/COL5*%
X243840000Y-106680000D03*
%TO.P,SW16,2,2_2*%
%TO.N,Net-(D16-A)*%
X237490000Y-109220000D03*
%TD*%
%TO.P,SW35,1,1_1*%
%TO.N,/Right Sheet/COL3*%
X123190000Y-76200000D03*
%TO.P,SW35,2,2_2*%
%TO.N,Net-(D67-A)*%
X116840000Y-78740000D03*
%TD*%
%TO.P,SW37,1,1_1*%
%TO.N,/Right Sheet/COL1*%
X66040000Y-49530000D03*
%TO.P,SW37,2,2_2*%
%TO.N,Net-(D72-A)*%
X59690000Y-52070000D03*
%TD*%
%TO.P,SW25,1,1_1*%
%TO.N,/Right Sheet/COL3*%
X123190000Y-38100000D03*
%TO.P,SW25,2,2_2*%
%TO.N,Net-(D51-A)*%
X116840000Y-40640000D03*
%TD*%
%TO.P,SW34,1,1_1*%
%TO.N,/Right Sheet/COL1*%
X104140000Y-49530000D03*
%TO.P,SW34,2,2_2*%
%TO.N,Net-(D66-A)*%
X97790000Y-52070000D03*
%TD*%
%TO.P,SW8,1,1_1*%
%TO.N,/LEft Sheet/COL3*%
X243840000Y-87630000D03*
%TO.P,SW8,2,2_2*%
%TO.N,Net-(D8-A)*%
X237490000Y-90170000D03*
%TD*%
%TO.P,SW24,1,1_1*%
%TO.N,/Right Sheet/COL2*%
X85090000Y-81280000D03*
%TO.P,SW24,2,2_2*%
%TO.N,Net-(D50-A)*%
X78740000Y-83820000D03*
%TD*%
%TO.P,SW22,1,1_1*%
%TO.N,/Right Sheet/COL2*%
X46990000Y-49530000D03*
%TO.P,SW22,2,2_2*%
%TO.N,Net-(D45-A)*%
X40640000Y-52070000D03*
%TD*%
%TO.P,SW17,1,1_1*%
%TO.N,/LEft Sheet/COL3*%
X243840000Y-49530000D03*
%TO.P,SW17,2,2_2*%
%TO.N,Net-(D17-A)*%
X237490000Y-52070000D03*
%TD*%
%TO.P,SW19,1,1_1*%
%TO.N,/LEft Sheet/COL2*%
X205740000Y-68580000D03*
%TO.P,SW19,2,2_2*%
%TO.N,Net-(D19-A)*%
X199390000Y-71120000D03*
%TD*%
%TO.P,SW21,1,1_1*%
%TO.N,/Right Sheet/COL1*%
X142240000Y-45720000D03*
%TO.P,SW21,2,2_2*%
%TO.N,Net-(D44-A)*%
X135890000Y-48260000D03*
%TD*%
%TO.P,SW6,1,1_1*%
%TO.N,/LEft Sheet/COL1*%
X167640000Y-64770000D03*
%TO.P,SW6,2,2_2*%
%TO.N,Net-(D6-A)*%
X161290000Y-67310000D03*
%TD*%
%TO.P,SW36,1,1_1*%
%TO.N,/Right Sheet/COL1*%
X66040000Y-106680000D03*
%TO.P,SW36,2,2_2*%
%TO.N,Net-(D68-A)*%
X59690000Y-109220000D03*
%TD*%
%TO.P,SW32,1,1_1*%
%TO.N,/Right Sheet/COL5*%
X46990000Y-87630000D03*
%TO.P,SW32,2,2_2*%
%TO.N,Net-(D61-A)*%
X40640000Y-90170000D03*
%TD*%
%TO.P,SW23,1,1_1*%
%TO.N,/Right Sheet/COL3*%
X66040000Y-68580000D03*
%TO.P,SW23,2,2_2*%
%TO.N,Net-(D46-A)*%
X59690000Y-71120000D03*
%TD*%
%TO.P,SW40,1,1_1*%
%TO.N,/Right Sheet/COL2*%
X46990000Y-106680000D03*
%TO.P,SW40,2,2_2*%
%TO.N,Net-(D75-A)*%
X40640000Y-109220000D03*
%TD*%
%TO.P,SW28,1,1_1*%
%TO.N,/Right Sheet/COL4*%
X66040000Y-87630000D03*
%TO.P,SW28,2,2_2*%
%TO.N,Net-(D54-A)*%
X59690000Y-90170000D03*
%TD*%
%TO.P,SW26,1,1_1*%
%TO.N,/Right Sheet/COL4*%
X142240000Y-64770000D03*
%TO.P,SW26,2,2_2*%
%TO.N,Net-(D52-A)*%
X135890000Y-67310000D03*
%TD*%
%TO.P,SW3,1,1_1*%
%TO.N,/LEft Sheet/COL3*%
X243840000Y-68580000D03*
%TO.P,SW3,2,2_2*%
%TO.N,Net-(D3-A)*%
X237490000Y-71120000D03*
%TD*%
%TO.P,SW1,1,1_1*%
%TO.N,/LEft Sheet/COL1*%
X167640000Y-45720000D03*
%TO.P,SW1,2,2_2*%
%TO.N,Net-(D1-A)*%
X161290000Y-48260000D03*
%TD*%
%TO.P,SW4,1,1_1*%
%TO.N,/LEft Sheet/COL4*%
X224790000Y-81280000D03*
%TO.P,SW4,2,2_2*%
%TO.N,Net-(D4-A)*%
X218440000Y-83820000D03*
%TD*%
%TO.P,SW18,1,1_1*%
%TO.N,/LEft Sheet/COL4*%
X224790000Y-62230000D03*
%TO.P,SW18,2,2_2*%
%TO.N,Net-(D18-A)*%
X218440000Y-64770000D03*
%TD*%
%TO.P,SW29,1,1_1*%
%TO.N,/Right Sheet/COL5*%
X104140000Y-30480000D03*
%TO.P,SW29,2,2_2*%
%TO.N,Net-(D55-A)*%
X97790000Y-33020000D03*
%TD*%
%TO.P,SW33,1,1_1*%
%TO.N,/Right Sheet/COL5*%
X85090000Y-43180000D03*
%TO.P,SW33,2,2_2*%
%TO.N,Net-(D65-A)*%
X78740000Y-45720000D03*
%TD*%
%TO.P,SW30,1,1_1*%
%TO.N,/Right Sheet/COL4*%
X123190000Y-57150000D03*
%TO.P,SW30,2,2_2*%
%TO.N,Net-(D59-A)*%
X116840000Y-59690000D03*
%TD*%
%TO.P,SW2,1,1_1*%
%TO.N,/LEft Sheet/COL2*%
X262890000Y-49530000D03*
%TO.P,SW2,2,2_2*%
%TO.N,Net-(D2-A)*%
X256540000Y-52070000D03*
%TD*%
%TO.P,SW7,1,1_1*%
%TO.N,/LEft Sheet/COL2*%
X262890000Y-68580000D03*
%TO.P,SW7,2,2_2*%
%TO.N,Net-(D7-A)*%
X256540000Y-71120000D03*
%TD*%
%TO.P,SW11,1,1_1*%
%TO.N,/LEft Sheet/COL1*%
X167640000Y-83820000D03*
%TO.P,SW11,2,2_2*%
%TO.N,Net-(D11-A)*%
X161290000Y-86360000D03*
%TD*%
%TO.P,SW27,1,1_1*%
%TO.N,/Right Sheet/COL3*%
X46990000Y-68580000D03*
%TO.P,SW27,2,2_2*%
%TO.N,Net-(D53-A)*%
X40640000Y-71120000D03*
%TD*%
%TO.P,SW39,1,1_1*%
%TO.N,/Right Sheet/COL4*%
X104140000Y-68580000D03*
%TO.P,SW39,2,2_2*%
%TO.N,Net-(D74-A)*%
X97790000Y-71120000D03*
%TD*%
%TO.P,SW15,1,1_1*%
%TO.N,/LEft Sheet/COL5*%
X186690000Y-76200000D03*
%TO.P,SW15,2,2_2*%
%TO.N,Net-(D15-A)*%
X180340000Y-78740000D03*
%TD*%
D11*
%TO.P,D75,1,K_1*%
%TO.N,/Right Sheet/ROW4*%
X53500000Y-116120000D03*
D12*
%TO.P,D75,2,A_2*%
%TO.N,Net-(D75-A)*%
X53500000Y-108500000D03*
%TD*%
D11*
%TO.P,D61,1,K_1*%
%TO.N,/Right Sheet/ROW4*%
X53400000Y-96820000D03*
D12*
%TO.P,D61,2,A_2*%
%TO.N,Net-(D61-A)*%
X53400000Y-89200000D03*
%TD*%
D11*
%TO.P,D17,1,K_1*%
%TO.N,/LEft Sheet/ROW4*%
X250500000Y-59010000D03*
D12*
%TO.P,D17,2,A_2*%
%TO.N,Net-(D17-A)*%
X250500000Y-51390000D03*
%TD*%
D11*
%TO.P,D45,1,K_1*%
%TO.N,/Right Sheet/ROW2*%
X53200000Y-58720000D03*
D12*
%TO.P,D45,2,A_2*%
%TO.N,Net-(D45-A)*%
X53200000Y-51100000D03*
%TD*%
D11*
%TO.P,D18,1,K_1*%
%TO.N,/LEft Sheet/ROW4*%
X231000000Y-72510000D03*
D12*
%TO.P,D18,2,A_2*%
%TO.N,Net-(D18-A)*%
X231000000Y-64890000D03*
%TD*%
D11*
%TO.P,D13,1,K_1*%
%TO.N,/LEft Sheet/ROW3*%
X231200000Y-53310000D03*
D12*
%TO.P,D13,2,A_2*%
%TO.N,Net-(D13-A)*%
X231200000Y-45690000D03*
%TD*%
D11*
%TO.P,D73,1,K_1*%
%TO.N,/Right Sheet/ROW3*%
X91600000Y-71810000D03*
D12*
%TO.P,D73,2,A_2*%
%TO.N,Net-(D73-A)*%
X91600000Y-64190000D03*
%TD*%
D11*
%TO.P,D9,1,K_1*%
%TO.N,/LEft Sheet/ROW2*%
X211900000Y-40310000D03*
D12*
%TO.P,D9,2,A_2*%
%TO.N,Net-(D9-A)*%
X211900000Y-32690000D03*
%TD*%
D11*
%TO.P,D59,1,K_1*%
%TO.N,/Right Sheet/ROW1*%
X129200000Y-70310000D03*
D12*
%TO.P,D59,2,A_2*%
%TO.N,Net-(D59-A)*%
X129200000Y-62690000D03*
%TD*%
D13*
%TO.P,U1,1,PA02_A0_D0_1*%
%TO.N,unconnected-(U1-PA02_A0_D0-Pad1)*%
X172800000Y-43060000D03*
%TO.P,U1,2,PA4_A1_D1_2*%
%TO.N,/LEft Sheet/DIN*%
X172800000Y-45600000D03*
%TO.P,U1,3,PA10_A2_D2_3*%
%TO.N,/LEft Sheet/ROW4*%
X172800000Y-48140000D03*
%TO.P,U1,4,PA11_A3_D3_4*%
%TO.N,/LEft Sheet/ROW3*%
X172800000Y-50680000D03*
%TO.P,U1,5,PA8_A4_D4_SDA_5*%
%TO.N,/LEft Sheet/ROW2*%
X172800000Y-53220000D03*
%TO.P,U1,6,PA9_A5_D5_SCL_6*%
%TO.N,/LEft Sheet/ROW1*%
X172800000Y-55760000D03*
%TO.P,U1,7,PB08_A6_D6_TX_7*%
%TO.N,/LEft Sheet/COL5*%
X172800000Y-58300000D03*
%TO.P,U1,8,PB09_A7_D7_RX_8*%
%TO.N,/LEft Sheet/COL4*%
X157560000Y-58300000D03*
%TO.P,U1,9,PA7_A8_D8_SCK_9*%
%TO.N,/LEft Sheet/COL3*%
X157560000Y-55760000D03*
%TO.P,U1,10,PA5_A9_D9_MISO_10*%
%TO.N,/LEft Sheet/COL2*%
X157560000Y-53220000D03*
%TO.P,U1,11,PA6_A10_D10_MOSI_11*%
%TO.N,/LEft Sheet/COL1*%
X157560000Y-50680000D03*
%TO.P,U1,12,3V3_12*%
%TO.N,unconnected-(U1-3V3-Pad12)*%
X157560000Y-48140000D03*
%TO.P,U1,13,GND_13*%
%TO.N,GND*%
X157560000Y-45600000D03*
%TO.P,U1,14,5V_14*%
%TO.N,+5V*%
X157560000Y-43060000D03*
%TD*%
D11*
%TO.P,D53,1,K_1*%
%TO.N,/Right Sheet/ROW1*%
X53400000Y-78210000D03*
D12*
%TO.P,D53,2,A_2*%
%TO.N,Net-(D53-A)*%
X53400000Y-70590000D03*
%TD*%
D11*
%TO.P,D46,1,K_1*%
%TO.N,/Right Sheet/ROW3*%
X72200000Y-77920000D03*
D12*
%TO.P,D46,2,A_2*%
%TO.N,Net-(D46-A)*%
X72200000Y-70300000D03*
%TD*%
D11*
%TO.P,D66,1,K_1*%
%TO.N,/Right Sheet/ROW3*%
X110500000Y-59010000D03*
D12*
%TO.P,D66,2,A_2*%
%TO.N,Net-(D66-A)*%
X110500000Y-51390000D03*
%TD*%
D11*
%TO.P,D19,1,K_1*%
%TO.N,/LEft Sheet/ROW4*%
X212200000Y-77210000D03*
D12*
%TO.P,D19,2,A_2*%
%TO.N,Net-(D19-A)*%
X212200000Y-69590000D03*
%TD*%
D11*
%TO.P,D68,1,K_1*%
%TO.N,/Right Sheet/ROW4*%
X72500000Y-115910000D03*
D12*
%TO.P,D68,2,A_2*%
%TO.N,Net-(D68-A)*%
X72500000Y-108290000D03*
%TD*%
D11*
%TO.P,D14,1,K_1*%
%TO.N,/LEft Sheet/ROW3*%
X211900000Y-59510000D03*
D12*
%TO.P,D14,2,A_2*%
%TO.N,Net-(D14-A)*%
X211900000Y-51890000D03*
%TD*%
D11*
%TO.P,D4,1,K_1*%
%TO.N,/LEft Sheet/ROW1*%
X231100000Y-91410000D03*
D12*
%TO.P,D4,2,A_2*%
%TO.N,Net-(D4-A)*%
X231100000Y-83790000D03*
%TD*%
D11*
%TO.P,D50,1,K_1*%
%TO.N,/Right Sheet/ROW1*%
X91400000Y-91320000D03*
D12*
%TO.P,D50,2,A_2*%
%TO.N,Net-(D50-A)*%
X91400000Y-83700000D03*
%TD*%
D11*
%TO.P,D10,1,K_1*%
%TO.N,/LEft Sheet/ROW2*%
X193100000Y-67410000D03*
D12*
%TO.P,D10,2,A_2*%
%TO.N,Net-(D10-A)*%
X193100000Y-59790000D03*
%TD*%
D14*
%TO.P,D11,1,K_1*%
%TO.N,/LEft Sheet/ROW3*%
X173800000Y-84990000D03*
D12*
%TO.P,D11,2,A_2*%
%TO.N,Net-(D11-A)*%
X173800000Y-92610000D03*
%TD*%
D11*
%TO.P,D7,1,K_1*%
%TO.N,/LEft Sheet/ROW2*%
X269100000Y-77720000D03*
D12*
%TO.P,D7,2,A_2*%
%TO.N,Net-(D7-A)*%
X269100000Y-70100000D03*
%TD*%
D11*
%TO.P,D52,1,K_1*%
%TO.N,/Right Sheet/ROW3*%
X148400000Y-74710000D03*
D12*
%TO.P,D52,2,A_2*%
%TO.N,Net-(D52-A)*%
X148400000Y-67090000D03*
%TD*%
D11*
%TO.P,D15,1,K_1*%
%TO.N,/LEft Sheet/ROW3*%
X193100000Y-85810000D03*
D12*
%TO.P,D15,2,A_2*%
%TO.N,Net-(D15-A)*%
X193100000Y-78190000D03*
%TD*%
D11*
%TO.P,D74,1,K_1*%
%TO.N,/Right Sheet/ROW4*%
X110500000Y-78220000D03*
D12*
%TO.P,D74,2,A_2*%
%TO.N,Net-(D74-A)*%
X110500000Y-70600000D03*
%TD*%
D11*
%TO.P,D12,1,K_1*%
%TO.N,/LEft Sheet/ROW3*%
X269400000Y-97300000D03*
D12*
%TO.P,D12,2,A_2*%
%TO.N,Net-(D12-A)*%
X269400000Y-89680000D03*
%TD*%
D11*
%TO.P,D54,1,K_1*%
%TO.N,/Right Sheet/ROW2*%
X72300000Y-96910000D03*
D12*
%TO.P,D54,2,A_2*%
%TO.N,Net-(D54-A)*%
X72300000Y-89290000D03*
%TD*%
D11*
%TO.P,D65,1,K_1*%
%TO.N,/Right Sheet/ROW1*%
X91400000Y-52510000D03*
D12*
%TO.P,D65,2,A_2*%
%TO.N,Net-(D65-A)*%
X91400000Y-44890000D03*
%TD*%
D14*
%TO.P,D6,1,K_1*%
%TO.N,/LEft Sheet/ROW2*%
X174000000Y-65690000D03*
D12*
%TO.P,D6,2,A_2*%
%TO.N,Net-(D6-A)*%
X174000000Y-73310000D03*
%TD*%
D15*
%TO.P,D51,1,K_1*%
%TO.N,/Right Sheet/ROW2*%
X124810000Y-51800000D03*
D12*
%TO.P,D51,2,A_2*%
%TO.N,Net-(D51-A)*%
X117190000Y-51800000D03*
%TD*%
D11*
%TO.P,D2,1,K_1*%
%TO.N,/LEft Sheet/ROW1*%
X269600000Y-59210000D03*
D12*
%TO.P,D2,2,A_2*%
%TO.N,Net-(D2-A)*%
X269600000Y-51590000D03*
%TD*%
D11*
%TO.P,D60,1,K_1*%
%TO.N,/Right Sheet/ROW2*%
X148500000Y-93320000D03*
D12*
%TO.P,D60,2,A_2*%
%TO.N,Net-(D60-A)*%
X148500000Y-85700000D03*
%TD*%
D15*
%TO.P,D1,1,K_1*%
%TO.N,/LEft Sheet/ROW1*%
X188000000Y-34400000D03*
D12*
%TO.P,D1,2,A_2*%
%TO.N,Net-(D1-A)*%
X180380000Y-34400000D03*
%TD*%
D11*
%TO.P,D8,1,K_1*%
%TO.N,/LEft Sheet/ROW2*%
X250000000Y-96710000D03*
D12*
%TO.P,D8,2,A_2*%
%TO.N,Net-(D8-A)*%
X250000000Y-89090000D03*
%TD*%
D11*
%TO.P,D16,1,K_1*%
%TO.N,/LEft Sheet/ROW4*%
X250000000Y-115800000D03*
D12*
%TO.P,D16,2,A_2*%
%TO.N,Net-(D16-A)*%
X250000000Y-108180000D03*
%TD*%
D11*
%TO.P,D67,1,K_1*%
%TO.N,/Right Sheet/ROW4*%
X129700000Y-85010000D03*
D12*
%TO.P,D67,2,A_2*%
%TO.N,Net-(D67-A)*%
X129700000Y-77390000D03*
%TD*%
D11*
%TO.P,D55,1,K_1*%
%TO.N,/Right Sheet/ROW3*%
X110400000Y-40110000D03*
D12*
%TO.P,D55,2,A_2*%
%TO.N,Net-(D55-A)*%
X110400000Y-32490000D03*
%TD*%
D11*
%TO.P,D20,1,K_1*%
%TO.N,/LEft Sheet/ROW4*%
X269200000Y-116710000D03*
D12*
%TO.P,D20,2,A_2*%
%TO.N,Net-(D20-A)*%
X269200000Y-109090000D03*
%TD*%
D11*
%TO.P,D72,1,K_1*%
%TO.N,/Right Sheet/ROW2*%
X72400000Y-59110000D03*
D12*
%TO.P,D72,2,A_2*%
%TO.N,Net-(D72-A)*%
X72400000Y-51490000D03*
%TD*%
D14*
%TO.P,D5,1,K_1*%
%TO.N,/LEft Sheet/ROW1*%
X193200000Y-39590000D03*
D12*
%TO.P,D5,2,A_2*%
%TO.N,Net-(D5-A)*%
X193200000Y-47210000D03*
%TD*%
D13*
%TO.P,U2,1,PA02_A0_D0_1*%
%TO.N,unconnected-(U2-PA02_A0_D0-Pad1)*%
X147300000Y-43000000D03*
%TO.P,U2,2,PA4_A1_D1_2*%
%TO.N,/Right Sheet/DIN*%
X147300000Y-45540000D03*
%TO.P,U2,3,PA10_A2_D2_3*%
%TO.N,/Right Sheet/ROW4*%
X147300000Y-48080000D03*
%TO.P,U2,4,PA11_A3_D3_4*%
%TO.N,/Right Sheet/ROW3*%
X147300000Y-50620000D03*
%TO.P,U2,5,PA8_A4_D4_SDA_5*%
%TO.N,/Right Sheet/ROW2*%
X147300000Y-53160000D03*
%TO.P,U2,6,PA9_A5_D5_SCL_6*%
%TO.N,/Right Sheet/ROW1*%
X147300000Y-55700000D03*
%TO.P,U2,7,PB08_A6_D6_TX_7*%
%TO.N,/Right Sheet/COL5*%
X147300000Y-58240000D03*
%TO.P,U2,8,PB09_A7_D7_RX_8*%
%TO.N,/Right Sheet/COL4*%
X132060000Y-58240000D03*
%TO.P,U2,9,PA7_A8_D8_SCK_9*%
%TO.N,/Right Sheet/COL3*%
X132060000Y-55700000D03*
%TO.P,U2,10,PA5_A9_D9_MISO_10*%
%TO.N,/Right Sheet/COL2*%
X132060000Y-53160000D03*
%TO.P,U2,11,PA6_A10_D10_MOSI_11*%
%TO.N,/Right Sheet/COL1*%
X132060000Y-50620000D03*
%TO.P,U2,12,3V3_12*%
%TO.N,unconnected-(U2-3V3-Pad12)*%
X132060000Y-48080000D03*
%TO.P,U2,13,GND_13*%
%TO.N,GND*%
X132060000Y-45540000D03*
%TO.P,U2,14,5V_14*%
%TO.N,+5V*%
X132060000Y-43000000D03*
%TD*%
D11*
%TO.P,D3,1,K_1*%
%TO.N,/LEft Sheet/ROW1*%
X250200000Y-77710000D03*
D12*
%TO.P,D3,2,A_2*%
%TO.N,Net-(D3-A)*%
X250200000Y-70090000D03*
%TD*%
D16*
%TO.P,D44,1,K_1*%
%TO.N,/Right Sheet/ROW1*%
X116580000Y-33900000D03*
D12*
%TO.P,D44,2,A_2*%
%TO.N,Net-(D44-A)*%
X124200000Y-33900000D03*
%TD*%
D17*
%TO.N,Net-(D14-A)*%
X209000000Y-51800000D03*
%TO.N,/LEft Sheet/COL3*%
X208600000Y-33400000D03*
X212200000Y-35800000D03*
%TO.N,/LEft Sheet/COL2*%
X170800000Y-61400000D03*
X192200000Y-72600000D03*
X170200000Y-57600000D03*
X189200000Y-72500000D03*
%TO.N,/Right Sheet/COL2*%
X74000000Y-76300000D03*
X127594975Y-50305025D03*
%TO.N,/LEft Sheet/COL1*%
X194300000Y-73000000D03*
X193000000Y-75000000D03*
X170900000Y-56400000D03*
X164800000Y-45800000D03*
%TO.N,Net-(D5-A)*%
X189800000Y-47200000D03*
%TO.N,/Right Sheet/COL3*%
X133500000Y-57200000D03*
%TO.N,/Right Sheet/COL1*%
X110300000Y-53800000D03*
X60200000Y-102400000D03*
%TO.N,Net-(D51-A)*%
X116500000Y-49300000D03*
%TO.N,Net-(D66-A)*%
X108200000Y-51200000D03*
%TO.N,Net-(D6-A)*%
X170800000Y-73800000D03*
%TO.N,/Right Sheet/COL4*%
X67000000Y-83000000D03*
X136120828Y-58375736D03*
X129400000Y-58300000D03*
%TO.N,Net-(D54-A)*%
X69353196Y-84759046D03*
%TO.N,Net-(D52-A)*%
X145380000Y-66400000D03*
%TO.N,Net-(D1-A)*%
X174840001Y-39949949D03*
X176240000Y-36800000D03*
%TO.N,Net-(D4-A)*%
X225600000Y-84124264D03*
X221000000Y-83800000D03*
%TO.N,/Right Sheet/ROW4*%
X130544975Y-60455025D03*
%TO.N,+5V*%
X181600000Y-56450000D03*
X161800000Y-77000000D03*
X181200000Y-45400000D03*
X99000000Y-44000000D03*
X220200000Y-55400000D03*
X237200000Y-58200000D03*
X216600000Y-78800000D03*
X138000000Y-86600000D03*
X256000000Y-57400000D03*
X179800000Y-46200000D03*
X92600000Y-60900000D03*
X181400000Y-64800000D03*
X201175735Y-63024265D03*
X179800000Y-72000000D03*
X163200000Y-77800000D03*
X234800000Y-75600000D03*
X237600000Y-62000000D03*
X178200000Y-88000000D03*
X256600000Y-86000000D03*
X198200000Y-77400000D03*
X134200000Y-58600000D03*
X176240000Y-41600000D03*
X178800000Y-70500000D03*
X258800000Y-102600000D03*
X217200000Y-61400000D03*
X190600000Y-37600000D03*
X209200000Y-49800000D03*
X163705025Y-47050000D03*
X239400000Y-61400000D03*
X217000000Y-51400000D03*
X52600000Y-82200000D03*
X215400000Y-81600000D03*
X166000000Y-85200000D03*
X72300000Y-66500000D03*
X198600000Y-59200000D03*
X244000000Y-52200000D03*
X200200000Y-37800000D03*
X163000000Y-62400000D03*
X238175000Y-81000000D03*
X92300000Y-79100000D03*
X165000000Y-43000000D03*
X180400000Y-84200000D03*
X137300000Y-80900000D03*
X91000000Y-62400000D03*
X179800000Y-64800000D03*
X236800000Y-86800000D03*
X180000000Y-50800000D03*
X216400000Y-89000000D03*
X218200000Y-75800000D03*
X161800000Y-46600000D03*
X224400000Y-55000000D03*
X74200000Y-66900000D03*
X136800000Y-62100000D03*
X76100000Y-86800000D03*
X257200000Y-95000000D03*
X54500000Y-80500000D03*
X120200000Y-57850000D03*
X218975735Y-56624265D03*
X239200000Y-119000000D03*
X256600000Y-83600000D03*
X183000000Y-39800000D03*
X161600000Y-97200000D03*
X237975000Y-118800000D03*
X113600000Y-43400000D03*
X255000000Y-96000000D03*
X240000000Y-80400000D03*
X177600000Y-83600000D03*
X196600000Y-75200000D03*
X163200000Y-97200000D03*
X199800000Y-65900000D03*
X253200000Y-54600000D03*
X256200000Y-77200000D03*
X161600000Y-62400000D03*
%TO.N,GND*%
X206400000Y-56200000D03*
X266800000Y-90600000D03*
X184600000Y-57969858D03*
X66161909Y-117633322D03*
X205040000Y-52670000D03*
X246800000Y-101600000D03*
X107800000Y-60700000D03*
X205800000Y-82200000D03*
X140400000Y-63600000D03*
X167600000Y-78200000D03*
X171700000Y-52200000D03*
X186600000Y-53000000D03*
X169200000Y-93000000D03*
X188000000Y-60400000D03*
X205800000Y-66000000D03*
X65900000Y-63000000D03*
X225800000Y-59600000D03*
X247200000Y-84800000D03*
X207000000Y-79600000D03*
X108400000Y-62800000D03*
X187200000Y-70500000D03*
X66500000Y-79800000D03*
X246000000Y-88800000D03*
X224800000Y-78600000D03*
X187400000Y-49000000D03*
X48200000Y-97000000D03*
X161600000Y-44600000D03*
X245400000Y-117400000D03*
X207600000Y-59000000D03*
X142300000Y-80700000D03*
X243200000Y-62600000D03*
X170938000Y-55278303D03*
X143100000Y-55299283D03*
X190200000Y-86200000D03*
X225200000Y-56800000D03*
X266800000Y-109200000D03*
X64000000Y-82900000D03*
X205400000Y-63400000D03*
X122600000Y-70200000D03*
X244000000Y-81800000D03*
X206400000Y-41600000D03*
X244800000Y-71200000D03*
X205000000Y-46000000D03*
X188800000Y-86200000D03*
X226000000Y-65400000D03*
X105600000Y-40300000D03*
X46700000Y-120100000D03*
X166694975Y-47705025D03*
X47300000Y-117900000D03*
X66100000Y-60800000D03*
X66800000Y-81000000D03*
X135100000Y-43700000D03*
X186000000Y-73800000D03*
X204911930Y-71200000D03*
X67741060Y-118407470D03*
X92200000Y-81600000D03*
X270400000Y-61000000D03*
X186627774Y-87200000D03*
X110695000Y-62800000D03*
X231400000Y-96600000D03*
X48200000Y-60900000D03*
X224400000Y-75600000D03*
X69794975Y-98505025D03*
X250700000Y-117238071D03*
X245200000Y-98400000D03*
X206200000Y-43000000D03*
X120000000Y-37000000D03*
X185600000Y-55400000D03*
X104100000Y-62800000D03*
X187200000Y-79400000D03*
X124175735Y-47524265D03*
X143208301Y-93330006D03*
X121600000Y-72500000D03*
X231800000Y-108200000D03*
X194600000Y-82400000D03*
X223795866Y-94555607D03*
X226800000Y-63000000D03*
X186600000Y-89600000D03*
X86400000Y-74800000D03*
X202000000Y-68600000D03*
X64800000Y-108400000D03*
X187600000Y-50600000D03*
X187000000Y-72000000D03*
X165600000Y-65200000D03*
X83900000Y-78700000D03*
X86700000Y-71200000D03*
X196200000Y-82200000D03*
X245000000Y-100000000D03*
X46800000Y-71500000D03*
X266200000Y-82000000D03*
X124700000Y-67700000D03*
X100158683Y-80376135D03*
X265200000Y-100600000D03*
X192100000Y-83000000D03*
X242600000Y-84200000D03*
X88100000Y-75800000D03*
X44518977Y-81200000D03*
X247768114Y-111577952D03*
X127100000Y-82500000D03*
X265900000Y-60200000D03*
X144300000Y-45900000D03*
%TO.N,/Right Sheet/ROW2*%
X76100000Y-59800000D03*
%TO.N,/LEft Sheet/ROW3*%
X214200000Y-58400000D03*
X212000000Y-58400000D03*
%TO.N,/Right Sheet/ROW3*%
X110655025Y-45055025D03*
X147900000Y-62100000D03*
%TO.N,/LEft Sheet/ROW2*%
X214100000Y-65200000D03*
X210800000Y-64000000D03*
%TO.N,Net-(D39-DOUT)*%
X263400000Y-113800000D03*
X249000000Y-120800000D03*
%TO.N,Net-(D21-DOUT)*%
X195400000Y-40800000D03*
X192800000Y-41200000D03*
%TO.N,/LEft Sheet/ROW1*%
X177100000Y-54600000D03*
X193600000Y-84000000D03*
X251000000Y-67600000D03*
X175400000Y-55200000D03*
X232390000Y-90200000D03*
X195800000Y-84000000D03*
X252800000Y-67200000D03*
X233800000Y-90200000D03*
%TO.N,Net-(D41-DOUT)*%
X136190380Y-57000000D03*
X112700000Y-54500000D03*
%TO.N,/Right Sheet/D1*%
X44900000Y-64700000D03*
X50100000Y-70520000D03*
%TO.N,Net-(D42-DOUT)*%
X52700000Y-80300000D03*
X66300000Y-74800000D03*
%TO.N,Net-(D58-DOUT)*%
X95980331Y-80619669D03*
X87300000Y-89800000D03*
%TO.N,Net-(D64-DOUT)*%
X69400000Y-96200000D03*
X74800000Y-95200000D03*
%TO.N,Net-(D47-DOUT)*%
X106300000Y-39100000D03*
X115600000Y-47400000D03*
%TO.N,Net-(D56-DOUT)*%
X87300000Y-51800000D03*
X97550000Y-40500000D03*
%TO.N,Net-(D57-DOUT)*%
X105800000Y-57700000D03*
X90655025Y-61144975D03*
%TO.N,Net-(D63-DOUT)*%
X123300000Y-64400000D03*
X111400000Y-61900000D03*
%TO.N,Net-(D22-DOUT)*%
X215000000Y-48000000D03*
X209200000Y-48200000D03*
%TO.N,Net-(D36-DOUT)*%
X220044393Y-93955607D03*
X244000000Y-95200000D03*
%TO.N,Net-(D23-DOUT)*%
X232400000Y-56400000D03*
X230500000Y-56600000D03*
%TO.N,/Right Sheet/D2*%
X140000000Y-82700000D03*
X142400000Y-90900000D03*
%TO.N,Net-(D43-DOUT)*%
X133444975Y-84344975D03*
X124100000Y-83600000D03*
%TO.N,Net-(D70-DOUT)*%
X142600000Y-71300000D03*
X132600000Y-63500000D03*
%TO.N,Net-(D29-DOUT)*%
X200600000Y-61600000D03*
X225200000Y-69400000D03*
%TO.N,Net-(D33-DOUT)*%
X178200000Y-85800000D03*
X175400000Y-86400000D03*
%TO.N,Net-(D34-DOUT)*%
X194500001Y-76679899D03*
X192200000Y-79200000D03*
%TO.N,Net-(D27-DOUT)*%
X170800000Y-76200000D03*
X187200000Y-64600000D03*
%TO.N,Net-(D31-DOUT)*%
X264300000Y-75800000D03*
X249400000Y-83000000D03*
%TO.N,/LEft Sheet/D2*%
X169200000Y-91600000D03*
X233790000Y-85000000D03*
X245600000Y-85000000D03*
X256800000Y-80600000D03*
X232294975Y-86705025D03*
X193800000Y-89800000D03*
%TO.N,Net-(D25-DOUT)*%
X176700000Y-39600000D03*
X170300000Y-54400000D03*
X210700000Y-39200000D03*
X214100000Y-44000000D03*
X255600000Y-60800000D03*
X237200000Y-43900000D03*
%TO.N,/LEft Sheet/D1*%
X167800000Y-70600000D03*
X168024265Y-68575735D03*
%TO.N,Net-(D48-DOUT)*%
X72000000Y-67500000D03*
X85500000Y-68700000D03*
%TO.N,Net-(D49-DOUT)*%
X93500000Y-84100000D03*
X105800000Y-77300000D03*
%TO.N,Net-(D71-DOUT)*%
X49000000Y-96100000D03*
X58900000Y-98000000D03*
%TO.N,Net-(D30-DOUT)*%
X219575000Y-73800000D03*
X227600000Y-78600000D03*
X244200000Y-75200000D03*
X232390000Y-78600000D03*
%TD*%
%TO.N,/LEft Sheet/COL4*%
D18*
X191800000Y-32800000D02*
X193800000Y-30800000D01*
X204214153Y-28800000D02*
X205740000Y-30325847D01*
X212110000Y-60710000D02*
X213600000Y-62200000D01*
X213600000Y-62200000D02*
X224820000Y-62200000D01*
X211073834Y-60710000D02*
X212110000Y-60710000D01*
X174800000Y-39000000D02*
X174800000Y-33000000D01*
X194600000Y-28800000D02*
X204214153Y-28800000D01*
X207214153Y-31800000D02*
X210000000Y-31800000D01*
X174800000Y-33000000D02*
X175000000Y-32800000D01*
X228630000Y-79170000D02*
X226520000Y-81280000D01*
X157560000Y-58300000D02*
X155500000Y-58300000D01*
X156200000Y-40800000D02*
X173000000Y-40800000D01*
X210700000Y-60336166D02*
X211073834Y-60710000D01*
X226520000Y-81280000D02*
X224790000Y-81280000D01*
X155000000Y-57800000D02*
X155000000Y-42000000D01*
X210000000Y-45270000D02*
X205740000Y-49530000D01*
X205740000Y-49530000D02*
X205740000Y-54340000D01*
X205740000Y-30325847D02*
X207214153Y-31800000D01*
X175000000Y-32800000D02*
X191800000Y-32800000D01*
X193800000Y-29600000D02*
X194600000Y-28800000D01*
X210700000Y-59300000D02*
X210700000Y-60336166D01*
X173000000Y-40800000D02*
X174800000Y-39000000D01*
X155500000Y-58300000D02*
X155000000Y-57800000D01*
X228630000Y-63830000D02*
X228630000Y-79170000D01*
X155000000Y-42000000D02*
X156200000Y-40800000D01*
X193800000Y-30800000D02*
X193800000Y-29600000D01*
X227030000Y-62230000D02*
X228630000Y-63830000D01*
X224820000Y-62200000D02*
X224790000Y-62230000D01*
X205740000Y-54340000D02*
X210700000Y-59300000D01*
X210000000Y-31800000D02*
X210000000Y-45270000D01*
X224790000Y-62230000D02*
X227030000Y-62230000D01*
%TO.N,Net-(D14-A)*%
D19*
X209000000Y-51800000D02*
X209090000Y-51890000D01*
X209090000Y-51890000D02*
X211900000Y-51890000D01*
%TO.N,/LEft Sheet/COL3*%
D18*
X243840000Y-85360000D02*
X243840000Y-87630000D01*
X243840000Y-49530000D02*
X245400000Y-51090000D01*
X178400000Y-55600000D02*
X178400000Y-46800000D01*
X162062000Y-59462000D02*
X169738000Y-59462000D01*
X245400000Y-52400000D02*
X245080000Y-52720000D01*
X224800000Y-41200000D02*
X224790000Y-41210000D01*
X245580000Y-68580000D02*
X247680000Y-70680000D01*
X243840000Y-47040000D02*
X243840000Y-49530000D01*
X235600000Y-45200000D02*
X242000000Y-45200000D01*
X177400000Y-45800000D02*
X177400000Y-36400000D01*
X246200000Y-56268478D02*
X246200000Y-66220000D01*
X208200000Y-33000000D02*
X208600000Y-33400000D01*
X234800000Y-44400000D02*
X235600000Y-45200000D01*
X245080000Y-55148478D02*
X246200000Y-56268478D01*
X177078000Y-56922000D02*
X178400000Y-55600000D01*
X232000000Y-44400000D02*
X234800000Y-44400000D01*
X246200000Y-66220000D02*
X243840000Y-68580000D01*
X206000000Y-33000000D02*
X208200000Y-33000000D01*
X172278000Y-56922000D02*
X177078000Y-56922000D01*
X225210000Y-43600000D02*
X231200000Y-43600000D01*
X223600000Y-40000000D02*
X224800000Y-41200000D01*
X243840000Y-68580000D02*
X245580000Y-68580000D01*
X214200000Y-37800000D02*
X214200000Y-39200000D01*
X169738000Y-59462000D02*
X172278000Y-56922000D01*
X162000000Y-58600000D02*
X162000000Y-59400000D01*
X159160000Y-55760000D02*
X162000000Y-58600000D01*
X247680000Y-81520000D02*
X243840000Y-85360000D01*
X245080000Y-52720000D02*
X245080000Y-55148478D01*
X195600000Y-30400000D02*
X195600000Y-29800000D01*
X178400000Y-46800000D02*
X177400000Y-45800000D01*
X245400000Y-51090000D02*
X245400000Y-52400000D01*
X224790000Y-43180000D02*
X225210000Y-43600000D01*
X224790000Y-41210000D02*
X224790000Y-43180000D01*
X195600000Y-29800000D02*
X202800000Y-29800000D01*
X212200000Y-35800000D02*
X214200000Y-37800000D01*
X162000000Y-59400000D02*
X162062000Y-59462000D01*
X242000000Y-45200000D02*
X243840000Y-47040000D01*
X177400000Y-36400000D02*
X189600000Y-36400000D01*
X247680000Y-70680000D02*
X247680000Y-81520000D01*
X231200000Y-43600000D02*
X232000000Y-44400000D01*
X214200000Y-39200000D02*
X215000000Y-40000000D01*
X202800000Y-29800000D02*
X206000000Y-33000000D01*
X189600000Y-36400000D02*
X195600000Y-30400000D01*
X215000000Y-40000000D02*
X223600000Y-40000000D01*
X157560000Y-55760000D02*
X159160000Y-55760000D01*
%TO.N,/LEft Sheet/COL2*%
X227400000Y-82800000D02*
X232400000Y-87800000D01*
X205740000Y-68580000D02*
X207160000Y-70000000D01*
X168800000Y-54400000D02*
X169000000Y-54600000D01*
X247848528Y-89200000D02*
X247824264Y-89175736D01*
X175200000Y-73000000D02*
X175900000Y-73000000D01*
X192200000Y-72600000D02*
X194600000Y-70200000D01*
X241400000Y-87800000D02*
X243400000Y-89800000D01*
X204360000Y-67200000D02*
X205740000Y-68580000D01*
X249370000Y-87630000D02*
X262890000Y-87630000D01*
X262890000Y-64110000D02*
X265200000Y-61800000D01*
X169000000Y-56800000D02*
X169800000Y-57600000D01*
X165400000Y-47400000D02*
X168000000Y-50000000D01*
X176607106Y-72300000D02*
X177007106Y-72700000D01*
X232400000Y-87800000D02*
X241400000Y-87800000D01*
X189000000Y-72700000D02*
X189200000Y-72500000D01*
X168000000Y-50000000D02*
X168000000Y-51800000D01*
X247824264Y-89175736D02*
X249370000Y-87630000D01*
X175900000Y-73000000D02*
X175900000Y-72592894D01*
X265000000Y-85520000D02*
X265000000Y-75068478D01*
X177007106Y-72700000D02*
X189000000Y-72700000D01*
X169800000Y-57600000D02*
X170200000Y-57600000D01*
X169000000Y-54600000D02*
X169000000Y-56800000D01*
X175200000Y-72812943D02*
X175200000Y-73000000D01*
X194600000Y-70200000D02*
X194600000Y-68400000D01*
X246751472Y-89800000D02*
X247351472Y-89200000D01*
X210200000Y-70000000D02*
X210800000Y-70600000D01*
X219400000Y-79800000D02*
X222400000Y-82800000D01*
X157560000Y-53220000D02*
X161980000Y-53220000D01*
X210800000Y-79200000D02*
X211400000Y-79800000D01*
X262890000Y-87630000D02*
X265000000Y-85520000D01*
X173502943Y-72110000D02*
X174497057Y-72110000D01*
X168800000Y-52600000D02*
X168800000Y-54400000D01*
X194600000Y-68400000D02*
X195800000Y-67200000D01*
X161980000Y-53220000D02*
X162650000Y-52550000D01*
X265200000Y-56800000D02*
X262890000Y-54490000D01*
X168000000Y-51800000D02*
X168800000Y-52600000D01*
X164400000Y-47400000D02*
X165400000Y-47400000D01*
X195800000Y-67200000D02*
X204360000Y-67200000D01*
X172400000Y-63000000D02*
X172400000Y-72810000D01*
X262890000Y-68580000D02*
X262890000Y-64110000D01*
X174497057Y-72110000D02*
X175200000Y-72812943D01*
X163000000Y-49435177D02*
X163000000Y-47750000D01*
X265000000Y-75068478D02*
X262890000Y-72958478D01*
X163000000Y-47750000D02*
X164050000Y-47750000D01*
X162650000Y-49785177D02*
X163000000Y-49435177D01*
X262890000Y-54490000D02*
X262890000Y-49530000D01*
X172400000Y-72810000D02*
X172802943Y-72810000D01*
X172802943Y-72810000D02*
X173502943Y-72110000D01*
X265200000Y-61800000D02*
X265200000Y-56800000D01*
X162650000Y-52550000D02*
X162650000Y-49785177D01*
X210800000Y-70600000D02*
X210800000Y-79200000D01*
X211400000Y-79800000D02*
X219400000Y-79800000D01*
X176192894Y-72300000D02*
X176607106Y-72300000D01*
X170800000Y-61400000D02*
X172400000Y-63000000D01*
X164050000Y-47750000D02*
X164400000Y-47400000D01*
X207160000Y-70000000D02*
X210200000Y-70000000D01*
X243400000Y-89800000D02*
X246751472Y-89800000D01*
X247351472Y-89200000D02*
X247848528Y-89200000D01*
X262890000Y-72958478D02*
X262890000Y-68580000D01*
X222400000Y-82800000D02*
X227400000Y-82800000D01*
X175900000Y-72592894D02*
X176192894Y-72300000D01*
%TO.N,/Right Sheet/COL2*%
X52100000Y-103200000D02*
X48620000Y-106680000D01*
X95300000Y-46600000D02*
X94800000Y-47100000D01*
X69610050Y-95000000D02*
X68700000Y-95910050D01*
X71300000Y-83800000D02*
X69880000Y-85220000D01*
X77500000Y-58700000D02*
X74500000Y-55700000D01*
X49820000Y-46700000D02*
X46990000Y-49530000D01*
X123505025Y-50305025D02*
X123200000Y-50000000D01*
X78980000Y-81280000D02*
X85090000Y-81280000D01*
X86000000Y-58100000D02*
X85500000Y-58600000D01*
X74500000Y-48500000D02*
X72700000Y-46700000D01*
X85500000Y-58600000D02*
X85400000Y-58700000D01*
X107900000Y-46600000D02*
X95300000Y-46600000D01*
X74000000Y-76300000D02*
X76500000Y-78800000D01*
X72700000Y-46700000D02*
X49820000Y-46700000D01*
X68700000Y-98400000D02*
X69800000Y-99500000D01*
X89100000Y-58100000D02*
X86000000Y-58100000D01*
X110800000Y-43700000D02*
X107900000Y-46600000D01*
X69800000Y-95000000D02*
X69610050Y-95000000D01*
X69880000Y-94920000D02*
X69800000Y-95000000D01*
X68700000Y-95910050D02*
X68700000Y-98400000D01*
X94800000Y-51400000D02*
X90500000Y-55700000D01*
X71500000Y-83800000D02*
X71300000Y-83800000D01*
X111700000Y-47800000D02*
X111700000Y-44100000D01*
X111700000Y-44100000D02*
X111300000Y-43700000D01*
X127594975Y-50305025D02*
X123505025Y-50305025D01*
X85090000Y-59010000D02*
X85090000Y-62230000D01*
X90500000Y-56700000D02*
X89100000Y-58100000D01*
X48620000Y-106680000D02*
X46990000Y-106680000D01*
X76500000Y-78800000D02*
X78980000Y-81280000D01*
X85400000Y-58700000D02*
X77500000Y-58700000D01*
X113900000Y-50000000D02*
X111700000Y-47800000D01*
X69800000Y-99500000D02*
X66100000Y-103200000D01*
X94800000Y-47100000D02*
X94800000Y-51400000D01*
X69880000Y-85220000D02*
X69880000Y-94920000D01*
X90500000Y-55700000D02*
X90500000Y-56700000D01*
X74500000Y-55700000D02*
X74500000Y-48500000D01*
X123200000Y-50000000D02*
X113900000Y-50000000D01*
X66100000Y-103200000D02*
X52100000Y-103200000D01*
X85500000Y-58600000D02*
X85090000Y-59010000D01*
X111300000Y-43700000D02*
X110800000Y-43700000D01*
X76500000Y-78800000D02*
X71500000Y-83800000D01*
%TO.N,Net-(D73-A)*%
D19*
X78950000Y-64560000D02*
X91230000Y-64560000D01*
X91230000Y-64560000D02*
X91600000Y-64190000D01*
X78740000Y-64770000D02*
X78950000Y-64560000D01*
%TO.N,/LEft Sheet/COL1*%
D18*
X168739999Y-46819999D02*
X168739999Y-51691471D01*
X243151472Y-90400000D02*
X247000000Y-90400000D01*
X158722000Y-49478000D02*
X158722000Y-47478000D01*
X167640000Y-83820000D02*
X168460000Y-83000000D01*
X158722000Y-47478000D02*
X160600000Y-45600000D01*
X170800000Y-56400000D02*
X170900000Y-56400000D01*
X168880000Y-70880000D02*
X170000000Y-72000000D01*
X251800000Y-105800000D02*
X253400000Y-105800000D01*
X169600000Y-55200000D02*
X170800000Y-56400000D01*
X253400000Y-105800000D02*
X254280000Y-106680000D01*
X179200000Y-84600000D02*
X179200000Y-88200000D01*
X179200000Y-88200000D02*
X176800000Y-90600000D01*
X169000000Y-66130000D02*
X169000000Y-67400000D01*
X227175736Y-83424264D02*
X232151472Y-88400000D01*
X191400000Y-90600000D02*
X191400000Y-76600000D01*
X167640000Y-45720000D02*
X168739999Y-46819999D01*
X248800000Y-91000000D02*
X248800000Y-102800000D01*
X195400000Y-71900000D02*
X195400000Y-68600000D01*
X168460000Y-83000000D02*
X174400000Y-83000000D01*
X176800000Y-90600000D02*
X191400000Y-90600000D01*
X206980000Y-71941321D02*
X206980000Y-76228528D01*
X222175736Y-83424264D02*
X227175736Y-83424264D01*
X160600000Y-45600000D02*
X160720000Y-45720000D01*
X202838679Y-67800000D02*
X206980000Y-71941321D01*
X247000000Y-90400000D02*
X247600000Y-89800000D01*
X211551472Y-80800000D02*
X219551472Y-80800000D01*
X191400000Y-76600000D02*
X193000000Y-75000000D01*
X196200000Y-67800000D02*
X202838679Y-67800000D01*
X164800000Y-45800000D02*
X164720000Y-45720000D01*
X219551472Y-80800000D02*
X222175736Y-83424264D01*
X195400000Y-68600000D02*
X196200000Y-67800000D01*
X168739999Y-51691471D02*
X169400000Y-52351472D01*
X164720000Y-45720000D02*
X160720000Y-45720000D01*
X254280000Y-106680000D02*
X262890000Y-106680000D01*
X157560000Y-50640000D02*
X158722000Y-49478000D01*
X232151472Y-88400000D02*
X241151472Y-88400000D01*
X169400000Y-52351472D02*
X169400000Y-54151472D01*
X241151472Y-88400000D02*
X243151472Y-90400000D01*
X248800000Y-102800000D02*
X251800000Y-105800000D01*
D19*
X157560000Y-50680000D02*
X157560000Y-50640000D01*
D18*
X194300000Y-73000000D02*
X195400000Y-71900000D01*
X168880000Y-67520000D02*
X168880000Y-70880000D01*
X169000000Y-67400000D02*
X168880000Y-67520000D01*
X167640000Y-64770000D02*
X169000000Y-66130000D01*
X169600000Y-54351472D02*
X169600000Y-55200000D01*
X170000000Y-72000000D02*
X170000000Y-81460000D01*
X169400000Y-54151472D02*
X169600000Y-54351472D01*
X247600000Y-89800000D02*
X248800000Y-91000000D01*
X170000000Y-81460000D02*
X167640000Y-83820000D01*
X176000000Y-84600000D02*
X179200000Y-84600000D01*
X174400000Y-83000000D02*
X176000000Y-84600000D01*
X206980000Y-76228528D02*
X211551472Y-80800000D01*
%TO.N,/LEft Sheet/COL5*%
X232680000Y-106680000D02*
X243840000Y-106680000D01*
X189050000Y-57150000D02*
X190600000Y-55600000D01*
X194600000Y-74200000D02*
X195400000Y-75000000D01*
X197400000Y-84200000D02*
X211000000Y-84200000D01*
X189350000Y-57150000D02*
X190800000Y-58600000D01*
X186690000Y-57150000D02*
X189050000Y-57150000D01*
X190800000Y-58600000D02*
X190800000Y-74200000D01*
X177100000Y-58300000D02*
X178250000Y-57150000D01*
X178250000Y-57150000D02*
X186690000Y-57150000D01*
X213600000Y-96400000D02*
X229200000Y-96400000D01*
X196200000Y-83000000D02*
X197400000Y-84200000D01*
X190600000Y-55600000D02*
X190600000Y-38800000D01*
X188800000Y-76200000D02*
X186690000Y-76200000D01*
X186690000Y-57150000D02*
X189350000Y-57150000D01*
X232400000Y-106600000D02*
X232600000Y-106600000D01*
X189900000Y-38100000D02*
X186690000Y-38100000D01*
X213200000Y-86400000D02*
X213200000Y-96000000D01*
X231400000Y-98600000D02*
X231400000Y-105600000D01*
X232600000Y-106600000D02*
X232680000Y-106680000D01*
X213200000Y-96000000D02*
X213600000Y-96400000D01*
X190600000Y-38800000D02*
X189900000Y-38100000D01*
X195400000Y-82800000D02*
X195600000Y-83000000D01*
X211000000Y-84200000D02*
X213200000Y-86400000D01*
X195400000Y-75000000D02*
X195400000Y-82800000D01*
X229200000Y-96400000D02*
X231400000Y-98600000D01*
X190800000Y-74200000D02*
X194600000Y-74200000D01*
X231400000Y-105600000D02*
X232400000Y-106600000D01*
X172800000Y-58300000D02*
X177100000Y-58300000D01*
X195600000Y-83000000D02*
X196200000Y-83000000D01*
X190800000Y-74200000D02*
X188800000Y-76200000D01*
%TO.N,Net-(D5-A)*%
D19*
X188000000Y-45400000D02*
X189800000Y-47200000D01*
X180340000Y-40640000D02*
X180960000Y-40640000D01*
X182800000Y-38800000D02*
X185410101Y-38800000D01*
X186820000Y-39500000D02*
X188000000Y-40680000D01*
X188000000Y-40680000D02*
X188000000Y-45400000D01*
X185410101Y-38800000D02*
X186110101Y-39500000D01*
X180960000Y-40640000D02*
X182800000Y-38800000D01*
X186110101Y-39500000D02*
X186820000Y-39500000D01*
%TO.N,/Right Sheet/COL3*%
D18*
X57840000Y-67560000D02*
X56500000Y-68900000D01*
X119500000Y-57560050D02*
X119820406Y-57239644D01*
X117800000Y-57000000D02*
X114600000Y-57000000D01*
X133500000Y-58700000D02*
X132900000Y-59300000D01*
X72697057Y-69100000D02*
X72600000Y-69100000D01*
X120489950Y-58550000D02*
X119910050Y-58550000D01*
X114600000Y-57000000D02*
X109995000Y-61605000D01*
X118700000Y-57200000D02*
X118300000Y-57600000D01*
X120539950Y-58500000D02*
X120489950Y-58550000D01*
X131600000Y-71200000D02*
X126600000Y-76200000D01*
X66040000Y-67560000D02*
X57840000Y-67560000D01*
X73400000Y-69900000D02*
X73400000Y-69802943D01*
X124101270Y-59350000D02*
X122278730Y-59350000D01*
X118300000Y-57500000D02*
X117800000Y-57000000D01*
X78200000Y-79400000D02*
X75800000Y-77000000D01*
X48700000Y-68900000D02*
X48380000Y-68580000D01*
X132600000Y-59600000D02*
X130079900Y-59600000D01*
X132900000Y-59300000D02*
X132600000Y-59600000D01*
X66600000Y-67000000D02*
X66040000Y-67560000D01*
X131600000Y-60600000D02*
X131600000Y-71200000D01*
X56500000Y-68900000D02*
X48700000Y-68900000D01*
X132900000Y-59300000D02*
X131600000Y-60600000D01*
X70500000Y-67000000D02*
X66600000Y-67000000D01*
X109995000Y-64153528D02*
X107948528Y-66200000D01*
X126600000Y-76200000D02*
X123190000Y-76200000D01*
X127820101Y-58700000D02*
X124751270Y-58700000D01*
X74200000Y-75200000D02*
X74200000Y-70700000D01*
X119500000Y-58139950D02*
X119500000Y-57560050D01*
X124751270Y-58700000D02*
X124101270Y-59350000D01*
X133500000Y-57200000D02*
X133500000Y-58700000D01*
X119820406Y-57239644D02*
X119780762Y-57200000D01*
X119910050Y-58550000D02*
X119500000Y-58139950D01*
X94000000Y-69300000D02*
X94000000Y-72800000D01*
X130079900Y-59600000D02*
X129979899Y-59700000D01*
X122278730Y-59350000D02*
X121428730Y-58500000D01*
X74200000Y-70700000D02*
X73400000Y-69900000D01*
X107948528Y-66200000D02*
X97100000Y-66200000D01*
X87400000Y-79400000D02*
X78200000Y-79400000D01*
X118300000Y-57600000D02*
X118300000Y-57500000D01*
X97100000Y-66200000D02*
X94000000Y-69300000D01*
X94000000Y-72800000D02*
X87400000Y-79400000D01*
X48380000Y-68580000D02*
X46990000Y-68580000D01*
X129979899Y-59700000D02*
X128820100Y-59700000D01*
X72600000Y-69100000D02*
X70500000Y-67000000D01*
X109995000Y-61605000D02*
X109995000Y-64153528D01*
X75800000Y-76800000D02*
X74200000Y-75200000D01*
X121428730Y-58500000D02*
X120539950Y-58500000D01*
X75800000Y-77000000D02*
X75800000Y-76800000D01*
X119780762Y-57200000D02*
X118700000Y-57200000D01*
X73400000Y-69802943D02*
X72697057Y-69100000D01*
X66040000Y-67560000D02*
X66040000Y-68580000D01*
X128820100Y-59700000D02*
X127820101Y-58700000D01*
%TO.N,Net-(D67-A)*%
D19*
X128350000Y-78740000D02*
X129700000Y-77390000D01*
X116840000Y-78740000D02*
X128350000Y-78740000D01*
%TO.N,/Right Sheet/COL1*%
D18*
X68070000Y-47500000D02*
X66040000Y-49530000D01*
X95600000Y-52000000D02*
X94000000Y-53600000D01*
X80200000Y-62500000D02*
X73900000Y-56200000D01*
X94000000Y-53600000D02*
X94000000Y-54800000D01*
X138735177Y-48300000D02*
X135920000Y-51115177D01*
X129480000Y-50620000D02*
X126300000Y-53800000D01*
X104140000Y-49530000D02*
X96170000Y-49530000D01*
X41900000Y-49600000D02*
X37600000Y-49600000D01*
X95600000Y-50100000D02*
X95600000Y-52000000D01*
X49000000Y-50600000D02*
X48570000Y-51030000D01*
X126300000Y-53800000D02*
X110300000Y-53800000D01*
X36400000Y-99800000D02*
X38700000Y-102100000D01*
X133940000Y-52500000D02*
X132060000Y-50620000D01*
X72400000Y-47500000D02*
X68070000Y-47500000D01*
X140600000Y-47360000D02*
X140040000Y-47360000D01*
X49000000Y-48800000D02*
X49000000Y-50600000D01*
X73900000Y-56200000D02*
X73900000Y-49000000D01*
X135500000Y-52500000D02*
X133940000Y-52500000D01*
X50000000Y-47800000D02*
X49000000Y-48800000D01*
X140040000Y-47360000D02*
X139100000Y-48300000D01*
X135920000Y-52080000D02*
X135500000Y-52500000D01*
X96170000Y-49530000D02*
X95600000Y-50100000D01*
X55700000Y-102400000D02*
X60200000Y-102400000D01*
X37600000Y-49600000D02*
X36400000Y-50800000D01*
X83730000Y-63730000D02*
X82500000Y-62500000D01*
X82500000Y-62500000D02*
X80200000Y-62500000D01*
X139100000Y-48300000D02*
X138735177Y-48300000D01*
X36400000Y-50800000D02*
X36400000Y-99800000D01*
X48570000Y-51030000D02*
X43330000Y-51030000D01*
X94000000Y-54800000D02*
X86900000Y-61900000D01*
X55400000Y-102100000D02*
X55700000Y-102400000D01*
X86900000Y-63400000D02*
X86570000Y-63730000D01*
X38700000Y-102100000D02*
X55400000Y-102100000D01*
X73900000Y-49000000D02*
X72400000Y-47500000D01*
X86900000Y-61900000D02*
X86900000Y-63400000D01*
X86570000Y-63730000D02*
X83730000Y-63730000D01*
X43330000Y-51030000D02*
X41900000Y-49600000D01*
X132060000Y-50620000D02*
X129480000Y-50620000D01*
X66040000Y-49530000D02*
X64310000Y-47800000D01*
X140600000Y-47360000D02*
X142240000Y-45720000D01*
X135920000Y-51115177D02*
X135920000Y-52080000D01*
X64310000Y-47800000D02*
X50000000Y-47800000D01*
%TO.N,Net-(D72-A)*%
D19*
X59690000Y-52070000D02*
X71820000Y-52070000D01*
X71820000Y-52070000D02*
X72400000Y-51490000D01*
%TO.N,Net-(D51-A)*%
X116400000Y-48700000D02*
X116840000Y-48260000D01*
X116500000Y-49300000D02*
X116400000Y-49200000D01*
X116400000Y-49200000D02*
X116400000Y-48700000D01*
X116840000Y-48260000D02*
X116840000Y-40640000D01*
%TO.N,Net-(D66-A)*%
X97790000Y-52070000D02*
X107330000Y-52070000D01*
X107330000Y-52070000D02*
X108200000Y-51200000D01*
%TO.N,Net-(D50-A)*%
X78740000Y-83820000D02*
X91280000Y-83820000D01*
X91280000Y-83820000D02*
X91400000Y-83700000D01*
%TO.N,Net-(D45-A)*%
X52230000Y-52070000D02*
X53200000Y-51100000D01*
X40640000Y-52070000D02*
X52230000Y-52070000D01*
%TO.N,Net-(D44-A)*%
X125331370Y-33900000D02*
X132531370Y-41100000D01*
X132531370Y-41100000D02*
X135500000Y-41100000D01*
X135890000Y-41490000D02*
X135890000Y-48260000D01*
X124200000Y-33900000D02*
X125331370Y-33900000D01*
X135500000Y-41100000D02*
X135890000Y-41490000D01*
%TO.N,Net-(D6-A)*%
X171290000Y-73310000D02*
X174000000Y-73310000D01*
X170800000Y-73800000D02*
X171290000Y-73310000D01*
%TO.N,Net-(D68-A)*%
X71570000Y-109220000D02*
X72500000Y-108290000D01*
X59690000Y-109220000D02*
X71570000Y-109220000D01*
%TO.N,Net-(D61-A)*%
X40640000Y-90170000D02*
X50430000Y-90170000D01*
X50430000Y-90170000D02*
X51400000Y-89200000D01*
X51400000Y-89200000D02*
X53400000Y-89200000D01*
%TO.N,Net-(D46-A)*%
X60510000Y-70300000D02*
X72200000Y-70300000D01*
X59690000Y-71120000D02*
X60510000Y-70300000D01*
%TO.N,Net-(D75-A)*%
X52780000Y-109220000D02*
X53500000Y-108500000D01*
X40640000Y-109220000D02*
X52780000Y-109220000D01*
%TO.N,/Right Sheet/COL4*%
D18*
X141700000Y-60700000D02*
X142240000Y-61240000D01*
X138410778Y-58854908D02*
X140954908Y-58854908D01*
X123440000Y-57400000D02*
X123190000Y-57150000D01*
X142240000Y-61240000D02*
X142240000Y-64770000D01*
X138189950Y-59075736D02*
X138410778Y-58854908D01*
X64900000Y-86490000D02*
X66040000Y-87630000D01*
X66400000Y-83000000D02*
X64900000Y-84500000D01*
X137610050Y-59075736D02*
X138189950Y-59075736D01*
X141700000Y-59600000D02*
X141700000Y-60700000D01*
X64900000Y-84500000D02*
X64900000Y-86490000D01*
X128500000Y-57400000D02*
X123440000Y-57400000D01*
X129400000Y-58300000D02*
X128500000Y-57400000D01*
X136120828Y-58375736D02*
X136600000Y-58854908D01*
X140954908Y-58854908D02*
X141700000Y-59600000D01*
X67000000Y-83000000D02*
X66400000Y-83000000D01*
X136600000Y-58854908D02*
X137389222Y-58854908D01*
X137389222Y-58854908D02*
X137610050Y-59075736D01*
%TO.N,Net-(D54-A)*%
D19*
X65479899Y-90170000D02*
X69353196Y-86296703D01*
X59690000Y-90170000D02*
X65479899Y-90170000D01*
X69353196Y-86296703D02*
X69353196Y-84759046D01*
%TO.N,Net-(D52-A)*%
X145900000Y-66400000D02*
X146590000Y-67090000D01*
X146590000Y-67090000D02*
X148400000Y-67090000D01*
X145380000Y-66400000D02*
X145900000Y-66400000D01*
%TO.N,Net-(D1-A)*%
X174840001Y-39949949D02*
X176240000Y-38549950D01*
X176240000Y-38549950D02*
X176240000Y-36800000D01*
%TO.N,Net-(D4-A)*%
X225400000Y-83924264D02*
X225600000Y-84124264D01*
X221000000Y-83800000D02*
X221124264Y-83924264D01*
X221124264Y-83924264D02*
X225400000Y-83924264D01*
%TO.N,Net-(D55-A)*%
X109870000Y-33020000D02*
X110400000Y-32490000D01*
X97790000Y-33020000D02*
X109870000Y-33020000D01*
%TO.N,Net-(D65-A)*%
X90570000Y-45720000D02*
X91400000Y-44890000D01*
X78740000Y-45720000D02*
X90570000Y-45720000D01*
%TO.N,Net-(D53-A)*%
X45423402Y-71310000D02*
X46613402Y-72500000D01*
X40640000Y-71120000D02*
X45120000Y-71120000D01*
X49032944Y-72460000D02*
X50027056Y-72460000D01*
X50067056Y-72500000D02*
X51490000Y-72500000D01*
X46613402Y-72500000D02*
X48992944Y-72500000D01*
X48992944Y-72500000D02*
X49032944Y-72460000D01*
X50027056Y-72460000D02*
X50067056Y-72500000D01*
X45120000Y-71120000D02*
X45310000Y-71310000D01*
X45310000Y-71310000D02*
X45423402Y-71310000D01*
X51490000Y-72500000D02*
X53400000Y-70590000D01*
%TO.N,Net-(D74-A)*%
X109980000Y-71120000D02*
X110500000Y-70600000D01*
X97790000Y-71120000D02*
X109980000Y-71120000D01*
%TO.N,/Right Sheet/ROW4*%
D18*
X128200000Y-61300000D02*
X127700000Y-61800000D01*
X75800000Y-96300000D02*
X74100000Y-98000000D01*
X73390000Y-118710000D02*
X71400000Y-120700000D01*
X123100000Y-71300000D02*
X122800000Y-71600000D01*
X113400000Y-71600000D02*
X112300000Y-72700000D01*
X71400000Y-120700000D02*
X54600000Y-120700000D01*
X73390000Y-115910000D02*
X73390000Y-118710000D01*
X94900000Y-83900000D02*
X93300000Y-85500000D01*
X122800000Y-71600000D02*
X113400000Y-71600000D01*
X112300000Y-77400000D02*
X112300000Y-81100000D01*
X53500000Y-119600000D02*
X53500000Y-116120000D01*
X127700000Y-61800000D02*
X127700000Y-70400000D01*
X110700000Y-83900000D02*
X94900000Y-83900000D01*
X93300000Y-93400000D02*
X90400000Y-96300000D01*
X131600000Y-84800000D02*
X131100000Y-84300000D01*
X128800000Y-89900000D02*
X131600000Y-87100000D01*
X129700000Y-61300000D02*
X128200000Y-61300000D01*
X112300000Y-81100000D02*
X112300000Y-89600000D01*
X112300000Y-72700000D02*
X112300000Y-77400000D01*
X111680000Y-78220000D02*
X110500000Y-78220000D01*
X90400000Y-96300000D02*
X75800000Y-96300000D01*
X130410000Y-84300000D02*
X129700000Y-85010000D01*
X112600000Y-89900000D02*
X128800000Y-89900000D01*
X131100000Y-84300000D02*
X130410000Y-84300000D01*
X73390000Y-115910000D02*
X72500000Y-115910000D01*
X74100000Y-98000000D02*
X74100000Y-115200000D01*
X130544975Y-60455025D02*
X129700000Y-61300000D01*
X112300000Y-82300000D02*
X110700000Y-83900000D01*
X131600000Y-87100000D02*
X131600000Y-84800000D01*
X74100000Y-115200000D02*
X73390000Y-115910000D01*
X127700000Y-70400000D02*
X126800000Y-71300000D01*
X112300000Y-89600000D02*
X112600000Y-89900000D01*
X126800000Y-71300000D02*
X123100000Y-71300000D01*
X112300000Y-77400000D02*
X112300000Y-77600000D01*
X112300000Y-81100000D02*
X112300000Y-82300000D01*
X93300000Y-85500000D02*
X93300000Y-93400000D01*
X54600000Y-120700000D02*
X53500000Y-119600000D01*
X112300000Y-77600000D02*
X111680000Y-78220000D01*
%TO.N,+5V*%
D20*
X120200000Y-57850000D02*
X121697968Y-57850000D01*
X199400000Y-63000000D02*
X201200000Y-63000000D01*
X166170000Y-85370000D02*
X166000000Y-85200000D01*
X130150000Y-58200000D02*
X131438000Y-56912000D01*
X92500000Y-60900000D02*
X91000000Y-62400000D01*
X79382032Y-82270000D02*
X78097968Y-82270000D01*
X183000000Y-40172032D02*
X183000000Y-39800000D01*
X72700000Y-66900000D02*
X72300000Y-66500000D01*
X181200000Y-45400000D02*
X181200000Y-41972032D01*
X124482032Y-58050000D02*
X128089339Y-58050000D01*
X100200000Y-45800000D02*
X99000000Y-44600000D01*
X128089339Y-58050000D02*
X128650000Y-58610661D01*
X238200000Y-62000000D02*
X238800000Y-62000000D01*
X238200000Y-62000000D02*
X234800000Y-65400000D01*
X178800000Y-70500000D02*
X178800000Y-71000000D01*
X199300000Y-65400000D02*
X199800000Y-65900000D01*
X128650000Y-58610661D02*
X129089339Y-59050000D01*
X123832032Y-58700000D02*
X124482032Y-58050000D01*
X54500000Y-80500000D02*
X54300000Y-80500000D01*
X234000000Y-55000000D02*
X234000000Y-53367968D01*
X215400000Y-88000000D02*
X216400000Y-89000000D01*
X255200000Y-56600000D02*
X256350000Y-57750000D01*
X161800000Y-77000000D02*
X162400000Y-77000000D01*
X239000000Y-84600000D02*
X236800000Y-86800000D01*
X190600000Y-37600000D02*
X200000000Y-37600000D01*
X253920000Y-71547968D02*
X253920000Y-74920000D01*
X218975735Y-59624265D02*
X217200000Y-61400000D01*
X255800000Y-99600000D02*
X258800000Y-102600000D01*
X256350000Y-69117968D02*
X253920000Y-71547968D01*
X92600000Y-60900000D02*
X92500000Y-60900000D01*
X134250000Y-56889339D02*
X134250000Y-59150000D01*
X201200000Y-63000000D02*
X201175735Y-63024265D01*
X255200000Y-56600000D02*
X256000000Y-57400000D01*
X99000000Y-44600000D02*
X99000000Y-44000000D01*
X92300000Y-79100000D02*
X88500000Y-82900000D01*
X237200000Y-58200000D02*
X234000000Y-55000000D01*
X239400000Y-81000000D02*
X240000000Y-80400000D01*
X138800000Y-85800000D02*
X138000000Y-86600000D01*
X200000000Y-37600000D02*
X200200000Y-37800000D01*
X239000000Y-81000000D02*
X239000000Y-84600000D01*
X255800000Y-96000000D02*
X256200000Y-96000000D01*
X133810661Y-56450000D02*
X134250000Y-56889339D01*
X237975000Y-118800000D02*
X239000000Y-118800000D01*
X180300000Y-45700000D02*
X180000000Y-46000000D01*
X162400000Y-77000000D02*
X163200000Y-77800000D01*
X199300000Y-62900000D02*
X199300000Y-65400000D01*
X121697968Y-57850000D02*
X122547968Y-58700000D01*
X218200000Y-77200000D02*
X216600000Y-78800000D01*
X181200000Y-41972032D02*
X183000000Y-40172032D01*
X199300000Y-62900000D02*
X199400000Y-63000000D01*
X88500000Y-82900000D02*
X80012032Y-82900000D01*
X168559188Y-85370000D02*
X166170000Y-85370000D01*
X138800000Y-82400000D02*
X138800000Y-85800000D01*
X179800000Y-46200000D02*
X180300000Y-45700000D01*
X113600000Y-43400000D02*
X113250000Y-43050000D01*
X253920000Y-74920000D02*
X256200000Y-77200000D01*
X132562027Y-56912000D02*
X133024026Y-56450000D01*
X78097968Y-82270000D02*
X76100000Y-84267968D01*
X215400000Y-81600000D02*
X215400000Y-88000000D01*
X179800000Y-64800000D02*
X181400000Y-64800000D01*
X255800000Y-96000000D02*
X255800000Y-99600000D01*
X130150000Y-58610661D02*
X130150000Y-58200000D01*
X218975735Y-56624265D02*
X220200000Y-55400000D01*
X215400000Y-49800000D02*
X217000000Y-51400000D01*
X239000000Y-118800000D02*
X239200000Y-119000000D01*
X134250000Y-59150000D02*
X134200000Y-59200000D01*
X234000000Y-55000000D02*
X224400000Y-55000000D01*
X131438000Y-56912000D02*
X132562027Y-56912000D01*
X134200000Y-60200000D02*
X136100000Y-62100000D01*
X178800000Y-71000000D02*
X179800000Y-72000000D01*
X218200000Y-75800000D02*
X218200000Y-77200000D01*
X255000000Y-96000000D02*
X255800000Y-96000000D01*
X122547968Y-58700000D02*
X123832032Y-58700000D01*
X110450000Y-43050000D02*
X107700000Y-45800000D01*
X209200000Y-49800000D02*
X215400000Y-49800000D01*
X256600000Y-83600000D02*
X256600000Y-86000000D01*
X54300000Y-80500000D02*
X52600000Y-82200000D01*
X107700000Y-45800000D02*
X100200000Y-45800000D01*
X234800000Y-65400000D02*
X234800000Y-75600000D01*
X238800000Y-62000000D02*
X239400000Y-61400000D01*
X180300000Y-45700000D02*
X180600000Y-45400000D01*
X238175000Y-81000000D02*
X239000000Y-81000000D01*
X134200000Y-59200000D02*
X134200000Y-60200000D01*
X181600000Y-52400000D02*
X181600000Y-56450000D01*
X171189188Y-88000000D02*
X168559188Y-85370000D01*
X234000000Y-53367968D02*
X236847968Y-50520000D01*
X129710661Y-59050000D02*
X130150000Y-58610661D01*
X198600000Y-59200000D02*
X198600000Y-62200000D01*
X198600000Y-62200000D02*
X199300000Y-62900000D01*
X133024026Y-56450000D02*
X133810661Y-56450000D01*
X177600000Y-83600000D02*
X179800000Y-83600000D01*
X218975735Y-56624265D02*
X218975735Y-59624265D01*
X163705025Y-47050000D02*
X163255025Y-46600000D01*
X166400000Y-41600000D02*
X176240000Y-41600000D01*
X129089339Y-59050000D02*
X129710661Y-59050000D01*
X239000000Y-81000000D02*
X239400000Y-81000000D01*
X165000000Y-43000000D02*
X166400000Y-41600000D01*
X178200000Y-88000000D02*
X171189188Y-88000000D01*
X196600000Y-75200000D02*
X196600000Y-75800000D01*
X163255025Y-46600000D02*
X161800000Y-46600000D01*
X76100000Y-84267968D02*
X76100000Y-86800000D01*
X180000000Y-46000000D02*
X180000000Y-50800000D01*
X256350000Y-57750000D02*
X256350000Y-69117968D01*
X161600000Y-62400000D02*
X163000000Y-62400000D01*
X80012032Y-82900000D02*
X79382032Y-82270000D01*
X236847968Y-50520000D02*
X242320000Y-50520000D01*
X180000000Y-50800000D02*
X181600000Y-52400000D01*
X242320000Y-50520000D02*
X244000000Y-52200000D01*
X134200000Y-58600000D02*
X134200000Y-59200000D01*
X137300000Y-80900000D02*
X138800000Y-82400000D01*
X136100000Y-62100000D02*
X136800000Y-62100000D01*
X74200000Y-66900000D02*
X72700000Y-66900000D01*
X256200000Y-96000000D02*
X257200000Y-95000000D01*
X161600000Y-97200000D02*
X163200000Y-97200000D01*
X113250000Y-43050000D02*
X110450000Y-43050000D01*
X237600000Y-62000000D02*
X238200000Y-62000000D01*
X253200000Y-54600000D02*
X255200000Y-56600000D01*
X196600000Y-75800000D02*
X198200000Y-77400000D01*
X179800000Y-83600000D02*
X180400000Y-84200000D01*
X180600000Y-45400000D02*
X181200000Y-45400000D01*
%TO.N,GND*%
X92200000Y-81600000D02*
X93930331Y-79869669D01*
D18*
X188000000Y-60400000D02*
X187030142Y-60400000D01*
X223455607Y-95600000D02*
X214400000Y-95600000D01*
X265800000Y-60800000D02*
X265800000Y-60200000D01*
D20*
X141597968Y-66320000D02*
X140400000Y-65122032D01*
D18*
X265800000Y-60200000D02*
X265900000Y-60200000D01*
D20*
X120500000Y-70200000D02*
X122600000Y-70200000D01*
X41200000Y-81200000D02*
X44518977Y-81200000D01*
D18*
X165600000Y-65200000D02*
X162650000Y-68150000D01*
X247768114Y-102568114D02*
X246800000Y-101600000D01*
D20*
X44150000Y-69300000D02*
X44150000Y-69820000D01*
X86950000Y-70950000D02*
X86700000Y-71200000D01*
X54650000Y-92350000D02*
X51650000Y-95350000D01*
X95100000Y-62800000D02*
X86950000Y-70950000D01*
D18*
X186627774Y-89572226D02*
X186600000Y-89600000D01*
D20*
X143790000Y-55989283D02*
X143790000Y-65412032D01*
X66936057Y-118407470D02*
X66161909Y-117633322D01*
X143100000Y-47100000D02*
X143100000Y-55299283D01*
D18*
X205200000Y-83600000D02*
X197800000Y-83600000D01*
X205800000Y-66000000D02*
X205800000Y-63800000D01*
X168200000Y-78800000D02*
X167600000Y-78200000D01*
X207000000Y-82200000D02*
X207000000Y-79600000D01*
D20*
X107800000Y-62800000D02*
X108400000Y-62800000D01*
X38020000Y-78020000D02*
X41200000Y-81200000D01*
X49800000Y-62500000D02*
X48200000Y-60900000D01*
X58217767Y-88682233D02*
X64000000Y-82900000D01*
X63200000Y-107670000D02*
X64070000Y-107670000D01*
D18*
X242600000Y-83800000D02*
X244000000Y-82400000D01*
D20*
X143100000Y-55299283D02*
X143790000Y-55989283D01*
D18*
X187030142Y-60400000D02*
X184600000Y-57969858D01*
D20*
X66100000Y-62500000D02*
X50200000Y-62500000D01*
X48200000Y-95839339D02*
X48200000Y-97000000D01*
D18*
X244000000Y-82400000D02*
X244000000Y-81800000D01*
X165000000Y-80000000D02*
X165000000Y-85335177D01*
X204600000Y-71200000D02*
X202000000Y-68600000D01*
X224800000Y-78600000D02*
X224800000Y-76000000D01*
D20*
X93930331Y-79869669D02*
X99406391Y-79869669D01*
X86400000Y-78750000D02*
X83950000Y-78750000D01*
D18*
X206200000Y-43000000D02*
X206200000Y-41800000D01*
D20*
X66100000Y-62500000D02*
X66100000Y-62800000D01*
D18*
X167600000Y-80000000D02*
X168200000Y-79400000D01*
D20*
X59047968Y-107670000D02*
X63200000Y-107670000D01*
D18*
X168500000Y-88835177D02*
X168500000Y-92300000D01*
D20*
X45870000Y-70570000D02*
X46800000Y-71500000D01*
D18*
X224800000Y-76000000D02*
X224400000Y-75600000D01*
D20*
X120500000Y-70200000D02*
X121600000Y-69100000D01*
X66800000Y-80100000D02*
X66500000Y-79800000D01*
D18*
X185600000Y-55400000D02*
X185600000Y-54000000D01*
X266800000Y-90600000D02*
X266800000Y-82600000D01*
X209848528Y-82200000D02*
X207000000Y-82200000D01*
D20*
X64070000Y-107670000D02*
X64800000Y-108400000D01*
D18*
X225200000Y-59000000D02*
X225200000Y-56800000D01*
X197800000Y-83600000D02*
X196400000Y-82200000D01*
X162650000Y-68150000D02*
X162650000Y-70950000D01*
D20*
X44900000Y-70570000D02*
X45870000Y-70570000D01*
D18*
X171000000Y-55216303D02*
X170938000Y-55278303D01*
D20*
X106750000Y-61750000D02*
X105700000Y-62800000D01*
D18*
X246600000Y-117400000D02*
X245400000Y-117400000D01*
D20*
X47300000Y-119500000D02*
X46950000Y-119850000D01*
D18*
X231400000Y-96600000D02*
X229255607Y-94455607D01*
X166624264Y-47775736D02*
X166694975Y-47705025D01*
D20*
X133260000Y-45540000D02*
X135100000Y-43700000D01*
D18*
X266800000Y-102400000D02*
X265400000Y-101000000D01*
D20*
X143790000Y-87980812D02*
X143208301Y-88562511D01*
X105700000Y-62800000D02*
X105200000Y-62800000D01*
D18*
X187200000Y-79400000D02*
X185190000Y-77390000D01*
X266800000Y-82600000D02*
X266200000Y-82000000D01*
X266000000Y-61000000D02*
X265800000Y-60800000D01*
X204911930Y-71200000D02*
X204600000Y-71200000D01*
X162650000Y-70950000D02*
X160800000Y-72800000D01*
D20*
X124800000Y-67800000D02*
X124700000Y-67700000D01*
D18*
X214400000Y-95600000D02*
X214200000Y-95400000D01*
D20*
X38020000Y-71547968D02*
X38020000Y-78020000D01*
X120100000Y-74000000D02*
X120100000Y-78190000D01*
D18*
X204240000Y-46760000D02*
X205000000Y-46000000D01*
X204240000Y-51870000D02*
X204240000Y-46760000D01*
X226000000Y-65400000D02*
X226000000Y-63800000D01*
D20*
X70450000Y-99160050D02*
X69794975Y-98505025D01*
D18*
X165000000Y-80000000D02*
X167600000Y-80000000D01*
X266800000Y-109200000D02*
X266800000Y-102400000D01*
D20*
X99406391Y-79869669D02*
X99912857Y-80376135D01*
X110695000Y-62800000D02*
X110695000Y-62972818D01*
X46950000Y-119850000D02*
X46700000Y-120100000D01*
D18*
X165600000Y-45000000D02*
X165600000Y-46751472D01*
D20*
X44150000Y-62550000D02*
X44150000Y-69300000D01*
X127132233Y-78190000D02*
X129182233Y-76140000D01*
D18*
X206200000Y-41800000D02*
X206400000Y-41600000D01*
X160800000Y-77600000D02*
X163200000Y-80000000D01*
D20*
X124249355Y-47500000D02*
X126300000Y-47500000D01*
X41200000Y-81200000D02*
X47167767Y-81200000D01*
X130950000Y-76872233D02*
X130950000Y-78650000D01*
X130217767Y-76140000D02*
X130950000Y-76872233D01*
X130950000Y-78650000D02*
X127100000Y-82500000D01*
D18*
X242340000Y-69201321D02*
X242340000Y-67860000D01*
D20*
X128260000Y-45540000D02*
X132060000Y-45540000D01*
D18*
X250700000Y-117238071D02*
X250538071Y-117400000D01*
X206600000Y-82200000D02*
X205200000Y-83600000D01*
D20*
X140400000Y-65122032D02*
X140400000Y-63600000D01*
X54650000Y-88682233D02*
X54650000Y-92350000D01*
D18*
X205800000Y-63800000D02*
X205400000Y-63400000D01*
X244338679Y-71200000D02*
X242340000Y-69201321D01*
D20*
X132060000Y-45540000D02*
X133260000Y-45540000D01*
D18*
X242340000Y-67860000D02*
X245200000Y-65000000D01*
X224600000Y-94455607D02*
X223895866Y-94455607D01*
X205040000Y-52670000D02*
X204240000Y-51870000D01*
D20*
X44200000Y-62500000D02*
X44150000Y-62550000D01*
D18*
X185190000Y-74610000D02*
X186000000Y-73800000D01*
D20*
X121600000Y-69100000D02*
X124800000Y-69100000D01*
D18*
X246000000Y-88800000D02*
X246000000Y-86000000D01*
D20*
X143790000Y-82190000D02*
X143790000Y-87980812D01*
D18*
X186627774Y-87200000D02*
X186627774Y-89572226D01*
X196400000Y-82200000D02*
X196200000Y-82200000D01*
X223895866Y-94455607D02*
X223795866Y-94555607D01*
D20*
X50200000Y-62500000D02*
X44200000Y-62500000D01*
D18*
X214200000Y-86551472D02*
X209848528Y-82200000D01*
D20*
X105550000Y-40250000D02*
X105600000Y-40300000D01*
X66100000Y-60800000D02*
X66100000Y-62500000D01*
D18*
X229255607Y-94455607D02*
X224600000Y-94455607D01*
X162000000Y-45000000D02*
X165600000Y-45000000D01*
X242600000Y-84200000D02*
X242600000Y-83800000D01*
D20*
X105550000Y-38789339D02*
X105550000Y-40250000D01*
D18*
X232200000Y-122200000D02*
X231800000Y-121800000D01*
X250538071Y-117400000D02*
X246600000Y-117400000D01*
D20*
X63200000Y-107670000D02*
X63200000Y-107327968D01*
X105200000Y-62800000D02*
X95100000Y-62800000D01*
D18*
X245200000Y-64600000D02*
X243200000Y-62600000D01*
X207600000Y-59000000D02*
X207600000Y-57400000D01*
X241800000Y-122200000D02*
X232200000Y-122200000D01*
X245000000Y-98600000D02*
X245200000Y-98400000D01*
D19*
X124189355Y-47560000D02*
X124249355Y-47500000D01*
D20*
X86950000Y-70950000D02*
X86400000Y-71500000D01*
D18*
X246000000Y-86000000D02*
X247200000Y-84800000D01*
D20*
X143208301Y-88562511D02*
X143208301Y-93330006D01*
X46950000Y-119767968D02*
X59047968Y-107670000D01*
X120000000Y-37000000D02*
X107339339Y-37000000D01*
D18*
X270400000Y-61000000D02*
X266000000Y-61000000D01*
D20*
X120100000Y-78190000D02*
X127132233Y-78190000D01*
X67741060Y-118407470D02*
X66936057Y-118407470D01*
X63200000Y-107327968D02*
X70450000Y-100077968D01*
D18*
X265400000Y-101000000D02*
X265400000Y-100800000D01*
X231800000Y-121800000D02*
X231800000Y-108200000D01*
D20*
X44150000Y-69820000D02*
X44900000Y-70570000D01*
X83950000Y-78750000D02*
X83900000Y-78700000D01*
X44150000Y-69300000D02*
X40267968Y-69300000D01*
X142882032Y-66320000D02*
X141597968Y-66320000D01*
D18*
X224600000Y-94455607D02*
X223455607Y-95600000D01*
D20*
X144300000Y-45900000D02*
X143100000Y-47100000D01*
D18*
X187000000Y-70700000D02*
X187200000Y-70500000D01*
D20*
X50200000Y-62500000D02*
X49800000Y-62500000D01*
D18*
X265400000Y-100800000D02*
X265200000Y-100600000D01*
D20*
X126300000Y-47500000D02*
X128260000Y-45540000D01*
D18*
X163200000Y-80000000D02*
X165000000Y-80000000D01*
X192700000Y-82400000D02*
X192100000Y-83000000D01*
X185190000Y-77390000D02*
X185190000Y-74610000D01*
D20*
X70450000Y-100077968D02*
X70450000Y-99160050D01*
D18*
X225800000Y-59600000D02*
X225200000Y-59000000D01*
X226000000Y-63800000D02*
X226800000Y-63000000D01*
D20*
X47167767Y-81200000D02*
X54650000Y-88682233D01*
D18*
X171700000Y-52200000D02*
X171000000Y-52900000D01*
X161600000Y-44600000D02*
X162000000Y-45000000D01*
D20*
X48689339Y-95350000D02*
X48200000Y-95839339D01*
D18*
X187600000Y-50600000D02*
X187600000Y-49200000D01*
X185600000Y-54000000D02*
X186600000Y-53000000D01*
D20*
X66100000Y-62800000D02*
X65900000Y-63000000D01*
D18*
X245200000Y-65000000D02*
X245200000Y-64600000D01*
D20*
X86400000Y-71500000D02*
X86400000Y-74800000D01*
X47300000Y-117900000D02*
X47300000Y-119500000D01*
D18*
X168200000Y-79400000D02*
X168200000Y-78800000D01*
D20*
X107339339Y-37000000D02*
X105550000Y-38789339D01*
D18*
X165600000Y-46751472D02*
X166624264Y-47775736D01*
D20*
X107800000Y-60700000D02*
X106750000Y-61750000D01*
D18*
X214200000Y-95400000D02*
X214200000Y-86551472D01*
X244800000Y-71200000D02*
X244338679Y-71200000D01*
X165000000Y-85335177D02*
X168500000Y-88835177D01*
D20*
X129182233Y-76140000D02*
X130217767Y-76140000D01*
X99912857Y-80376135D02*
X100158683Y-80376135D01*
X142300000Y-80700000D02*
X143790000Y-82190000D01*
D18*
X207000000Y-82200000D02*
X206600000Y-82200000D01*
X190200000Y-86200000D02*
X188800000Y-86200000D01*
D20*
X40267968Y-69300000D02*
X38020000Y-71547968D01*
X66800000Y-81000000D02*
X66800000Y-80100000D01*
X143790000Y-65412032D02*
X142882032Y-66320000D01*
D18*
X206600000Y-82200000D02*
X205800000Y-82200000D01*
D20*
X110695000Y-62972818D02*
X117922182Y-70200000D01*
D18*
X171000000Y-52900000D02*
X171000000Y-55216303D01*
X194600000Y-82400000D02*
X192700000Y-82400000D01*
X247768114Y-111577952D02*
X247768114Y-102568114D01*
D20*
X54650000Y-88682233D02*
X58217767Y-88682233D01*
D18*
X246600000Y-117400000D02*
X241800000Y-122200000D01*
D20*
X124800000Y-69100000D02*
X124800000Y-67800000D01*
X105200000Y-62800000D02*
X104100000Y-62800000D01*
D18*
X187600000Y-49200000D02*
X187400000Y-49000000D01*
D20*
X88100000Y-75800000D02*
X86400000Y-77500000D01*
X121600000Y-72500000D02*
X120100000Y-74000000D01*
X117922182Y-70200000D02*
X120500000Y-70200000D01*
D18*
X245000000Y-100000000D02*
X245000000Y-98600000D01*
D20*
X46950000Y-119850000D02*
X46950000Y-119767968D01*
X86400000Y-77500000D02*
X86400000Y-78750000D01*
D18*
X187000000Y-72000000D02*
X187000000Y-70700000D01*
X207600000Y-57400000D02*
X206400000Y-56200000D01*
X160800000Y-72800000D02*
X160800000Y-77600000D01*
D20*
X51650000Y-95350000D02*
X48689339Y-95350000D01*
D18*
X168500000Y-92300000D02*
X169200000Y-93000000D01*
D20*
X106750000Y-61750000D02*
X107800000Y-62800000D01*
%TO.N,/Right Sheet/ROW2*%
D18*
X73090000Y-59800000D02*
X72400000Y-59110000D01*
X76100000Y-59800000D02*
X73090000Y-59800000D01*
%TO.N,/LEft Sheet/ROW3*%
X212000000Y-58400000D02*
X214200000Y-58400000D01*
%TO.N,/Right Sheet/ROW3*%
X96600000Y-65600000D02*
X91600000Y-70600000D01*
X109395000Y-57905000D02*
X110500000Y-59010000D01*
X109395000Y-63905000D02*
X107700000Y-65600000D01*
X110655025Y-45055025D02*
X109300000Y-46410050D01*
D19*
X148400000Y-51720000D02*
X147300000Y-50620000D01*
D18*
X109395000Y-57905000D02*
X109395000Y-63905000D01*
X91600000Y-70600000D02*
X91600000Y-71810000D01*
X107700000Y-65600000D02*
X96600000Y-65600000D01*
X109300000Y-46410050D02*
X109300000Y-57810000D01*
X109300000Y-57810000D02*
X109395000Y-57905000D01*
D19*
X148400000Y-61600000D02*
X148400000Y-51720000D01*
X147900000Y-62100000D02*
X148400000Y-61600000D01*
%TO.N,/LEft Sheet/ROW2*%
D18*
X212000000Y-65200000D02*
X214100000Y-65200000D01*
X210800000Y-64000000D02*
X212000000Y-65200000D01*
%TO.N,Net-(D39-DOUT)*%
D19*
X249000000Y-120800000D02*
X249000000Y-119786598D01*
X259376598Y-109410000D02*
X261410000Y-109410000D01*
X261410000Y-109410000D02*
X263400000Y-111400000D01*
X263400000Y-111400000D02*
X263400000Y-113800000D01*
X249000000Y-119786598D02*
X259376598Y-109410000D01*
%TO.N,Net-(D21-DOUT)*%
X192800000Y-41200000D02*
X195000000Y-41200000D01*
X195000000Y-41200000D02*
X195400000Y-40800000D01*
%TO.N,/LEft Sheet/ROW1*%
D18*
X232390000Y-90200000D02*
X233800000Y-90200000D01*
X177000000Y-54600000D02*
X177100000Y-54600000D01*
X176400000Y-55200000D02*
X177000000Y-54600000D01*
X193600000Y-84000000D02*
X195800000Y-84000000D01*
X252800000Y-67200000D02*
X251400000Y-67200000D01*
X251400000Y-67200000D02*
X251000000Y-67600000D01*
X175400000Y-55200000D02*
X176400000Y-55200000D01*
%TO.N,Net-(D41-DOUT)*%
D19*
X136190380Y-57000000D02*
X133690380Y-54500000D01*
X133690380Y-54500000D02*
X112700000Y-54500000D01*
%TO.N,/Right Sheet/D1*%
X44900000Y-68469899D02*
X44900000Y-64700000D01*
X46830101Y-70400000D02*
X44900000Y-68469899D01*
X49980000Y-70400000D02*
X46830101Y-70400000D01*
X50100000Y-70520000D02*
X49980000Y-70400000D01*
%TO.N,Net-(D42-DOUT)*%
X58177056Y-75600000D02*
X61200000Y-75600000D01*
X65010000Y-71310000D02*
X66300000Y-72600000D01*
X61200000Y-75600000D02*
X61150000Y-75550000D01*
X61150000Y-72686598D02*
X62526598Y-71310000D01*
X66300000Y-72600000D02*
X66300000Y-74800000D01*
X62526598Y-71310000D02*
X65010000Y-71310000D01*
X52700000Y-80300000D02*
X53477056Y-80300000D01*
X53477056Y-80300000D02*
X58177056Y-75600000D01*
X61150000Y-75550000D02*
X61150000Y-72686598D01*
%TO.N,Net-(D58-DOUT)*%
X95980331Y-80619669D02*
X95980331Y-80675304D01*
X95980331Y-80675304D02*
X87300000Y-89355635D01*
X87300000Y-89355635D02*
X87300000Y-89800000D01*
%TO.N,Net-(D64-DOUT)*%
X70400000Y-95200000D02*
X69400000Y-96200000D01*
X74800000Y-95200000D02*
X70400000Y-95200000D01*
%TO.N,Net-(D47-DOUT)*%
X112258529Y-41210000D02*
X108410000Y-41210000D01*
X115600000Y-47400000D02*
X114370000Y-46170000D01*
X114370000Y-43321471D02*
X112258529Y-41210000D01*
X108410000Y-41210000D02*
X106300000Y-39100000D01*
X114370000Y-46170000D02*
X114370000Y-43321471D01*
%TO.N,Net-(D56-DOUT)*%
X97550000Y-41550000D02*
X87300000Y-51800000D01*
X97550000Y-40500000D02*
X97550000Y-41550000D01*
%TO.N,Net-(D57-DOUT)*%
X93748529Y-61200000D02*
X106200000Y-61200000D01*
X91500000Y-60300000D02*
X92848529Y-60300000D01*
X92848529Y-60300000D02*
X93748529Y-61200000D01*
X107300000Y-60100000D02*
X107300000Y-58600000D01*
X106200000Y-61200000D02*
X107300000Y-60100000D01*
X107300000Y-58600000D02*
X106500000Y-57800000D01*
X106500000Y-57800000D02*
X105900000Y-57800000D01*
X90655025Y-61144975D02*
X91500000Y-60300000D01*
X105900000Y-57800000D02*
X105800000Y-57700000D01*
%TO.N,Net-(D63-DOUT)*%
X118300000Y-61256598D02*
X119676598Y-59880000D01*
X121743402Y-60000000D02*
X123000000Y-61256598D01*
X117700000Y-64100000D02*
X117700000Y-61856598D01*
X111400000Y-62900000D02*
X112600000Y-64100000D01*
X112600000Y-64100000D02*
X117700000Y-64100000D01*
X117700000Y-61856598D02*
X118300000Y-61256598D01*
X111400000Y-61900000D02*
X111400000Y-62900000D01*
X123000000Y-61256598D02*
X123000000Y-63200000D01*
X119676598Y-59880000D02*
X121623402Y-59880000D01*
X121623402Y-59880000D02*
X121743402Y-60000000D01*
X123000000Y-63200000D02*
X123300000Y-63500000D01*
X123300000Y-63500000D02*
X123300000Y-64400000D01*
%TO.N,Net-(D22-DOUT)*%
X214800000Y-48200000D02*
X215000000Y-48000000D01*
X209200000Y-48200000D02*
X214800000Y-48200000D01*
%TO.N,Net-(D36-DOUT)*%
X242273402Y-90360000D02*
X244000000Y-92086598D01*
X236730991Y-93955607D02*
X240326598Y-90360000D01*
X220044393Y-93955607D02*
X236730991Y-93955607D01*
X244000000Y-92086598D02*
X244000000Y-95200000D01*
X240326598Y-90360000D02*
X242273402Y-90360000D01*
%TO.N,Net-(D23-DOUT)*%
X230500000Y-56600000D02*
X232200000Y-56600000D01*
X232200000Y-56600000D02*
X232400000Y-56400000D01*
%TO.N,/Right Sheet/D2*%
X140000000Y-82700000D02*
X140000000Y-85876598D01*
X142400000Y-88276598D02*
X142400000Y-90900000D01*
X140000000Y-85876598D02*
X142400000Y-88276598D01*
%TO.N,Net-(D43-DOUT)*%
X133444975Y-84344975D02*
X132700000Y-83600000D01*
X132700000Y-83600000D02*
X124100000Y-83600000D01*
%TO.N,Net-(D70-DOUT)*%
X136673402Y-63500000D02*
X142600000Y-69426598D01*
X142600000Y-69426598D02*
X142600000Y-71300000D01*
X132600000Y-63500000D02*
X136673402Y-63500000D01*
%TO.N,Net-(D29-DOUT)*%
X200600000Y-61600000D02*
X201800000Y-62800000D01*
X201800000Y-62800000D02*
X221063402Y-62800000D01*
X225200000Y-66936598D02*
X225200000Y-69400000D01*
X221063402Y-62800000D02*
X225200000Y-66936598D01*
%TO.N,Net-(D33-DOUT)*%
X177600000Y-86400000D02*
X178200000Y-85800000D01*
X175400000Y-86400000D02*
X177600000Y-86400000D01*
%TO.N,Net-(D34-DOUT)*%
X192520101Y-76679899D02*
X192000000Y-77200000D01*
X192000000Y-79000000D02*
X192200000Y-79200000D01*
X194500001Y-76679899D02*
X192520101Y-76679899D01*
X192000000Y-77200000D02*
X192000000Y-79000000D01*
%TO.N,Net-(D27-DOUT)*%
X190078528Y-72470001D02*
X190078528Y-65278528D01*
X189348529Y-73200000D02*
X190078528Y-72470001D01*
X176400000Y-73800000D02*
X176400000Y-72800000D01*
X187400000Y-64400000D02*
X187200000Y-64600000D01*
X174000000Y-76200000D02*
X176400000Y-73800000D01*
X190078528Y-65278528D02*
X189200000Y-64400000D01*
X176800000Y-73200000D02*
X189348529Y-73200000D01*
X189200000Y-64400000D02*
X187400000Y-64400000D01*
X176400000Y-72800000D02*
X176800000Y-73200000D01*
X170800000Y-76200000D02*
X174000000Y-76200000D01*
%TO.N,Net-(D31-DOUT)*%
X249400000Y-83000000D02*
X261600000Y-83000000D01*
X261600000Y-83000000D02*
X264400000Y-80200000D01*
X264300000Y-77300000D02*
X264300000Y-75800000D01*
X264400000Y-77400000D02*
X264300000Y-77300000D01*
X264400000Y-80200000D02*
X264400000Y-77400000D01*
%TO.N,/LEft Sheet/D2*%
X233790000Y-85000000D02*
X233790000Y-85210000D01*
X256800000Y-80600000D02*
X250000000Y-80600000D01*
X193800000Y-89800000D02*
X192100000Y-91500000D01*
X192100000Y-91500000D02*
X169300000Y-91500000D01*
X250000000Y-80600000D02*
X245600000Y-85000000D01*
X169300000Y-91500000D02*
X169200000Y-91600000D01*
X233790000Y-85210000D02*
X232294975Y-86705025D01*
%TO.N,Net-(D25-DOUT)*%
X213210050Y-39200000D02*
X210700000Y-39200000D01*
X170200000Y-54300000D02*
X170300000Y-54400000D01*
X176700000Y-41211471D02*
X176840000Y-41351471D01*
X255600000Y-58092894D02*
X241407106Y-43900000D01*
X170300000Y-49600000D02*
X170677056Y-49600000D01*
X173640000Y-46800000D02*
X172638105Y-46800000D01*
X170200000Y-52000000D02*
X170200000Y-54300000D01*
X176840000Y-41351471D02*
X176840000Y-41848529D01*
X172638105Y-46800000D02*
X171738000Y-47700105D01*
X170677056Y-49600000D02*
X171380000Y-50302944D01*
X170300000Y-48500000D02*
X170300000Y-49600000D01*
X255600000Y-60800000D02*
X255600000Y-58092894D01*
X241407106Y-43900000D02*
X237200000Y-43900000D01*
X214100000Y-44000000D02*
X214099999Y-40089949D01*
X176700000Y-41988529D02*
X176700000Y-43740000D01*
X171380000Y-50302944D02*
X171380000Y-51297056D01*
X170677056Y-52000000D02*
X170200000Y-52000000D01*
X214099999Y-40089949D02*
X213210050Y-39200000D01*
X171099895Y-47700105D02*
X170300000Y-48500000D01*
X176700000Y-43740000D02*
X173640000Y-46800000D01*
X176700000Y-39600000D02*
X176700000Y-41211471D01*
X171380000Y-51297056D02*
X170677056Y-52000000D01*
X171738000Y-47700105D02*
X171099895Y-47700105D01*
X176840000Y-41848529D02*
X176700000Y-41988529D01*
%TO.N,/LEft Sheet/D1*%
X168024265Y-68575735D02*
X167800000Y-68800000D01*
X167800000Y-68800000D02*
X167800000Y-70600000D01*
%TO.N,Net-(D48-DOUT)*%
X72000000Y-67500000D02*
X75582944Y-67500000D01*
X81576598Y-64960000D02*
X83523402Y-64960000D01*
X77967056Y-66110000D02*
X78057056Y-66200000D01*
X76972944Y-66110000D02*
X77967056Y-66110000D01*
X80336598Y-66200000D02*
X81576598Y-64960000D01*
X85500000Y-66936598D02*
X85500000Y-68700000D01*
X83523402Y-64960000D02*
X85500000Y-66936598D01*
X75582944Y-67500000D02*
X76972944Y-66110000D01*
X78057056Y-66200000D02*
X80336598Y-66200000D01*
%TO.N,Net-(D49-DOUT)*%
X93500000Y-84100000D02*
X94200000Y-83400000D01*
X107000000Y-78500000D02*
X105800000Y-77300000D01*
X94200000Y-83400000D02*
X105700000Y-83400000D01*
X105700000Y-83400000D02*
X107000000Y-82100000D01*
X107000000Y-82100000D02*
X107000000Y-78500000D01*
%TO.N,Net-(D71-DOUT)*%
X58900000Y-98000000D02*
X50900000Y-98000000D01*
X50900000Y-98000000D02*
X49000000Y-96100000D01*
%TO.N,Net-(D30-DOUT)*%
X219575000Y-73800000D02*
X219575000Y-75975000D01*
X244200000Y-73236598D02*
X244200000Y-75200000D01*
X233036598Y-78600000D02*
X240326598Y-71310000D01*
X226800000Y-79400000D02*
X227600000Y-78600000D01*
X219575000Y-75975000D02*
X223000000Y-79400000D01*
X223000000Y-79400000D02*
X226800000Y-79400000D01*
X240326598Y-71310000D02*
X242273402Y-71310000D01*
X232390000Y-78600000D02*
X233036598Y-78600000D01*
X242273402Y-71310000D02*
X244200000Y-73236598D01*
%TD*%
M02*
